<?xml version="1.0" encoding="utf-8" standalone="no"?>
<!DOCTYPE svg PUBLIC "-//W3C//DTD SVG 1.1//EN"
  "http://www.w3.org/Graphics/SVG/1.1/DTD/svg11.dtd">
<svg height="282.790125pt" version="1.1" viewBox="0 0 383.68017 282.790125" width="383.68017pt" xmlns="http://www.w3.org/2000/svg" xmlns:xlink="http://www.w3.org/1999/xlink">
 <metadata>
  <rdf:RDF xmlns:cc="http://creativecommons.org/ns#" xmlns:dc="http://purl.org/dc/elements/1.1/" xmlns:rdf="http://www.w3.org/1999/02/22-rdf-syntax-ns#">
   <cc:Work>
    <dc:type rdf:resource="http://purl.org/dc/dcmitype/StillImage"/>
    <dc:date>2021-09-07T22:59:31.997233</dc:date>
    <dc:format>image/svg+xml</dc:format>
    <dc:creator>
     <cc:Agent>
      <dc:title>Matplotlib v3.4.2, https://matplotlib.org/</dc:title>
     </cc:Agent>
    </dc:creator>
   </cc:Work>
  </rdf:RDF>
 </metadata>
 <defs>
  <style type="text/css">*{stroke-linecap:butt;stroke-linejoin:round;}</style>
 </defs>
 <g id="figure_1">
  <g id="patch_1">
   <path d="M 0 282.790125 
L 383.68017 282.790125 
L 383.68017 0 
L 0 0 
z
" style="fill:none;"/>
  </g>
  <g id="axes_1">
   <g id="patch_2">
    <path d="M 22.903125 266.112 
L 380.023125 266.112 
L 380.023125 0 
L 22.903125 0 
z
" style="fill:none;"/>
   </g>
   <g id="matplotlib.axis_1">
    <g id="xtick_1">
     <g id="line2d_1">
      <defs>
       <path d="M 0 0 
L 0 3.5 
" id="m8c50774709" style="stroke:#000000;stroke-width:0.8;"/>
      </defs>
      <g>
       <use style="stroke:#000000;stroke-width:0.8;" x="39.135852" xlink:href="#m8c50774709" y="266.112"/>
      </g>
     </g>
     <g id="text_1">
      <!-- 0 -->
      <g transform="translate(35.954602 280.710438)scale(0.1 -0.1)">
       <defs>
        <path d="M 2034 4250 
Q 1547 4250 1301 3770 
Q 1056 3291 1056 2328 
Q 1056 1369 1301 889 
Q 1547 409 2034 409 
Q 2525 409 2770 889 
Q 3016 1369 3016 2328 
Q 3016 3291 2770 3770 
Q 2525 4250 2034 4250 
z
M 2034 4750 
Q 2819 4750 3233 4129 
Q 3647 3509 3647 2328 
Q 3647 1150 3233 529 
Q 2819 -91 2034 -91 
Q 1250 -91 836 529 
Q 422 1150 422 2328 
Q 422 3509 836 4129 
Q 1250 4750 2034 4750 
z
" id="DejaVuSans-30" transform="scale(0.015625)"/>
       </defs>
       <use xlink:href="#DejaVuSans-30"/>
      </g>
     </g>
    </g>
    <g id="xtick_2">
     <g id="line2d_2">
      <g>
       <use style="stroke:#000000;stroke-width:0.8;" x="106.772216" xlink:href="#m8c50774709" y="266.112"/>
      </g>
     </g>
     <g id="text_2">
      <!-- 5 -->
      <g transform="translate(103.590966 280.710438)scale(0.1 -0.1)">
       <defs>
        <path d="M 691 4666 
L 3169 4666 
L 3169 4134 
L 1269 4134 
L 1269 2991 
Q 1406 3038 1543 3061 
Q 1681 3084 1819 3084 
Q 2600 3084 3056 2656 
Q 3513 2228 3513 1497 
Q 3513 744 3044 326 
Q 2575 -91 1722 -91 
Q 1428 -91 1123 -41 
Q 819 9 494 109 
L 494 744 
Q 775 591 1075 516 
Q 1375 441 1709 441 
Q 2250 441 2565 725 
Q 2881 1009 2881 1497 
Q 2881 1984 2565 2268 
Q 2250 2553 1709 2553 
Q 1456 2553 1204 2497 
Q 953 2441 691 2322 
L 691 4666 
z
" id="DejaVuSans-35" transform="scale(0.015625)"/>
       </defs>
       <use xlink:href="#DejaVuSans-35"/>
      </g>
     </g>
    </g>
    <g id="xtick_3">
     <g id="line2d_3">
      <g>
       <use style="stroke:#000000;stroke-width:0.8;" x="174.40858" xlink:href="#m8c50774709" y="266.112"/>
      </g>
     </g>
     <g id="text_3">
      <!-- 10 -->
      <g transform="translate(168.04608 280.710438)scale(0.1 -0.1)">
       <defs>
        <path d="M 794 531 
L 1825 531 
L 1825 4091 
L 703 3866 
L 703 4441 
L 1819 4666 
L 2450 4666 
L 2450 531 
L 3481 531 
L 3481 0 
L 794 0 
L 794 531 
z
" id="DejaVuSans-31" transform="scale(0.015625)"/>
       </defs>
       <use xlink:href="#DejaVuSans-31"/>
       <use x="63.623047" xlink:href="#DejaVuSans-30"/>
      </g>
     </g>
    </g>
    <g id="xtick_4">
     <g id="line2d_4">
      <g>
       <use style="stroke:#000000;stroke-width:0.8;" x="242.044943" xlink:href="#m8c50774709" y="266.112"/>
      </g>
     </g>
     <g id="text_4">
      <!-- 15 -->
      <g transform="translate(235.682443 280.710438)scale(0.1 -0.1)">
       <use xlink:href="#DejaVuSans-31"/>
       <use x="63.623047" xlink:href="#DejaVuSans-35"/>
      </g>
     </g>
    </g>
    <g id="xtick_5">
     <g id="line2d_5">
      <g>
       <use style="stroke:#000000;stroke-width:0.8;" x="309.681307" xlink:href="#m8c50774709" y="266.112"/>
      </g>
     </g>
     <g id="text_5">
      <!-- 20 -->
      <g transform="translate(303.318807 280.710438)scale(0.1 -0.1)">
       <defs>
        <path d="M 1228 531 
L 3431 531 
L 3431 0 
L 469 0 
L 469 531 
Q 828 903 1448 1529 
Q 2069 2156 2228 2338 
Q 2531 2678 2651 2914 
Q 2772 3150 2772 3378 
Q 2772 3750 2511 3984 
Q 2250 4219 1831 4219 
Q 1534 4219 1204 4116 
Q 875 4013 500 3803 
L 500 4441 
Q 881 4594 1212 4672 
Q 1544 4750 1819 4750 
Q 2544 4750 2975 4387 
Q 3406 4025 3406 3419 
Q 3406 3131 3298 2873 
Q 3191 2616 2906 2266 
Q 2828 2175 2409 1742 
Q 1991 1309 1228 531 
z
" id="DejaVuSans-32" transform="scale(0.015625)"/>
       </defs>
       <use xlink:href="#DejaVuSans-32"/>
       <use x="63.623047" xlink:href="#DejaVuSans-30"/>
      </g>
     </g>
    </g>
    <g id="xtick_6">
     <g id="line2d_6">
      <g>
       <use style="stroke:#000000;stroke-width:0.8;" x="377.31767" xlink:href="#m8c50774709" y="266.112"/>
      </g>
     </g>
     <g id="text_6">
      <!-- 25 -->
      <g transform="translate(370.95517 280.710438)scale(0.1 -0.1)">
       <use xlink:href="#DejaVuSans-32"/>
       <use x="63.623047" xlink:href="#DejaVuSans-35"/>
      </g>
     </g>
    </g>
   </g>
   <g id="matplotlib.axis_2">
    <g id="ytick_1">
     <g id="line2d_7">
      <defs>
       <path d="M 0 0 
L -3.5 0 
" id="mc95206bd40" style="stroke:#000000;stroke-width:0.8;"/>
      </defs>
      <g>
       <use style="stroke:#000000;stroke-width:0.8;" x="22.903125" xlink:href="#mc95206bd40" y="254.016"/>
      </g>
     </g>
     <g id="text_7">
      <!-- 0.0 -->
      <g transform="translate(0 257.815219)scale(0.1 -0.1)">
       <defs>
        <path d="M 684 794 
L 1344 794 
L 1344 0 
L 684 0 
L 684 794 
z
" id="DejaVuSans-2e" transform="scale(0.015625)"/>
       </defs>
       <use xlink:href="#DejaVuSans-30"/>
       <use x="63.623047" xlink:href="#DejaVuSans-2e"/>
       <use x="95.410156" xlink:href="#DejaVuSans-30"/>
      </g>
     </g>
    </g>
    <g id="ytick_2">
     <g id="line2d_8">
      <g>
       <use style="stroke:#000000;stroke-width:0.8;" x="22.903125" xlink:href="#mc95206bd40" y="205.632"/>
      </g>
     </g>
     <g id="text_8">
      <!-- 0.2 -->
      <g transform="translate(0 209.431219)scale(0.1 -0.1)">
       <use xlink:href="#DejaVuSans-30"/>
       <use x="63.623047" xlink:href="#DejaVuSans-2e"/>
       <use x="95.410156" xlink:href="#DejaVuSans-32"/>
      </g>
     </g>
    </g>
    <g id="ytick_3">
     <g id="line2d_9">
      <g>
       <use style="stroke:#000000;stroke-width:0.8;" x="22.903125" xlink:href="#mc95206bd40" y="157.248"/>
      </g>
     </g>
     <g id="text_9">
      <!-- 0.4 -->
      <g transform="translate(0 161.047219)scale(0.1 -0.1)">
       <defs>
        <path d="M 2419 4116 
L 825 1625 
L 2419 1625 
L 2419 4116 
z
M 2253 4666 
L 3047 4666 
L 3047 1625 
L 3713 1625 
L 3713 1100 
L 3047 1100 
L 3047 0 
L 2419 0 
L 2419 1100 
L 313 1100 
L 313 1709 
L 2253 4666 
z
" id="DejaVuSans-34" transform="scale(0.015625)"/>
       </defs>
       <use xlink:href="#DejaVuSans-30"/>
       <use x="63.623047" xlink:href="#DejaVuSans-2e"/>
       <use x="95.410156" xlink:href="#DejaVuSans-34"/>
      </g>
     </g>
    </g>
    <g id="ytick_4">
     <g id="line2d_10">
      <g>
       <use style="stroke:#000000;stroke-width:0.8;" x="22.903125" xlink:href="#mc95206bd40" y="108.864"/>
      </g>
     </g>
     <g id="text_10">
      <!-- 0.6 -->
      <g transform="translate(0 112.663219)scale(0.1 -0.1)">
       <defs>
        <path d="M 2113 2584 
Q 1688 2584 1439 2293 
Q 1191 2003 1191 1497 
Q 1191 994 1439 701 
Q 1688 409 2113 409 
Q 2538 409 2786 701 
Q 3034 994 3034 1497 
Q 3034 2003 2786 2293 
Q 2538 2584 2113 2584 
z
M 3366 4563 
L 3366 3988 
Q 3128 4100 2886 4159 
Q 2644 4219 2406 4219 
Q 1781 4219 1451 3797 
Q 1122 3375 1075 2522 
Q 1259 2794 1537 2939 
Q 1816 3084 2150 3084 
Q 2853 3084 3261 2657 
Q 3669 2231 3669 1497 
Q 3669 778 3244 343 
Q 2819 -91 2113 -91 
Q 1303 -91 875 529 
Q 447 1150 447 2328 
Q 447 3434 972 4092 
Q 1497 4750 2381 4750 
Q 2619 4750 2861 4703 
Q 3103 4656 3366 4563 
z
" id="DejaVuSans-36" transform="scale(0.015625)"/>
       </defs>
       <use xlink:href="#DejaVuSans-30"/>
       <use x="63.623047" xlink:href="#DejaVuSans-2e"/>
       <use x="95.410156" xlink:href="#DejaVuSans-36"/>
      </g>
     </g>
    </g>
    <g id="ytick_5">
     <g id="line2d_11">
      <g>
       <use style="stroke:#000000;stroke-width:0.8;" x="22.903125" xlink:href="#mc95206bd40" y="60.48"/>
      </g>
     </g>
     <g id="text_11">
      <!-- 0.8 -->
      <g transform="translate(0 64.279219)scale(0.1 -0.1)">
       <defs>
        <path d="M 2034 2216 
Q 1584 2216 1326 1975 
Q 1069 1734 1069 1313 
Q 1069 891 1326 650 
Q 1584 409 2034 409 
Q 2484 409 2743 651 
Q 3003 894 3003 1313 
Q 3003 1734 2745 1975 
Q 2488 2216 2034 2216 
z
M 1403 2484 
Q 997 2584 770 2862 
Q 544 3141 544 3541 
Q 544 4100 942 4425 
Q 1341 4750 2034 4750 
Q 2731 4750 3128 4425 
Q 3525 4100 3525 3541 
Q 3525 3141 3298 2862 
Q 3072 2584 2669 2484 
Q 3125 2378 3379 2068 
Q 3634 1759 3634 1313 
Q 3634 634 3220 271 
Q 2806 -91 2034 -91 
Q 1263 -91 848 271 
Q 434 634 434 1313 
Q 434 1759 690 2068 
Q 947 2378 1403 2484 
z
M 1172 3481 
Q 1172 3119 1398 2916 
Q 1625 2713 2034 2713 
Q 2441 2713 2670 2916 
Q 2900 3119 2900 3481 
Q 2900 3844 2670 4047 
Q 2441 4250 2034 4250 
Q 1625 4250 1398 4047 
Q 1172 3844 1172 3481 
z
" id="DejaVuSans-38" transform="scale(0.015625)"/>
       </defs>
       <use xlink:href="#DejaVuSans-30"/>
       <use x="63.623047" xlink:href="#DejaVuSans-2e"/>
       <use x="95.410156" xlink:href="#DejaVuSans-38"/>
      </g>
     </g>
    </g>
    <g id="ytick_6">
     <g id="line2d_12">
      <g>
       <use style="stroke:#000000;stroke-width:0.8;" x="22.903125" xlink:href="#mc95206bd40" y="12.096"/>
      </g>
     </g>
     <g id="text_12">
      <!-- 1.0 -->
      <g transform="translate(0 15.895219)scale(0.1 -0.1)">
       <use xlink:href="#DejaVuSans-31"/>
       <use x="63.623047" xlink:href="#DejaVuSans-2e"/>
       <use x="95.410156" xlink:href="#DejaVuSans-30"/>
      </g>
     </g>
    </g>
   </g>
   <g id="line2d_13">
    <path clip-path="url(#pca19c2cfb5)" d="M 39.135852 187.832761 
L 40.110791 184.964622 
L 41.085729 189.84694 
L 42.060668 181.963051 
L 43.035607 204.891646 
L 44.010545 205.055576 
L 44.985484 206.833391 
L 45.960422 197.705413 
L 46.935361 205.369458 
L 47.910299 209.912479 
L 48.885238 208.859006 
L 49.860177 210.911308 
L 50.835115 214.334776 
L 51.810054 216.625984 
L 52.784992 207.528505 
L 53.759931 206.669461 
L 54.734869 206.860077 
L 55.709808 206.178942 
L 56.684747 211.047281 
L 57.659685 210.99645 
L 58.634624 210.748649 
L 59.609562 197.843928 
L 60.584501 214.761757 
L 61.559439 216.604381 
L 62.534378 216.916991 
L 63.509317 213.948461 
L 64.484255 214.761757 
L 65.459194 216.604381 
L 66.434132 216.916991 
L 67.409071 213.948461 
L 68.38401 222.958256 
L 69.358948 220.758544 
L 70.333887 223.475462 
L 71.308825 220.894517 
L 72.283764 220.476432 
L 73.258702 216.906825 
L 74.233641 220.384937 
L 75.20858 216.304478 
L 76.183518 226.091988 
L 77.158457 222.200874 
L 78.133395 225.605281 
L 79.108334 223.724534 
L 80.083272 199.906396 
L 81.058211 186.94576 
L 82.03315 211.108278 
L 83.008088 213.499877 
L 83.983027 151.561027 
L 84.957965 173.460295 
L 85.932904 172.827449 
L 86.907842 199.939436 
L 87.882781 196.226231 
L 88.85772 205.155968 
L 89.832658 204.802692 
L 90.807597 226.569799 
L 91.782535 228.881339 
L 92.757474 229.886522 
L 93.732412 225.469308 
L 94.707351 223.518668 
L 96.657228 226.8176 
L 97.632167 224.343401 
L 99.582044 226.116132 
L 100.556982 227.86726 
L 101.531921 226.914179 
L 102.50686 226.672732 
L 103.481798 225.50616 
L 104.456737 227.644875 
L 105.431675 226.098342 
L 106.406614 192.478715 
L 107.381553 193.003545 
L 108.356491 187.914091 
L 109.33143 187.92934 
L 110.306368 63.195138 
L 111.281307 61.59142 
L 112.256245 53.387296 
L 113.231184 56.496882 
L 114.206123 70.36231 
L 116.156 92.326387 
L 117.130938 82.815906 
L 118.105877 12.887693 
L 119.080815 12.096 
L 120.055754 28.063289 
L 121.030693 19.456329 
L 122.005631 70.36231 
L 123.955508 92.326387 
L 124.930447 82.815906 
L 125.905385 95.813394 
L 126.880324 89.995785 
L 127.855263 104.580471 
L 128.830201 94.378689 
L 129.80514 88.023542 
L 130.780078 85.654817 
L 131.755017 97.567063 
L 132.729955 93.308696 
L 133.704894 148.973729 
L 134.679833 144.692488 
L 135.654771 156.837285 
L 136.62971 152.615771 
L 137.604648 191.829349 
L 138.579587 191.211752 
L 139.554525 194.452229 
L 140.529464 184.64947 
L 141.504403 189.787213 
L 142.479341 185.804604 
L 143.45428 194.129452 
L 144.429218 186.866972 
L 145.404157 214.647387 
L 146.379096 214.96381 
L 147.354034 216.253647 
L 148.328973 212.412094 
L 149.303911 219.814359 
L 150.27885 219.815629 
L 151.253788 221.124528 
L 152.228727 216.108778 
L 153.203666 223.960898 
L 154.178604 221.62013 
L 155.153543 222.561774 
L 156.128481 218.402527 
L 157.10342 231.683398 
L 158.078358 230.168634 
L 159.053297 229.805193 
L 160.028236 228.34126 
L 161.003174 243.929858 
L 161.978113 244.177659 
L 162.953051 240.225548 
L 163.92799 238.334635 
L 164.902928 229.803922 
L 165.877867 231.577924 
L 166.852806 232.386137 
L 167.827744 183.449858 
L 168.802683 173.032044 
L 169.777621 175.330876 
L 170.75256 127.099877 
L 171.727498 139.813982 
L 172.702437 232.900801 
L 173.677376 235.231402 
L 174.652314 232.557691 
L 175.627253 228.019753 
L 176.602191 232.828367 
L 177.57713 233.918692 
L 178.552068 231.496594 
L 179.527007 222.434697 
L 180.501946 235.775294 
L 181.476884 235.463954 
L 182.451823 239.066602 
L 183.426761 236.248022 
L 184.4017 187.656124 
L 185.376639 203.054106 
L 186.351577 223.626684 
L 187.326516 224.583578 
L 188.301454 200.562116 
L 189.276393 205.816771 
L 190.251331 220.363333 
L 191.22627 223.889734 
L 192.201209 226.231773 
L 193.176147 222.166563 
L 194.151086 236.89993 
L 195.126024 241.306978 
L 196.100963 251.028408 
L 197.075901 250.809834 
L 198.05084 239.39192 
L 199.025779 243.81803 
L 200.000717 252.543172 
L 200.975656 254.016 
L 201.950594 119.346878 
L 202.925533 124.884916 
L 203.900471 186.825037 
L 204.87541 203.545896 
L 205.850349 44.834979 
L 206.825287 87.742701 
L 207.800226 84.475538 
L 208.775164 90.235962 
L 209.750103 86.722269 
L 210.725041 74.940912 
L 211.69998 98.861983 
L 213.649857 78.865066 
L 214.624796 79.112867 
L 215.599734 87.287763 
L 216.574673 121.155191 
L 217.549611 129.054329 
L 218.52455 143.84361 
L 219.499489 130.109073 
L 220.474427 165.59928 
L 221.449366 166.638774 
L 222.424304 173.498418 
L 223.399243 166.364287 
L 224.374182 67.00111 
L 225.34912 53.387296 
L 226.324059 74.705819 
L 227.298997 63.155744 
L 228.273936 101.881345 
L 229.248874 88.614453 
L 230.223813 113.370423 
L 231.198752 99.517703 
L 232.17369 193.713909 
L 234.123567 202.712267 
L 235.098506 193.361904 
L 236.073444 214.201345 
L 237.048383 214.566057 
L 238.023322 216.909367 
L 238.99826 211.70173 
L 239.973199 128.205451 
L 240.948137 130.078574 
L 241.923076 146.76131 
L 242.898014 134.636844 
L 243.872953 163.89517 
L 244.847892 165.905537 
L 245.82283 172.253058 
L 246.797769 163.722345 
L 247.772707 183.385048 
L 248.747646 177.822866 
L 249.722584 187.934423 
L 250.697523 174.016894 
L 251.672462 191.468449 
L 252.6474 194.170117 
L 253.622339 199.854294 
L 254.597277 189.422501 
L 255.572216 226.220336 
L 256.547154 227.548296 
L 257.522093 225.738712 
L 258.497032 221.762457 
L 259.47197 226.798539 
L 261.421847 228.411152 
L 262.396786 224.142619 
L 263.371725 190.43785 
L 264.346663 190.313314 
L 265.321602 196.65067 
L 266.29654 187.671373 
L 267.271479 208.368487 
L 268.246417 208.968293 
L 269.221356 210.589802 
L 270.196295 206.60338 
L 271.171233 218.915921 
L 272.146172 219.416606 
L 273.12111 221.393932 
L 274.096049 218.78376 
L 275.070987 232.42426 
L 276.045926 233.796697 
L 277.020865 233.560333 
L 277.995803 232.084963 
L 278.970742 235.577053 
L 279.94568 237.615376 
L 280.920619 222.893447 
L 281.895557 222.470279 
L 282.870496 222.333035 
L 283.845435 215.460683 
L 284.820373 241.481074 
L 285.795312 239.202574 
L 286.77025 245.772482 
L 287.745189 242.934841 
L 288.720127 227.501277 
L 289.695066 228.798739 
L 290.670005 227.741454 
L 291.644943 226.951032 
L 292.619882 232.107837 
L 293.59482 231.874014 
L 294.569759 231.134423 
L 295.544697 226.469408 
L 296.519636 234.313903 
L 297.494575 233.806863 
L 298.469513 234.085163 
L 299.444452 232.764828 
L 300.41939 236.922804 
L 301.394329 240.331023 
L 302.369268 242.515485 
L 303.344206 243.067002 
L 304.319145 232.810576 
L 305.294083 244.286946 
L 306.269022 243.519398 
L 307.24396 236.968552 
L 308.218899 236.53903 
L 309.193838 240.500036 
L 310.168776 235.289858 
L 311.143715 244.594473 
L 312.118653 245.264172 
L 313.093592 245.733088 
L 314.06853 243.283033 
L 315.043469 232.844887 
L 316.018408 234.353297 
L 316.993346 244.298383 
L 317.968285 252.93457 
L 318.943223 252.106025 
L 319.918162 229.479874 
L 320.8931 236.465325 
L 321.868039 239.911667 
L 322.842978 242.101213 
L 323.817916 243.811676 
L 324.792855 243.806593 
L 325.767793 239.911667 
L 326.742732 242.101213 
L 327.71767 243.811676 
L 328.692609 243.806593 
L 329.667548 221.440951 
L 330.642486 236.962198 
L 331.617425 244.191638 
L 332.592363 242.483716 
L 333.567302 211.459012 
L 334.54224 220.916121 
L 335.517179 226.313103 
L 336.492118 223.786802 
L 337.467056 210.265754 
L 338.441995 206.773664 
L 339.416933 205.394873 
L 340.391872 205.355479 
L 341.366811 204.397315 
L 342.341749 200.102095 
L 343.316688 202.491152 
L 344.291626 199.314214 
L 345.266565 210.800751 
L 346.241503 208.97973 
L 347.216442 209.903583 
L 348.191381 208.709055 
L 349.166319 233.280762 
L 350.141258 232.126899 
L 351.116196 230.48887 
L 352.091135 232.367075 
L 353.066073 218.71895 
L 354.041012 218.741824 
L 355.015951 218.480045 
L 355.990889 220.673403 
L 356.965828 227.242039 
L 357.940766 220.851311 
L 358.915705 219.072226 
L 359.890643 228.184954 
L 360.865582 235.380083 
L 361.840521 233.536188 
L 362.815459 232.27685 
L 363.790398 234.458771 
L 363.790398 234.458771 
" style="fill:none;stroke:#1f77b4;stroke-linecap:square;stroke-width:1.5;"/>
   </g>
   <g id="patch_3">
    <path d="M 22.903125 266.112 
L 22.903125 0 
" style="fill:none;stroke:#000000;stroke-linecap:square;stroke-linejoin:miter;stroke-width:0.8;"/>
   </g>
   <g id="patch_4">
    <path d="M 380.023125 266.112 
L 380.023125 0 
" style="fill:none;stroke:#000000;stroke-linecap:square;stroke-linejoin:miter;stroke-width:0.8;"/>
   </g>
   <g id="patch_5">
    <path d="M 22.903125 266.112 
L 380.023125 266.112 
" style="fill:none;stroke:#000000;stroke-linecap:square;stroke-linejoin:miter;stroke-width:0.8;"/>
   </g>
   <g id="patch_6">
    <path d="M 22.903125 0 
L 380.023125 0 
" style="fill:none;stroke:#000000;stroke-linecap:square;stroke-linejoin:miter;stroke-width:0.8;"/>
   </g>
  </g>
 </g>
 <defs>
  <clipPath id="pca19c2cfb5">
   <rect height="266.112" width="357.12" x="22.903125" y="0"/>
  </clipPath>
 </defs>
</svg>
