<?xml version="1.0" encoding="utf-8" standalone="no"?>
<!DOCTYPE svg PUBLIC "-//W3C//DTD SVG 1.1//EN"
  "http://www.w3.org/Graphics/SVG/1.1/DTD/svg11.dtd">
<svg height="322.674375pt" version="1.1" viewBox="0 0 692.503125 322.674375" width="692.503125pt" xmlns="http://www.w3.org/2000/svg" xmlns:xlink="http://www.w3.org/1999/xlink">
 <metadata>
  <rdf:RDF xmlns:cc="http://creativecommons.org/ns#" xmlns:dc="http://purl.org/dc/elements/1.1/" xmlns:rdf="http://www.w3.org/1999/02/22-rdf-syntax-ns#">
   <cc:Work>
    <dc:type rdf:resource="http://purl.org/dc/dcmitype/StillImage"/>
    <dc:date>2021-09-07T15:27:27.951053</dc:date>
    <dc:format>image/svg+xml</dc:format>
    <dc:creator>
     <cc:Agent>
      <dc:title>Matplotlib v3.4.2, https://matplotlib.org/</dc:title>
     </cc:Agent>
    </dc:creator>
   </cc:Work>
  </rdf:RDF>
 </metadata>
 <defs>
  <style type="text/css">*{stroke-linecap:butt;stroke-linejoin:round;}</style>
 </defs>
 <g id="figure_1">
  <g id="patch_1">
   <path d="M 0 322.674375 
L 692.503125 322.674375 
L 692.503125 0 
L 0 0 
z
" style="fill:none;"/>
  </g>
  <g id="axes_1">
   <g id="patch_2">
    <path d="M 22.903125 292.318125 
L 692.503125 292.318125 
L 692.503125 15.118125 
L 22.903125 15.118125 
z
" style="fill:none;"/>
   </g>
   <g id="matplotlib.axis_1">
    <g id="xtick_1">
     <g id="line2d_1">
      <defs>
       <path d="M 0 0 
L 0 3.5 
" id="m41a1345aa1" style="stroke:#000000;stroke-width:0.8;"/>
      </defs>
      <g>
       <use style="stroke:#000000;stroke-width:0.8;" x="53.339489" xlink:href="#m41a1345aa1" y="292.318125"/>
      </g>
     </g>
     <g id="text_1">
      <!-- 0 -->
      <g transform="translate(50.158239 306.916563)scale(0.1 -0.1)">
       <defs>
        <path d="M 2034 4250 
Q 1547 4250 1301 3770 
Q 1056 3291 1056 2328 
Q 1056 1369 1301 889 
Q 1547 409 2034 409 
Q 2525 409 2770 889 
Q 3016 1369 3016 2328 
Q 3016 3291 2770 3770 
Q 2525 4250 2034 4250 
z
M 2034 4750 
Q 2819 4750 3233 4129 
Q 3647 3509 3647 2328 
Q 3647 1150 3233 529 
Q 2819 -91 2034 -91 
Q 1250 -91 836 529 
Q 422 1150 422 2328 
Q 422 3509 836 4129 
Q 1250 4750 2034 4750 
z
" id="DejaVuSans-30" transform="scale(0.015625)"/>
       </defs>
       <use xlink:href="#DejaVuSans-30"/>
      </g>
     </g>
    </g>
    <g id="xtick_2">
     <g id="line2d_2">
      <g>
       <use style="stroke:#000000;stroke-width:0.8;" x="142.334704" xlink:href="#m41a1345aa1" y="292.318125"/>
      </g>
     </g>
     <g id="text_2">
      <!-- 50 -->
      <g transform="translate(135.972204 306.916563)scale(0.1 -0.1)">
       <defs>
        <path d="M 691 4666 
L 3169 4666 
L 3169 4134 
L 1269 4134 
L 1269 2991 
Q 1406 3038 1543 3061 
Q 1681 3084 1819 3084 
Q 2600 3084 3056 2656 
Q 3513 2228 3513 1497 
Q 3513 744 3044 326 
Q 2575 -91 1722 -91 
Q 1428 -91 1123 -41 
Q 819 9 494 109 
L 494 744 
Q 775 591 1075 516 
Q 1375 441 1709 441 
Q 2250 441 2565 725 
Q 2881 1009 2881 1497 
Q 2881 1984 2565 2268 
Q 2250 2553 1709 2553 
Q 1456 2553 1204 2497 
Q 953 2441 691 2322 
L 691 4666 
z
" id="DejaVuSans-35" transform="scale(0.015625)"/>
       </defs>
       <use xlink:href="#DejaVuSans-35"/>
       <use x="63.623047" xlink:href="#DejaVuSans-30"/>
      </g>
     </g>
    </g>
    <g id="xtick_3">
     <g id="line2d_3">
      <g>
       <use style="stroke:#000000;stroke-width:0.8;" x="231.329919" xlink:href="#m41a1345aa1" y="292.318125"/>
      </g>
     </g>
     <g id="text_3">
      <!-- 100 -->
      <g transform="translate(221.786169 306.916563)scale(0.1 -0.1)">
       <defs>
        <path d="M 794 531 
L 1825 531 
L 1825 4091 
L 703 3866 
L 703 4441 
L 1819 4666 
L 2450 4666 
L 2450 531 
L 3481 531 
L 3481 0 
L 794 0 
L 794 531 
z
" id="DejaVuSans-31" transform="scale(0.015625)"/>
       </defs>
       <use xlink:href="#DejaVuSans-31"/>
       <use x="63.623047" xlink:href="#DejaVuSans-30"/>
       <use x="127.246094" xlink:href="#DejaVuSans-30"/>
      </g>
     </g>
    </g>
    <g id="xtick_4">
     <g id="line2d_4">
      <g>
       <use style="stroke:#000000;stroke-width:0.8;" x="320.325135" xlink:href="#m41a1345aa1" y="292.318125"/>
      </g>
     </g>
     <g id="text_4">
      <!-- 150 -->
      <g transform="translate(310.781385 306.916563)scale(0.1 -0.1)">
       <use xlink:href="#DejaVuSans-31"/>
       <use x="63.623047" xlink:href="#DejaVuSans-35"/>
       <use x="127.246094" xlink:href="#DejaVuSans-30"/>
      </g>
     </g>
    </g>
    <g id="xtick_5">
     <g id="line2d_5">
      <g>
       <use style="stroke:#000000;stroke-width:0.8;" x="409.32035" xlink:href="#m41a1345aa1" y="292.318125"/>
      </g>
     </g>
     <g id="text_5">
      <!-- 200 -->
      <g transform="translate(399.7766 306.916563)scale(0.1 -0.1)">
       <defs>
        <path d="M 1228 531 
L 3431 531 
L 3431 0 
L 469 0 
L 469 531 
Q 828 903 1448 1529 
Q 2069 2156 2228 2338 
Q 2531 2678 2651 2914 
Q 2772 3150 2772 3378 
Q 2772 3750 2511 3984 
Q 2250 4219 1831 4219 
Q 1534 4219 1204 4116 
Q 875 4013 500 3803 
L 500 4441 
Q 881 4594 1212 4672 
Q 1544 4750 1819 4750 
Q 2544 4750 2975 4387 
Q 3406 4025 3406 3419 
Q 3406 3131 3298 2873 
Q 3191 2616 2906 2266 
Q 2828 2175 2409 1742 
Q 1991 1309 1228 531 
z
" id="DejaVuSans-32" transform="scale(0.015625)"/>
       </defs>
       <use xlink:href="#DejaVuSans-32"/>
       <use x="63.623047" xlink:href="#DejaVuSans-30"/>
       <use x="127.246094" xlink:href="#DejaVuSans-30"/>
      </g>
     </g>
    </g>
    <g id="xtick_6">
     <g id="line2d_6">
      <g>
       <use style="stroke:#000000;stroke-width:0.8;" x="498.315565" xlink:href="#m41a1345aa1" y="292.318125"/>
      </g>
     </g>
     <g id="text_6">
      <!-- 250 -->
      <g transform="translate(488.771815 306.916563)scale(0.1 -0.1)">
       <use xlink:href="#DejaVuSans-32"/>
       <use x="63.623047" xlink:href="#DejaVuSans-35"/>
       <use x="127.246094" xlink:href="#DejaVuSans-30"/>
      </g>
     </g>
    </g>
    <g id="xtick_7">
     <g id="line2d_7">
      <g>
       <use style="stroke:#000000;stroke-width:0.8;" x="587.310781" xlink:href="#m41a1345aa1" y="292.318125"/>
      </g>
     </g>
     <g id="text_7">
      <!-- 300 -->
      <g transform="translate(577.767031 306.916563)scale(0.1 -0.1)">
       <defs>
        <path d="M 2597 2516 
Q 3050 2419 3304 2112 
Q 3559 1806 3559 1356 
Q 3559 666 3084 287 
Q 2609 -91 1734 -91 
Q 1441 -91 1130 -33 
Q 819 25 488 141 
L 488 750 
Q 750 597 1062 519 
Q 1375 441 1716 441 
Q 2309 441 2620 675 
Q 2931 909 2931 1356 
Q 2931 1769 2642 2001 
Q 2353 2234 1838 2234 
L 1294 2234 
L 1294 2753 
L 1863 2753 
Q 2328 2753 2575 2939 
Q 2822 3125 2822 3475 
Q 2822 3834 2567 4026 
Q 2313 4219 1838 4219 
Q 1578 4219 1281 4162 
Q 984 4106 628 3988 
L 628 4550 
Q 988 4650 1302 4700 
Q 1616 4750 1894 4750 
Q 2613 4750 3031 4423 
Q 3450 4097 3450 3541 
Q 3450 3153 3228 2886 
Q 3006 2619 2597 2516 
z
" id="DejaVuSans-33" transform="scale(0.015625)"/>
       </defs>
       <use xlink:href="#DejaVuSans-33"/>
       <use x="63.623047" xlink:href="#DejaVuSans-30"/>
       <use x="127.246094" xlink:href="#DejaVuSans-30"/>
      </g>
     </g>
    </g>
    <g id="xtick_8">
     <g id="line2d_8">
      <g>
       <use style="stroke:#000000;stroke-width:0.8;" x="676.305996" xlink:href="#m41a1345aa1" y="292.318125"/>
      </g>
     </g>
     <g id="text_8">
      <!-- 350 -->
      <g transform="translate(666.762246 306.916563)scale(0.1 -0.1)">
       <use xlink:href="#DejaVuSans-33"/>
       <use x="63.623047" xlink:href="#DejaVuSans-35"/>
       <use x="127.246094" xlink:href="#DejaVuSans-30"/>
      </g>
     </g>
    </g>
    <g id="text_9">
     <!-- Months -->
     <g transform="translate(339.427344 320.594688)scale(0.1 -0.1)">
      <defs>
       <path d="M 628 4666 
L 1569 4666 
L 2759 1491 
L 3956 4666 
L 4897 4666 
L 4897 0 
L 4281 0 
L 4281 4097 
L 3078 897 
L 2444 897 
L 1241 4097 
L 1241 0 
L 628 0 
L 628 4666 
z
" id="DejaVuSans-4d" transform="scale(0.015625)"/>
       <path d="M 1959 3097 
Q 1497 3097 1228 2736 
Q 959 2375 959 1747 
Q 959 1119 1226 758 
Q 1494 397 1959 397 
Q 2419 397 2687 759 
Q 2956 1122 2956 1747 
Q 2956 2369 2687 2733 
Q 2419 3097 1959 3097 
z
M 1959 3584 
Q 2709 3584 3137 3096 
Q 3566 2609 3566 1747 
Q 3566 888 3137 398 
Q 2709 -91 1959 -91 
Q 1206 -91 779 398 
Q 353 888 353 1747 
Q 353 2609 779 3096 
Q 1206 3584 1959 3584 
z
" id="DejaVuSans-6f" transform="scale(0.015625)"/>
       <path d="M 3513 2113 
L 3513 0 
L 2938 0 
L 2938 2094 
Q 2938 2591 2744 2837 
Q 2550 3084 2163 3084 
Q 1697 3084 1428 2787 
Q 1159 2491 1159 1978 
L 1159 0 
L 581 0 
L 581 3500 
L 1159 3500 
L 1159 2956 
Q 1366 3272 1645 3428 
Q 1925 3584 2291 3584 
Q 2894 3584 3203 3211 
Q 3513 2838 3513 2113 
z
" id="DejaVuSans-6e" transform="scale(0.015625)"/>
       <path d="M 1172 4494 
L 1172 3500 
L 2356 3500 
L 2356 3053 
L 1172 3053 
L 1172 1153 
Q 1172 725 1289 603 
Q 1406 481 1766 481 
L 2356 481 
L 2356 0 
L 1766 0 
Q 1100 0 847 248 
Q 594 497 594 1153 
L 594 3053 
L 172 3053 
L 172 3500 
L 594 3500 
L 594 4494 
L 1172 4494 
z
" id="DejaVuSans-74" transform="scale(0.015625)"/>
       <path d="M 3513 2113 
L 3513 0 
L 2938 0 
L 2938 2094 
Q 2938 2591 2744 2837 
Q 2550 3084 2163 3084 
Q 1697 3084 1428 2787 
Q 1159 2491 1159 1978 
L 1159 0 
L 581 0 
L 581 4863 
L 1159 4863 
L 1159 2956 
Q 1366 3272 1645 3428 
Q 1925 3584 2291 3584 
Q 2894 3584 3203 3211 
Q 3513 2838 3513 2113 
z
" id="DejaVuSans-68" transform="scale(0.015625)"/>
       <path d="M 2834 3397 
L 2834 2853 
Q 2591 2978 2328 3040 
Q 2066 3103 1784 3103 
Q 1356 3103 1142 2972 
Q 928 2841 928 2578 
Q 928 2378 1081 2264 
Q 1234 2150 1697 2047 
L 1894 2003 
Q 2506 1872 2764 1633 
Q 3022 1394 3022 966 
Q 3022 478 2636 193 
Q 2250 -91 1575 -91 
Q 1294 -91 989 -36 
Q 684 19 347 128 
L 347 722 
Q 666 556 975 473 
Q 1284 391 1588 391 
Q 1994 391 2212 530 
Q 2431 669 2431 922 
Q 2431 1156 2273 1281 
Q 2116 1406 1581 1522 
L 1381 1569 
Q 847 1681 609 1914 
Q 372 2147 372 2553 
Q 372 3047 722 3315 
Q 1072 3584 1716 3584 
Q 2034 3584 2315 3537 
Q 2597 3491 2834 3397 
z
" id="DejaVuSans-73" transform="scale(0.015625)"/>
      </defs>
      <use xlink:href="#DejaVuSans-4d"/>
      <use x="86.279297" xlink:href="#DejaVuSans-6f"/>
      <use x="147.460938" xlink:href="#DejaVuSans-6e"/>
      <use x="210.839844" xlink:href="#DejaVuSans-74"/>
      <use x="250.048828" xlink:href="#DejaVuSans-68"/>
      <use x="313.427734" xlink:href="#DejaVuSans-73"/>
     </g>
    </g>
   </g>
   <g id="matplotlib.axis_2">
    <g id="ytick_1">
     <g id="line2d_9">
      <defs>
       <path d="M 0 0 
L -3.5 0 
" id="m80e2e35d2c" style="stroke:#000000;stroke-width:0.8;"/>
      </defs>
      <g>
       <use style="stroke:#000000;stroke-width:0.8;" x="22.903125" xlink:href="#m80e2e35d2c" y="277.955763"/>
      </g>
     </g>
     <g id="text_10">
      <!-- 0.0 -->
      <g transform="translate(0 281.754982)scale(0.1 -0.1)">
       <defs>
        <path d="M 684 794 
L 1344 794 
L 1344 0 
L 684 0 
L 684 794 
z
" id="DejaVuSans-2e" transform="scale(0.015625)"/>
       </defs>
       <use xlink:href="#DejaVuSans-30"/>
       <use x="63.623047" xlink:href="#DejaVuSans-2e"/>
       <use x="95.410156" xlink:href="#DejaVuSans-30"/>
      </g>
     </g>
    </g>
    <g id="ytick_2">
     <g id="line2d_10">
      <g>
       <use style="stroke:#000000;stroke-width:0.8;" x="22.903125" xlink:href="#m80e2e35d2c" y="227.908236"/>
      </g>
     </g>
     <g id="text_11">
      <!-- 0.2 -->
      <g transform="translate(0 231.707454)scale(0.1 -0.1)">
       <use xlink:href="#DejaVuSans-30"/>
       <use x="63.623047" xlink:href="#DejaVuSans-2e"/>
       <use x="95.410156" xlink:href="#DejaVuSans-32"/>
      </g>
     </g>
    </g>
    <g id="ytick_3">
     <g id="line2d_11">
      <g>
       <use style="stroke:#000000;stroke-width:0.8;" x="22.903125" xlink:href="#m80e2e35d2c" y="177.860708"/>
      </g>
     </g>
     <g id="text_12">
      <!-- 0.4 -->
      <g transform="translate(0 181.659927)scale(0.1 -0.1)">
       <defs>
        <path d="M 2419 4116 
L 825 1625 
L 2419 1625 
L 2419 4116 
z
M 2253 4666 
L 3047 4666 
L 3047 1625 
L 3713 1625 
L 3713 1100 
L 3047 1100 
L 3047 0 
L 2419 0 
L 2419 1100 
L 313 1100 
L 313 1709 
L 2253 4666 
z
" id="DejaVuSans-34" transform="scale(0.015625)"/>
       </defs>
       <use xlink:href="#DejaVuSans-30"/>
       <use x="63.623047" xlink:href="#DejaVuSans-2e"/>
       <use x="95.410156" xlink:href="#DejaVuSans-34"/>
      </g>
     </g>
    </g>
    <g id="ytick_4">
     <g id="line2d_12">
      <g>
       <use style="stroke:#000000;stroke-width:0.8;" x="22.903125" xlink:href="#m80e2e35d2c" y="127.81318"/>
      </g>
     </g>
     <g id="text_13">
      <!-- 0.6 -->
      <g transform="translate(0 131.612399)scale(0.1 -0.1)">
       <defs>
        <path d="M 2113 2584 
Q 1688 2584 1439 2293 
Q 1191 2003 1191 1497 
Q 1191 994 1439 701 
Q 1688 409 2113 409 
Q 2538 409 2786 701 
Q 3034 994 3034 1497 
Q 3034 2003 2786 2293 
Q 2538 2584 2113 2584 
z
M 3366 4563 
L 3366 3988 
Q 3128 4100 2886 4159 
Q 2644 4219 2406 4219 
Q 1781 4219 1451 3797 
Q 1122 3375 1075 2522 
Q 1259 2794 1537 2939 
Q 1816 3084 2150 3084 
Q 2853 3084 3261 2657 
Q 3669 2231 3669 1497 
Q 3669 778 3244 343 
Q 2819 -91 2113 -91 
Q 1303 -91 875 529 
Q 447 1150 447 2328 
Q 447 3434 972 4092 
Q 1497 4750 2381 4750 
Q 2619 4750 2861 4703 
Q 3103 4656 3366 4563 
z
" id="DejaVuSans-36" transform="scale(0.015625)"/>
       </defs>
       <use xlink:href="#DejaVuSans-30"/>
       <use x="63.623047" xlink:href="#DejaVuSans-2e"/>
       <use x="95.410156" xlink:href="#DejaVuSans-36"/>
      </g>
     </g>
    </g>
    <g id="ytick_5">
     <g id="line2d_13">
      <g>
       <use style="stroke:#000000;stroke-width:0.8;" x="22.903125" xlink:href="#m80e2e35d2c" y="77.765653"/>
      </g>
     </g>
     <g id="text_14">
      <!-- 0.8 -->
      <g transform="translate(0 81.564871)scale(0.1 -0.1)">
       <defs>
        <path d="M 2034 2216 
Q 1584 2216 1326 1975 
Q 1069 1734 1069 1313 
Q 1069 891 1326 650 
Q 1584 409 2034 409 
Q 2484 409 2743 651 
Q 3003 894 3003 1313 
Q 3003 1734 2745 1975 
Q 2488 2216 2034 2216 
z
M 1403 2484 
Q 997 2584 770 2862 
Q 544 3141 544 3541 
Q 544 4100 942 4425 
Q 1341 4750 2034 4750 
Q 2731 4750 3128 4425 
Q 3525 4100 3525 3541 
Q 3525 3141 3298 2862 
Q 3072 2584 2669 2484 
Q 3125 2378 3379 2068 
Q 3634 1759 3634 1313 
Q 3634 634 3220 271 
Q 2806 -91 2034 -91 
Q 1263 -91 848 271 
Q 434 634 434 1313 
Q 434 1759 690 2068 
Q 947 2378 1403 2484 
z
M 1172 3481 
Q 1172 3119 1398 2916 
Q 1625 2713 2034 2713 
Q 2441 2713 2670 2916 
Q 2900 3119 2900 3481 
Q 2900 3844 2670 4047 
Q 2441 4250 2034 4250 
Q 1625 4250 1398 4047 
Q 1172 3844 1172 3481 
z
" id="DejaVuSans-38" transform="scale(0.015625)"/>
       </defs>
       <use xlink:href="#DejaVuSans-30"/>
       <use x="63.623047" xlink:href="#DejaVuSans-2e"/>
       <use x="95.410156" xlink:href="#DejaVuSans-38"/>
      </g>
     </g>
    </g>
    <g id="ytick_6">
     <g id="line2d_14">
      <g>
       <use style="stroke:#000000;stroke-width:0.8;" x="22.903125" xlink:href="#m80e2e35d2c" y="27.718125"/>
      </g>
     </g>
     <g id="text_15">
      <!-- 1.0 -->
      <g transform="translate(0 31.517344)scale(0.1 -0.1)">
       <use xlink:href="#DejaVuSans-31"/>
       <use x="63.623047" xlink:href="#DejaVuSans-2e"/>
       <use x="95.410156" xlink:href="#DejaVuSans-30"/>
      </g>
     </g>
    </g>
   </g>
   <g id="line2d_15">
    <path clip-path="url(#paa8f5d9461)" d="M 53.339489 212.786763 
L 54.661372 213.201988 
L 55.983255 213.942122 
L 57.305139 214.983407 
L 58.627022 216.283783 
L 60.609847 218.592735 
L 66.558322 225.956462 
L 68.541147 227.903942 
L 69.86303 228.958156 
L 71.184914 229.80695 
L 72.506797 230.456816 
L 73.82868 230.926466 
L 75.811505 231.359698 
L 78.455272 231.645946 
L 81.75998 232.045023 
L 83.742805 232.528904 
L 85.72563 233.264473 
L 88.369397 234.576374 
L 92.995988 237.03765 
L 94.978813 237.827813 
L 96.961638 238.360899 
L 98.944463 238.669816 
L 104.892938 239.361354 
L 106.875763 239.86047 
L 110.180472 241.005922 
L 112.824238 241.85224 
L 114.146122 242.093566 
L 115.468005 242.127922 
L 116.789888 241.894158 
L 118.111772 241.338993 
L 119.433655 240.421808 
L 120.755538 239.119433 
L 122.077422 237.430792 
L 123.399305 235.381611 
L 125.38213 231.762392 
L 130.008722 222.719206 
L 131.330605 220.646518 
L 132.652488 219.083947 
L 133.31343 218.53465 
L 133.974372 218.157615 
L 134.635313 217.962835 
L 135.296255 217.957295 
L 135.957197 218.144592 
L 136.618138 218.524654 
L 137.27908 219.093673 
L 137.940022 219.844219 
L 139.261905 221.843277 
L 140.583788 224.398766 
L 142.566613 228.916264 
L 145.871322 236.75088 
L 147.193205 239.511813 
L 148.515088 241.883263 
L 149.836972 243.806398 
L 151.158855 245.266789 
L 152.480738 246.288693 
L 153.802622 246.925631 
L 155.124505 247.248792 
L 156.446388 247.334954 
L 158.429213 247.172003 
L 161.07298 246.64728 
L 163.055805 246.0484 
L 164.377688 245.471638 
L 165.699572 244.647233 
L 167.021455 243.446534 
L 168.343338 241.711894 
L 169.665222 239.265085 
L 170.987105 235.919896 
L 172.308988 231.498599 
L 173.630872 225.851169 
L 174.952755 218.875424 
L 176.274638 210.535528 
L 177.596522 200.875369 
L 179.579346 184.215388 
L 182.223113 159.260578 
L 186.188763 121.561233 
L 188.171588 105.166724 
L 189.493471 95.771145 
L 190.815355 87.793138 
L 192.137238 81.316002 
L 193.459121 76.359618 
L 194.120063 74.443061 
L 194.781005 72.890605 
L 195.441946 71.691505 
L 196.102888 70.832942 
L 196.76383 70.300248 
L 197.424771 70.077063 
L 198.085713 70.145394 
L 198.746655 70.485593 
L 199.407596 71.07641 
L 200.068538 71.895139 
L 201.390421 74.119452 
L 202.712305 76.956429 
L 204.69513 81.905924 
L 208.66078 92.014006 
L 210.643605 96.365677 
L 212.62643 100.16872 
L 216.59208 107.501741 
L 217.913963 110.43673 
L 219.235846 113.884049 
L 220.55773 117.966613 
L 221.879613 122.762137 
L 223.201496 128.295555 
L 225.184321 137.901995 
L 227.167146 148.792467 
L 231.132796 172.444523 
L 233.776563 187.834956 
L 235.759388 198.366134 
L 237.742213 207.65866 
L 239.064096 213.066787 
L 240.38598 217.812835 
L 241.707863 221.893219 
L 243.029746 225.322719 
L 244.35163 228.131442 
L 245.673513 230.362314 
L 246.995396 232.069438 
L 248.31728 233.316501 
L 249.639163 234.17668 
L 250.961046 234.732927 
L 252.943871 235.199464 
L 256.24858 235.825768 
L 257.570463 236.310713 
L 258.892346 237.060144 
L 260.21423 238.139252 
L 261.536113 239.58958 
L 262.857996 241.423779 
L 264.17988 243.622241 
L 266.162705 247.476684 
L 270.789296 257.090269 
L 272.111179 259.296894 
L 273.433063 260.940293 
L 274.094004 261.497121 
L 274.754946 261.851025 
L 275.415888 261.984376 
L 276.076829 261.88174 
L 276.737771 261.530325 
L 277.398713 260.920421 
L 278.059654 260.045799 
L 278.720596 258.904064 
L 280.042479 255.830568 
L 281.364363 251.767176 
L 282.686246 246.854448 
L 284.669071 238.374757 
L 287.973779 223.806758 
L 289.295663 218.835479 
L 290.617546 214.854936 
L 291.278488 213.322958 
L 291.939429 212.133438 
L 292.600371 211.307117 
L 293.261313 210.85863 
L 293.922254 210.796172 
L 294.583196 211.12125 
L 295.244138 211.82856 
L 295.905079 212.906063 
L 296.566021 214.335289 
L 297.887904 218.145864 
L 299.209788 223.006502 
L 301.192613 231.577063 
L 304.497321 246.404727 
L 305.819204 251.574075 
L 307.141088 255.902636 
L 308.462971 259.196476 
L 309.123913 260.412627 
L 309.784854 261.327398 
L 310.445796 261.935616 
L 311.106738 262.236488 
L 311.767679 262.233556 
L 312.428621 261.934652 
L 313.089563 261.351819 
L 313.750504 260.501177 
L 314.411446 259.402708 
L 315.733329 256.559902 
L 317.055213 253.04925 
L 322.342746 237.872113 
L 323.664629 235.175552 
L 324.325571 234.149513 
L 324.986513 233.363721 
L 325.647454 232.832007 
L 326.308396 232.563704 
L 326.969338 232.563441 
L 327.630279 232.831028 
L 328.291221 233.36147 
L 328.952163 234.145072 
L 329.613104 235.167647 
L 330.934988 237.852194 
L 332.256871 241.223563 
L 334.900638 249.027488 
L 336.883463 254.671449 
L 338.205346 257.766155 
L 338.866288 259.002103 
L 339.527229 259.98395 
L 340.188171 260.679048 
L 340.849113 261.056937 
L 341.510054 261.089675 
L 342.170996 260.752162 
L 342.831938 260.022435 
L 343.492879 258.881954 
L 344.153821 257.31586 
L 344.814763 255.313213 
L 345.475704 252.867204 
L 346.797588 246.639779 
L 348.119471 238.66927 
L 349.441354 229.067946 
L 350.763238 218.025831 
L 352.746063 199.35563 
L 359.355479 133.872774 
L 360.677362 123.232814 
L 361.999246 114.272646 
L 363.321129 107.247958 
L 363.982071 104.519061 
L 364.643012 102.33213 
L 365.303954 100.694709 
L 365.964896 99.608458 
L 366.625837 99.069126 
L 367.286779 99.066562 
L 367.947721 99.584767 
L 368.608662 100.601999 
L 369.269604 102.090974 
L 369.930546 104.019162 
L 371.252429 109.038803 
L 372.574312 115.308519 
L 374.557137 126.140984 
L 377.200904 140.792259 
L 378.522787 147.135782 
L 379.844671 152.245425 
L 380.505612 154.225392 
L 381.166554 155.774359 
L 381.827496 156.865457 
L 382.488437 157.479849 
L 383.149379 157.607298 
L 383.810321 157.246552 
L 384.471262 156.405557 
L 385.132204 155.10155 
L 385.793146 153.361035 
L 387.115029 148.721465 
L 388.436912 142.871066 
L 393.063504 120.623457 
L 394.385387 116.20208 
L 395.046329 114.651267 
L 395.707271 113.608284 
L 396.368212 113.11309 
L 397.029154 113.195978 
L 397.690096 113.877027 
L 398.351037 115.165721 
L 399.011979 117.060763 
L 399.672921 119.550183 
L 400.333862 122.611692 
L 401.655746 130.313431 
L 402.977629 139.80341 
L 404.960454 156.311939 
L 408.265162 184.968896 
L 409.587046 195.083727 
L 410.908929 203.650372 
L 412.230812 210.291741 
L 412.891754 212.809091 
L 413.552696 214.765676 
L 414.213637 216.154413 
L 414.874579 216.97777 
L 415.535521 217.247623 
L 416.196462 216.984914 
L 416.857404 216.219148 
L 417.518346 214.987726 
L 418.179287 213.335153 
L 419.501171 208.974433 
L 420.823054 203.597468 
L 424.788704 186.3806 
L 426.110587 181.812724 
L 427.432471 178.422476 
L 428.093412 177.238528 
L 428.754354 176.418946 
L 429.415296 175.973091 
L 430.076237 175.903911 
L 430.737179 176.208262 
L 431.398121 176.87731 
L 432.059062 177.897049 
L 432.720004 179.248865 
L 434.041887 182.854892 
L 435.363771 187.477493 
L 437.346596 195.762346 
L 443.295071 222.331928 
L 444.616954 227.22546 
L 445.938837 231.434535 
L 447.26072 234.881821 
L 448.582604 237.525157 
L 449.904487 239.35451 
L 450.565429 239.969062 
L 451.22637 240.389952 
L 451.887312 240.624183 
L 452.548254 240.680376 
L 453.209195 240.568658 
L 453.870137 240.300545 
L 455.19202 239.34742 
L 456.513904 237.936071 
L 458.496729 235.244068 
L 462.462379 229.516559 
L 463.784262 228.001629 
L 465.106145 226.876471 
L 466.428029 226.222944 
L 467.08897 226.090517 
L 467.749912 226.093031 
L 468.410854 226.232035 
L 469.071795 226.507109 
L 470.393679 227.454124 
L 471.715562 228.893395 
L 473.037445 230.759229 
L 475.02027 234.168403 
L 478.324979 240.626745 
L 480.968745 245.552393 
L 482.290629 247.682909 
L 483.612512 249.501471 
L 484.934395 250.965076 
L 486.256279 252.053305 
L 487.578162 252.769911 
L 488.900045 253.142679 
L 490.221929 253.221113 
L 491.543812 253.072236 
L 493.526637 252.596095 
L 496.170404 251.916429 
L 498.153229 251.670869 
L 499.475112 251.710008 
L 500.796995 251.92253 
L 502.77982 252.526641 
L 505.423587 253.654328 
L 508.728295 255.047422 
L 510.71112 255.662241 
L 512.693945 256.060819 
L 515.337712 256.306947 
L 523.269012 256.696052 
L 525.251837 257.064999 
L 527.234662 257.611976 
L 529.878429 258.591464 
L 537.809728 261.880613 
L 540.453495 262.605305 
L 543.758203 263.223881 
L 549.045737 264.184818 
L 553.011387 265.211255 
L 556.977037 266.233224 
L 559.620803 266.674516 
L 561.603628 266.799497 
L 563.586453 266.721746 
L 565.569278 266.443442 
L 568.213045 265.811377 
L 571.517753 264.759371 
L 579.449053 261.933361 
L 582.09282 260.811146 
L 584.075645 259.741698 
L 586.05847 258.356105 
L 587.380353 257.203099 
L 588.702237 255.834618 
L 590.02412 254.232974 
L 592.006945 251.38666 
L 593.98977 248.055915 
L 596.633537 243.084077 
L 600.599187 235.525189 
L 602.582012 232.284208 
L 603.903895 230.508802 
L 605.225778 229.123135 
L 606.547662 228.182706 
L 607.208603 227.89241 
L 607.869545 227.726692 
L 608.530487 227.687481 
L 609.191428 227.775397 
L 609.85237 227.989715 
L 611.174253 228.787857 
L 612.496137 230.049143 
L 613.81802 231.720165 
L 615.139903 233.729133 
L 617.122728 237.184835 
L 621.74932 245.600304 
L 623.732145 248.627793 
L 625.054028 250.29704 
L 626.375911 251.65923 
L 627.697795 252.717823 
L 629.019678 253.499057 
L 630.341561 254.0487 
L 632.324386 254.574628 
L 636.290036 255.445499 
L 637.61192 255.93558 
L 638.933803 256.616325 
L 640.255686 257.520769 
L 641.57757 258.664842 
L 642.899453 260.046845 
L 644.882278 262.520561 
L 647.526045 266.352644 
L 652.152636 273.205048 
L 654.135461 275.653379 
L 655.457345 276.996851 
L 656.779228 278.075007 
L 658.101111 278.875473 
L 659.422995 279.40141 
L 660.744878 279.670642 
L 662.066761 279.713767 
L 662.066761 279.713767 
" style="fill:none;stroke:#ff0000;stroke-linecap:square;stroke-width:2;"/>
   </g>
   <g id="line2d_16">
    <defs>
     <path d="M 0 1.5 
C 0.397805 1.5 0.77937 1.341951 1.06066 1.06066 
C 1.341951 0.77937 1.5 0.397805 1.5 0 
C 1.5 -0.397805 1.341951 -0.77937 1.06066 -1.06066 
C 0.77937 -1.341951 0.397805 -1.5 0 -1.5 
C -0.397805 -1.5 -0.77937 -1.341951 -1.06066 -1.06066 
C -1.341951 -0.77937 -1.5 -0.397805 -1.5 0 
C -1.5 0.397805 -1.341951 0.77937 -1.06066 1.06066 
C -0.77937 1.341951 -0.397805 1.5 0 1.5 
z
" id="m7a0dcae073" style="stroke:#000000;stroke-opacity:0.5;"/>
    </defs>
    <g clip-path="url(#paa8f5d9461)">
     <use style="fill-opacity:0.5;stroke:#000000;stroke-opacity:0.5;" x="53.339489" xlink:href="#m7a0dcae073" y="209.497028"/>
     <use style="fill-opacity:0.5;stroke:#000000;stroke-opacity:0.5;" x="55.124938" xlink:href="#m7a0dcae073" y="206.530276"/>
     <use style="fill-opacity:0.5;stroke:#000000;stroke-opacity:0.5;" x="56.910387" xlink:href="#m7a0dcae073" y="211.580457"/>
     <use style="fill-opacity:0.5;stroke:#000000;stroke-opacity:0.5;" x="58.695836" xlink:href="#m7a0dcae073" y="203.425506"/>
     <use style="fill-opacity:0.5;stroke:#000000;stroke-opacity:0.5;" x="60.481285" xlink:href="#m7a0dcae073" y="227.142427"/>
     <use style="fill-opacity:0.5;stroke:#000000;stroke-opacity:0.5;" x="62.266735" xlink:href="#m7a0dcae073" y="227.311994"/>
     <use style="fill-opacity:0.5;stroke:#000000;stroke-opacity:0.5;" x="64.052184" xlink:href="#m7a0dcae073" y="229.150932"/>
     <use style="fill-opacity:0.5;stroke:#000000;stroke-opacity:0.5;" x="65.837633" xlink:href="#m7a0dcae073" y="219.709119"/>
     <use style="fill-opacity:0.5;stroke:#000000;stroke-opacity:0.5;" x="67.623082" xlink:href="#m7a0dcae073" y="227.636667"/>
     <use style="fill-opacity:0.5;stroke:#000000;stroke-opacity:0.5;" x="69.408531" xlink:href="#m7a0dcae073" y="232.335885"/>
     <use style="fill-opacity:0.5;stroke:#000000;stroke-opacity:0.5;" x="71.19398" xlink:href="#m7a0dcae073" y="231.246192"/>
     <use style="fill-opacity:0.5;stroke:#000000;stroke-opacity:0.5;" x="72.97943" xlink:href="#m7a0dcae073" y="233.369056"/>
     <use style="fill-opacity:0.5;stroke:#000000;stroke-opacity:0.5;" x="74.764879" xlink:href="#m7a0dcae073" y="236.910229"/>
     <use style="fill-opacity:0.5;stroke:#000000;stroke-opacity:0.5;" x="76.550328" xlink:href="#m7a0dcae073" y="239.280212"/>
     <use style="fill-opacity:0.5;stroke:#000000;stroke-opacity:0.5;" x="78.335777" xlink:href="#m7a0dcae073" y="229.869946"/>
     <use style="fill-opacity:0.5;stroke:#000000;stroke-opacity:0.5;" x="80.121226" xlink:href="#m7a0dcae073" y="228.981366"/>
     <use style="fill-opacity:0.5;stroke:#000000;stroke-opacity:0.5;" x="81.906676" xlink:href="#m7a0dcae073" y="229.178536"/>
     <use style="fill-opacity:0.5;stroke:#000000;stroke-opacity:0.5;" x="83.692125" xlink:href="#m7a0dcae073" y="228.473982"/>
     <use style="fill-opacity:0.5;stroke:#000000;stroke-opacity:0.5;" x="85.477574" xlink:href="#m7a0dcae073" y="233.509704"/>
     <use style="fill-opacity:0.5;stroke:#000000;stroke-opacity:0.5;" x="87.263023" xlink:href="#m7a0dcae073" y="233.457125"/>
     <use style="fill-opacity:0.5;stroke:#000000;stroke-opacity:0.5;" x="89.048472" xlink:href="#m7a0dcae073" y="233.200804"/>
     <use style="fill-opacity:0.5;stroke:#000000;stroke-opacity:0.5;" x="90.833921" xlink:href="#m7a0dcae073" y="219.852396"/>
     <use style="fill-opacity:0.5;stroke:#000000;stroke-opacity:0.5;" x="92.619371" xlink:href="#m7a0dcae073" y="237.35189"/>
     <use style="fill-opacity:0.5;stroke:#000000;stroke-opacity:0.5;" x="94.40482" xlink:href="#m7a0dcae073" y="239.257866"/>
     <use style="fill-opacity:0.5;stroke:#000000;stroke-opacity:0.5;" x="96.190269" xlink:href="#m7a0dcae073" y="239.581225"/>
     <use style="fill-opacity:0.5;stroke:#000000;stroke-opacity:0.5;" x="97.975718" xlink:href="#m7a0dcae073" y="236.510631"/>
     <use style="fill-opacity:0.5;stroke:#000000;stroke-opacity:0.5;" x="99.761167" xlink:href="#m7a0dcae073" y="237.35189"/>
     <use style="fill-opacity:0.5;stroke:#000000;stroke-opacity:0.5;" x="101.546616" xlink:href="#m7a0dcae073" y="239.257866"/>
     <use style="fill-opacity:0.5;stroke:#000000;stroke-opacity:0.5;" x="103.332066" xlink:href="#m7a0dcae073" y="239.581225"/>
     <use style="fill-opacity:0.5;stroke:#000000;stroke-opacity:0.5;" x="105.117515" xlink:href="#m7a0dcae073" y="236.510631"/>
     <use style="fill-opacity:0.5;stroke:#000000;stroke-opacity:0.5;" x="106.902964" xlink:href="#m7a0dcae073" y="245.830199"/>
     <use style="fill-opacity:0.5;stroke:#000000;stroke-opacity:0.5;" x="108.688413" xlink:href="#m7a0dcae073" y="243.554858"/>
     <use style="fill-opacity:0.5;stroke:#000000;stroke-opacity:0.5;" x="110.473862" xlink:href="#m7a0dcae073" y="246.365187"/>
     <use style="fill-opacity:0.5;stroke:#000000;stroke-opacity:0.5;" x="112.259312" xlink:href="#m7a0dcae073" y="243.695506"/>
     <use style="fill-opacity:0.5;stroke:#000000;stroke-opacity:0.5;" x="114.044761" xlink:href="#m7a0dcae073" y="243.263046"/>
     <use style="fill-opacity:0.5;stroke:#000000;stroke-opacity:0.5;" x="115.83021" xlink:href="#m7a0dcae073" y="239.570709"/>
     <use style="fill-opacity:0.5;stroke:#000000;stroke-opacity:0.5;" x="117.615659" xlink:href="#m7a0dcae073" y="243.168404"/>
     <use style="fill-opacity:0.5;stroke:#000000;stroke-opacity:0.5;" x="119.401108" xlink:href="#m7a0dcae073" y="238.947652"/>
     <use style="fill-opacity:0.5;stroke:#000000;stroke-opacity:0.5;" x="121.186557" xlink:href="#m7a0dcae073" y="249.071674"/>
     <use style="fill-opacity:0.5;stroke:#000000;stroke-opacity:0.5;" x="122.972007" xlink:href="#m7a0dcae073" y="245.046777"/>
     <use style="fill-opacity:0.5;stroke:#000000;stroke-opacity:0.5;" x="124.757456" xlink:href="#m7a0dcae073" y="248.568233"/>
     <use style="fill-opacity:0.5;stroke:#000000;stroke-opacity:0.5;" x="126.542905" xlink:href="#m7a0dcae073" y="246.622823"/>
     <use style="fill-opacity:0.5;stroke:#000000;stroke-opacity:0.5;" x="128.328354" xlink:href="#m7a0dcae073" y="221.985775"/>
     <use style="fill-opacity:0.5;stroke:#000000;stroke-opacity:0.5;" x="130.113803" xlink:href="#m7a0dcae073" y="208.57953"/>
     <use style="fill-opacity:0.5;stroke:#000000;stroke-opacity:0.5;" x="131.899253" xlink:href="#m7a0dcae073" y="233.572798"/>
     <use style="fill-opacity:0.5;stroke:#000000;stroke-opacity:0.5;" x="133.684702" xlink:href="#m7a0dcae073" y="236.046624"/>
     <use style="fill-opacity:0.5;stroke:#000000;stroke-opacity:0.5;" x="135.470151" xlink:href="#m7a0dcae073" y="171.978207"/>
     <use style="fill-opacity:0.5;stroke:#000000;stroke-opacity:0.5;" x="137.2556" xlink:href="#m7a0dcae073" y="194.63041"/>
     <use style="fill-opacity:0.5;stroke:#000000;stroke-opacity:0.5;" x="139.041049" xlink:href="#m7a0dcae073" y="193.975806"/>
     <use style="fill-opacity:0.5;stroke:#000000;stroke-opacity:0.5;" x="140.826498" xlink:href="#m7a0dcae073" y="222.019951"/>
     <use style="fill-opacity:0.5;stroke:#000000;stroke-opacity:0.5;" x="142.611948" xlink:href="#m7a0dcae073" y="218.17908"/>
     <use style="fill-opacity:0.5;stroke:#000000;stroke-opacity:0.5;" x="144.397397" xlink:href="#m7a0dcae073" y="227.415836"/>
     <use style="fill-opacity:0.5;stroke:#000000;stroke-opacity:0.5;" x="146.182846" xlink:href="#m7a0dcae073" y="227.050415"/>
     <use style="fill-opacity:0.5;stroke:#000000;stroke-opacity:0.5;" x="147.968295" xlink:href="#m7a0dcae073" y="249.565913"/>
     <use style="fill-opacity:0.5;stroke:#000000;stroke-opacity:0.5;" x="149.753744" xlink:href="#m7a0dcae073" y="251.956928"/>
     <use style="fill-opacity:0.5;stroke:#000000;stroke-opacity:0.5;" x="151.539194" xlink:href="#m7a0dcae073" y="252.996671"/>
     <use style="fill-opacity:0.5;stroke:#000000;stroke-opacity:0.5;" x="153.324643" xlink:href="#m7a0dcae073" y="248.427585"/>
     <use style="fill-opacity:0.5;stroke:#000000;stroke-opacity:0.5;" x="155.110092" xlink:href="#m7a0dcae073" y="246.409879"/>
     <use style="fill-opacity:0.5;stroke:#000000;stroke-opacity:0.5;" x="156.895541" xlink:href="#m7a0dcae073" y="248.047704"/>
     <use style="fill-opacity:0.5;stroke:#000000;stroke-opacity:0.5;" x="158.68099" xlink:href="#m7a0dcae073" y="249.822234"/>
     <use style="fill-opacity:0.5;stroke:#000000;stroke-opacity:0.5;" x="160.466439" xlink:href="#m7a0dcae073" y="247.262968"/>
     <use style="fill-opacity:0.5;stroke:#000000;stroke-opacity:0.5;" x="162.251889" xlink:href="#m7a0dcae073" y="248.217271"/>
     <use style="fill-opacity:0.5;stroke:#000000;stroke-opacity:0.5;" x="164.037338" xlink:href="#m7a0dcae073" y="249.096649"/>
     <use style="fill-opacity:0.5;stroke:#000000;stroke-opacity:0.5;" x="165.822787" xlink:href="#m7a0dcae073" y="250.907984"/>
     <use style="fill-opacity:0.5;stroke:#000000;stroke-opacity:0.5;" x="167.608236" xlink:href="#m7a0dcae073" y="249.922134"/>
     <use style="fill-opacity:0.5;stroke:#000000;stroke-opacity:0.5;" x="169.393685" xlink:href="#m7a0dcae073" y="249.672385"/>
     <use style="fill-opacity:0.5;stroke:#000000;stroke-opacity:0.5;" x="171.179134" xlink:href="#m7a0dcae073" y="248.465705"/>
     <use style="fill-opacity:0.5;stroke:#000000;stroke-opacity:0.5;" x="172.964584" xlink:href="#m7a0dcae073" y="250.677952"/>
     <use style="fill-opacity:0.5;stroke:#000000;stroke-opacity:0.5;" x="174.750033" xlink:href="#m7a0dcae073" y="249.078246"/>
     <use style="fill-opacity:0.5;stroke:#000000;stroke-opacity:0.5;" x="176.535482" xlink:href="#m7a0dcae073" y="214.302718"/>
     <use style="fill-opacity:0.5;stroke:#000000;stroke-opacity:0.5;" x="178.320931" xlink:href="#m7a0dcae073" y="214.845592"/>
     <use style="fill-opacity:0.5;stroke:#000000;stroke-opacity:0.5;" x="180.10638" xlink:href="#m7a0dcae073" y="209.581153"/>
     <use style="fill-opacity:0.5;stroke:#000000;stroke-opacity:0.5;" x="181.89183" xlink:href="#m7a0dcae073" y="209.596927"/>
     <use style="fill-opacity:0.5;stroke:#000000;stroke-opacity:0.5;" x="183.677279" xlink:href="#m7a0dcae073" y="80.574142"/>
     <use style="fill-opacity:0.5;stroke:#000000;stroke-opacity:0.5;" x="185.462728" xlink:href="#m7a0dcae073" y="78.915285"/>
     <use style="fill-opacity:0.5;stroke:#000000;stroke-opacity:0.5;" x="187.248177" xlink:href="#m7a0dcae073" y="70.429089"/>
     <use style="fill-opacity:0.5;stroke:#000000;stroke-opacity:0.5;" x="189.033626" xlink:href="#m7a0dcae073" y="73.645589"/>
     <use style="fill-opacity:0.5;stroke:#000000;stroke-opacity:0.5;" x="190.819075" xlink:href="#m7a0dcae073" y="87.987734"/>
     <use style="fill-opacity:0.5;stroke:#000000;stroke-opacity:0.5;" x="192.604525" xlink:href="#m7a0dcae073" y="99.796902"/>
     <use style="fill-opacity:0.5;stroke:#000000;stroke-opacity:0.5;" x="194.389974" xlink:href="#m7a0dcae073" y="110.706975"/>
     <use style="fill-opacity:0.5;stroke:#000000;stroke-opacity:0.5;" x="196.175423" xlink:href="#m7a0dcae073" y="100.869507"/>
     <use style="fill-opacity:0.5;stroke:#000000;stroke-opacity:0.5;" x="197.960872" xlink:href="#m7a0dcae073" y="28.537038"/>
     <use style="fill-opacity:0.5;stroke:#000000;stroke-opacity:0.5;" x="199.746321" xlink:href="#m7a0dcae073" y="27.718125"/>
     <use style="fill-opacity:0.5;stroke:#000000;stroke-opacity:0.5;" x="201.531771" xlink:href="#m7a0dcae073" y="44.234398"/>
     <use style="fill-opacity:0.5;stroke:#000000;stroke-opacity:0.5;" x="203.31722" xlink:href="#m7a0dcae073" y="35.331516"/>
     <use style="fill-opacity:0.5;stroke:#000000;stroke-opacity:0.5;" x="205.102669" xlink:href="#m7a0dcae073" y="87.987734"/>
     <use style="fill-opacity:0.5;stroke:#000000;stroke-opacity:0.5;" x="206.888118" xlink:href="#m7a0dcae073" y="99.796902"/>
     <use style="fill-opacity:0.5;stroke:#000000;stroke-opacity:0.5;" x="208.673567" xlink:href="#m7a0dcae073" y="110.706975"/>
     <use style="fill-opacity:0.5;stroke:#000000;stroke-opacity:0.5;" x="210.459016" xlink:href="#m7a0dcae073" y="100.869507"/>
     <use style="fill-opacity:0.5;stroke:#000000;stroke-opacity:0.5;" x="212.244466" xlink:href="#m7a0dcae073" y="114.313871"/>
     <use style="fill-opacity:0.5;stroke:#000000;stroke-opacity:0.5;" x="214.029915" xlink:href="#m7a0dcae073" y="108.296243"/>
     <use style="fill-opacity:0.5;stroke:#000000;stroke-opacity:0.5;" x="215.815364" xlink:href="#m7a0dcae073" y="123.382376"/>
     <use style="fill-opacity:0.5;stroke:#000000;stroke-opacity:0.5;" x="217.600813" xlink:href="#m7a0dcae073" y="112.829838"/>
     <use style="fill-opacity:0.5;stroke:#000000;stroke-opacity:0.5;" x="219.386262" xlink:href="#m7a0dcae073" y="106.256191"/>
     <use style="fill-opacity:0.5;stroke:#000000;stroke-opacity:0.5;" x="221.171712" xlink:href="#m7a0dcae073" y="103.806025"/>
     <use style="fill-opacity:0.5;stroke:#000000;stroke-opacity:0.5;" x="222.957161" xlink:href="#m7a0dcae073" y="116.127835"/>
     <use style="fill-opacity:0.5;stroke:#000000;stroke-opacity:0.5;" x="224.74261" xlink:href="#m7a0dcae073" y="111.723057"/>
     <use style="fill-opacity:0.5;stroke:#000000;stroke-opacity:0.5;" x="226.528059" xlink:href="#m7a0dcae073" y="169.301953"/>
     <use style="fill-opacity:0.5;stroke:#000000;stroke-opacity:0.5;" x="228.313508" xlink:href="#m7a0dcae073" y="164.873515"/>
     <use style="fill-opacity:0.5;stroke:#000000;stroke-opacity:0.5;" x="230.098957" xlink:href="#m7a0dcae073" y="177.435872"/>
     <use style="fill-opacity:0.5;stroke:#000000;stroke-opacity:0.5;" x="231.884407" xlink:href="#m7a0dcae073" y="173.069214"/>
     <use style="fill-opacity:0.5;stroke:#000000;stroke-opacity:0.5;" x="233.669856" xlink:href="#m7a0dcae073" y="213.631025"/>
     <use style="fill-opacity:0.5;stroke:#000000;stroke-opacity:0.5;" x="235.455305" xlink:href="#m7a0dcae073" y="212.992194"/>
     <use style="fill-opacity:0.5;stroke:#000000;stroke-opacity:0.5;" x="237.240754" xlink:href="#m7a0dcae073" y="216.344084"/>
     <use style="fill-opacity:0.5;stroke:#000000;stroke-opacity:0.5;" x="239.026203" xlink:href="#m7a0dcae073" y="206.204289"/>
     <use style="fill-opacity:0.5;stroke:#000000;stroke-opacity:0.5;" x="240.811652" xlink:href="#m7a0dcae073" y="211.518677"/>
     <use style="fill-opacity:0.5;stroke:#000000;stroke-opacity:0.5;" x="242.597102" xlink:href="#m7a0dcae073" y="207.399139"/>
     <use style="fill-opacity:0.5;stroke:#000000;stroke-opacity:0.5;" x="244.382551" xlink:href="#m7a0dcae073" y="216.01021"/>
     <use style="fill-opacity:0.5;stroke:#000000;stroke-opacity:0.5;" x="246.168" xlink:href="#m7a0dcae073" y="208.498033"/>
     <use style="fill-opacity:0.5;stroke:#000000;stroke-opacity:0.5;" x="247.953449" xlink:href="#m7a0dcae073" y="237.233588"/>
     <use style="fill-opacity:0.5;stroke:#000000;stroke-opacity:0.5;" x="249.738898" xlink:href="#m7a0dcae073" y="237.56089"/>
     <use style="fill-opacity:0.5;stroke:#000000;stroke-opacity:0.5;" x="251.524348" xlink:href="#m7a0dcae073" y="238.895073"/>
     <use style="fill-opacity:0.5;stroke:#000000;stroke-opacity:0.5;" x="253.309797" xlink:href="#m7a0dcae073" y="234.921441"/>
     <use style="fill-opacity:0.5;stroke:#000000;stroke-opacity:0.5;" x="255.095246" xlink:href="#m7a0dcae073" y="242.578209"/>
     <use style="fill-opacity:0.5;stroke:#000000;stroke-opacity:0.5;" x="256.880695" xlink:href="#m7a0dcae073" y="242.579523"/>
     <use style="fill-opacity:0.5;stroke:#000000;stroke-opacity:0.5;" x="258.666144" xlink:href="#m7a0dcae073" y="243.933424"/>
     <use style="fill-opacity:0.5;stroke:#000000;stroke-opacity:0.5;" x="260.451593" xlink:href="#m7a0dcae073" y="238.745224"/>
     <use style="fill-opacity:0.5;stroke:#000000;stroke-opacity:0.5;" x="262.237043" xlink:href="#m7a0dcae073" y="246.867313"/>
     <use style="fill-opacity:0.5;stroke:#000000;stroke-opacity:0.5;" x="264.022492" xlink:href="#m7a0dcae073" y="244.446066"/>
     <use style="fill-opacity:0.5;stroke:#000000;stroke-opacity:0.5;" x="265.807941" xlink:href="#m7a0dcae073" y="245.420086"/>
     <use style="fill-opacity:0.5;stroke:#000000;stroke-opacity:0.5;" x="267.59339" xlink:href="#m7a0dcae073" y="241.117836"/>
     <use style="fill-opacity:0.5;stroke:#000000;stroke-opacity:0.5;" x="269.378839" xlink:href="#m7a0dcae073" y="254.855327"/>
     <use style="fill-opacity:0.5;stroke:#000000;stroke-opacity:0.5;" x="271.164289" xlink:href="#m7a0dcae073" y="253.288483"/>
     <use style="fill-opacity:0.5;stroke:#000000;stroke-opacity:0.5;" x="272.949738" xlink:href="#m7a0dcae073" y="252.912545"/>
     <use style="fill-opacity:0.5;stroke:#000000;stroke-opacity:0.5;" x="274.735187" xlink:href="#m7a0dcae073" y="251.39828"/>
     <use style="fill-opacity:0.5;stroke:#000000;stroke-opacity:0.5;" x="276.520636" xlink:href="#m7a0dcae073" y="267.522842"/>
     <use style="fill-opacity:0.5;stroke:#000000;stroke-opacity:0.5;" x="278.306085" xlink:href="#m7a0dcae073" y="267.779163"/>
     <use style="fill-opacity:0.5;stroke:#000000;stroke-opacity:0.5;" x="280.091534" xlink:href="#m7a0dcae073" y="263.691172"/>
     <use style="fill-opacity:0.5;stroke:#000000;stroke-opacity:0.5;" x="281.876984" xlink:href="#m7a0dcae073" y="261.735245"/>
     <use style="fill-opacity:0.5;stroke:#000000;stroke-opacity:0.5;" x="283.662433" xlink:href="#m7a0dcae073" y="252.911231"/>
     <use style="fill-opacity:0.5;stroke:#000000;stroke-opacity:0.5;" x="285.447882" xlink:href="#m7a0dcae073" y="254.746226"/>
     <use style="fill-opacity:0.5;stroke:#000000;stroke-opacity:0.5;" x="287.233331" xlink:href="#m7a0dcae073" y="255.582227"/>
     <use style="fill-opacity:0.5;stroke:#000000;stroke-opacity:0.5;" x="289.01878" xlink:href="#m7a0dcae073" y="204.963432"/>
     <use style="fill-opacity:0.5;stroke:#000000;stroke-opacity:0.5;" x="290.80423" xlink:href="#m7a0dcae073" y="194.187435"/>
     <use style="fill-opacity:0.5;stroke:#000000;stroke-opacity:0.5;" x="292.589679" xlink:href="#m7a0dcae073" y="196.565305"/>
     <use style="fill-opacity:0.5;stroke:#000000;stroke-opacity:0.5;" x="294.375128" xlink:href="#m7a0dcae073" y="146.676039"/>
     <use style="fill-opacity:0.5;stroke:#000000;stroke-opacity:0.5;" x="296.160577" xlink:href="#m7a0dcae073" y="159.827278"/>
     <use style="fill-opacity:0.5;stroke:#000000;stroke-opacity:0.5;" x="297.946026" xlink:href="#m7a0dcae073" y="256.114586"/>
     <use style="fill-opacity:0.5;stroke:#000000;stroke-opacity:0.5;" x="299.731475" xlink:href="#m7a0dcae073" y="258.525318"/>
     <use style="fill-opacity:0.5;stroke:#000000;stroke-opacity:0.5;" x="301.516925" xlink:href="#m7a0dcae073" y="255.75968"/>
     <use style="fill-opacity:0.5;stroke:#000000;stroke-opacity:0.5;" x="303.302374" xlink:href="#m7a0dcae073" y="251.06572"/>
     <use style="fill-opacity:0.5;stroke:#000000;stroke-opacity:0.5;" x="305.087823" xlink:href="#m7a0dcae073" y="256.039661"/>
     <use style="fill-opacity:0.5;stroke:#000000;stroke-opacity:0.5;" x="306.873272" xlink:href="#m7a0dcae073" y="257.167474"/>
     <use style="fill-opacity:0.5;stroke:#000000;stroke-opacity:0.5;" x="308.658721" xlink:href="#m7a0dcae073" y="254.6621"/>
     <use style="fill-opacity:0.5;stroke:#000000;stroke-opacity:0.5;" x="310.44417" xlink:href="#m7a0dcae073" y="245.288639"/>
     <use style="fill-opacity:0.5;stroke:#000000;stroke-opacity:0.5;" x="312.22962" xlink:href="#m7a0dcae073" y="259.08791"/>
     <use style="fill-opacity:0.5;stroke:#000000;stroke-opacity:0.5;" x="314.015069" xlink:href="#m7a0dcae073" y="258.765865"/>
     <use style="fill-opacity:0.5;stroke:#000000;stroke-opacity:0.5;" x="315.800518" xlink:href="#m7a0dcae073" y="262.492378"/>
     <use style="fill-opacity:0.5;stroke:#000000;stroke-opacity:0.5;" x="317.585967" xlink:href="#m7a0dcae073" y="259.576891"/>
     <use style="fill-opacity:0.5;stroke:#000000;stroke-opacity:0.5;" x="319.371416" xlink:href="#m7a0dcae073" y="209.314317"/>
     <use style="fill-opacity:0.5;stroke:#000000;stroke-opacity:0.5;" x="321.156866" xlink:href="#m7a0dcae073" y="225.241709"/>
     <use style="fill-opacity:0.5;stroke:#000000;stroke-opacity:0.5;" x="322.942315" xlink:href="#m7a0dcae073" y="246.521609"/>
     <use style="fill-opacity:0.5;stroke:#000000;stroke-opacity:0.5;" x="324.727764" xlink:href="#m7a0dcae073" y="247.511402"/>
     <use style="fill-opacity:0.5;stroke:#000000;stroke-opacity:0.5;" x="326.513213" xlink:href="#m7a0dcae073" y="222.66404"/>
     <use style="fill-opacity:0.5;stroke:#000000;stroke-opacity:0.5;" x="328.298662" xlink:href="#m7a0dcae073" y="228.099359"/>
     <use style="fill-opacity:0.5;stroke:#000000;stroke-opacity:0.5;" x="330.084111" xlink:href="#m7a0dcae073" y="243.146058"/>
     <use style="fill-opacity:0.5;stroke:#000000;stroke-opacity:0.5;" x="331.869561" xlink:href="#m7a0dcae073" y="246.793703"/>
     <use style="fill-opacity:0.5;stroke:#000000;stroke-opacity:0.5;" x="333.65501" xlink:href="#m7a0dcae073" y="249.216265"/>
     <use style="fill-opacity:0.5;stroke:#000000;stroke-opacity:0.5;" x="335.440459" xlink:href="#m7a0dcae073" y="245.011287"/>
     <use style="fill-opacity:0.5;stroke:#000000;stroke-opacity:0.5;" x="337.225908" xlink:href="#m7a0dcae073" y="260.251213"/>
     <use style="fill-opacity:0.5;stroke:#000000;stroke-opacity:0.5;" x="339.011357" xlink:href="#m7a0dcae073" y="264.809783"/>
     <use style="fill-opacity:0.5;stroke:#000000;stroke-opacity:0.5;" x="340.796807" xlink:href="#m7a0dcae073" y="274.865452"/>
     <use style="fill-opacity:0.5;stroke:#000000;stroke-opacity:0.5;" x="342.582256" xlink:href="#m7a0dcae073" y="274.639364"/>
     <use style="fill-opacity:0.5;stroke:#000000;stroke-opacity:0.5;" x="344.367705" xlink:href="#m7a0dcae073" y="262.828882"/>
     <use style="fill-opacity:0.5;stroke:#000000;stroke-opacity:0.5;" x="346.153154" xlink:href="#m7a0dcae073" y="267.407169"/>
     <use style="fill-opacity:0.5;stroke:#000000;stroke-opacity:0.5;" x="347.938603" xlink:href="#m7a0dcae073" y="276.432297"/>
     <use style="fill-opacity:0.5;stroke:#000000;stroke-opacity:0.5;" x="349.724052" xlink:href="#m7a0dcae073" y="277.955763"/>
     <use style="fill-opacity:0.5;stroke:#000000;stroke-opacity:0.5;" x="351.509502" xlink:href="#m7a0dcae073" y="138.656478"/>
     <use style="fill-opacity:0.5;stroke:#000000;stroke-opacity:0.5;" x="353.294951" xlink:href="#m7a0dcae073" y="144.384924"/>
     <use style="fill-opacity:0.5;stroke:#000000;stroke-opacity:0.5;" x="355.0804" xlink:href="#m7a0dcae073" y="208.454656"/>
     <use style="fill-opacity:0.5;stroke:#000000;stroke-opacity:0.5;" x="356.865849" xlink:href="#m7a0dcae073" y="225.750407"/>
     <use style="fill-opacity:0.5;stroke:#000000;stroke-opacity:0.5;" x="358.651298" xlink:href="#m7a0dcae073" y="61.582728"/>
     <use style="fill-opacity:0.5;stroke:#000000;stroke-opacity:0.5;" x="360.436748" xlink:href="#m7a0dcae073" y="105.965694"/>
     <use style="fill-opacity:0.5;stroke:#000000;stroke-opacity:0.5;" x="362.222197" xlink:href="#m7a0dcae073" y="102.5862"/>
     <use style="fill-opacity:0.5;stroke:#000000;stroke-opacity:0.5;" x="364.007646" xlink:href="#m7a0dcae073" y="108.544677"/>
     <use style="fill-opacity:0.5;stroke:#000000;stroke-opacity:0.5;" x="365.793095" xlink:href="#m7a0dcae073" y="104.910177"/>
     <use style="fill-opacity:0.5;stroke:#000000;stroke-opacity:0.5;" x="367.578544" xlink:href="#m7a0dcae073" y="92.723757"/>
     <use style="fill-opacity:0.5;stroke:#000000;stroke-opacity:0.5;" x="369.363993" xlink:href="#m7a0dcae073" y="117.467277"/>
     <use style="fill-opacity:0.5;stroke:#000000;stroke-opacity:0.5;" x="371.149443" xlink:href="#m7a0dcae073" y="107.473387"/>
     <use style="fill-opacity:0.5;stroke:#000000;stroke-opacity:0.5;" x="372.934892" xlink:href="#m7a0dcae073" y="96.78283"/>
     <use style="fill-opacity:0.5;stroke:#000000;stroke-opacity:0.5;" x="374.720341" xlink:href="#m7a0dcae073" y="97.039151"/>
     <use style="fill-opacity:0.5;stroke:#000000;stroke-opacity:0.5;" x="376.50579" xlink:href="#m7a0dcae073" y="105.495115"/>
     <use style="fill-opacity:0.5;stroke:#000000;stroke-opacity:0.5;" x="378.291239" xlink:href="#m7a0dcae073" y="140.526964"/>
     <use style="fill-opacity:0.5;stroke:#000000;stroke-opacity:0.5;" x="380.076688" xlink:href="#m7a0dcae073" y="148.697689"/>
     <use style="fill-opacity:0.5;stroke:#000000;stroke-opacity:0.5;" x="381.862138" xlink:href="#m7a0dcae073" y="163.995451"/>
     <use style="fill-opacity:0.5;stroke:#000000;stroke-opacity:0.5;" x="383.647587" xlink:href="#m7a0dcae073" y="149.788696"/>
     <use style="fill-opacity:0.5;stroke:#000000;stroke-opacity:0.5;" x="385.433036" xlink:href="#m7a0dcae073" y="186.49912"/>
     <use style="fill-opacity:0.5;stroke:#000000;stroke-opacity:0.5;" x="387.218485" xlink:href="#m7a0dcae073" y="187.574353"/>
     <use style="fill-opacity:0.5;stroke:#000000;stroke-opacity:0.5;" x="389.003934" xlink:href="#m7a0dcae073" y="194.669844"/>
     <use style="fill-opacity:0.5;stroke:#000000;stroke-opacity:0.5;" x="390.789384" xlink:href="#m7a0dcae073" y="187.290429"/>
     <use style="fill-opacity:0.5;stroke:#000000;stroke-opacity:0.5;" x="392.574833" xlink:href="#m7a0dcae073" y="84.51097"/>
     <use style="fill-opacity:0.5;stroke:#000000;stroke-opacity:0.5;" x="394.360282" xlink:href="#m7a0dcae073" y="70.429089"/>
     <use style="fill-opacity:0.5;stroke:#000000;stroke-opacity:0.5;" x="396.145731" xlink:href="#m7a0dcae073" y="92.480581"/>
     <use style="fill-opacity:0.5;stroke:#000000;stroke-opacity:0.5;" x="397.93118" xlink:href="#m7a0dcae073" y="80.533394"/>
     <use style="fill-opacity:0.5;stroke:#000000;stroke-opacity:0.5;" x="399.716629" xlink:href="#m7a0dcae073" y="120.590449"/>
     <use style="fill-opacity:0.5;stroke:#000000;stroke-opacity:0.5;" x="401.502079" xlink:href="#m7a0dcae073" y="106.867418"/>
     <use style="fill-opacity:0.5;stroke:#000000;stroke-opacity:0.5;" x="403.287528" xlink:href="#m7a0dcae073" y="132.474542"/>
     <use style="fill-opacity:0.5;stroke:#000000;stroke-opacity:0.5;" x="405.072977" xlink:href="#m7a0dcae073" y="118.145541"/>
     <use style="fill-opacity:0.5;stroke:#000000;stroke-opacity:0.5;" x="406.858426" xlink:href="#m7a0dcae073" y="215.580379"/>
     <use style="fill-opacity:0.5;stroke:#000000;stroke-opacity:0.5;" x="408.643875" xlink:href="#m7a0dcae073" y="220.354522"/>
     <use style="fill-opacity:0.5;stroke:#000000;stroke-opacity:0.5;" x="410.429325" xlink:href="#m7a0dcae073" y="224.888117"/>
     <use style="fill-opacity:0.5;stroke:#000000;stroke-opacity:0.5;" x="412.214774" xlink:href="#m7a0dcae073" y="215.216272"/>
     <use style="fill-opacity:0.5;stroke:#000000;stroke-opacity:0.5;" x="414.000223" xlink:href="#m7a0dcae073" y="236.77221"/>
     <use style="fill-opacity:0.5;stroke:#000000;stroke-opacity:0.5;" x="415.785672" xlink:href="#m7a0dcae073" y="237.149462"/>
     <use style="fill-opacity:0.5;stroke:#000000;stroke-opacity:0.5;" x="417.571121" xlink:href="#m7a0dcae073" y="239.573338"/>
     <use style="fill-opacity:0.5;stroke:#000000;stroke-opacity:0.5;" x="419.35657" xlink:href="#m7a0dcae073" y="234.186654"/>
     <use style="fill-opacity:0.5;stroke:#000000;stroke-opacity:0.5;" x="421.14202" xlink:href="#m7a0dcae073" y="147.819625"/>
     <use style="fill-opacity:0.5;stroke:#000000;stroke-opacity:0.5;" x="422.927469" xlink:href="#m7a0dcae073" y="149.757149"/>
     <use style="fill-opacity:0.5;stroke:#000000;stroke-opacity:0.5;" x="424.712918" xlink:href="#m7a0dcae073" y="167.013467"/>
     <use style="fill-opacity:0.5;stroke:#000000;stroke-opacity:0.5;" x="426.498367" xlink:href="#m7a0dcae073" y="154.472141"/>
     <use style="fill-opacity:0.5;stroke:#000000;stroke-opacity:0.5;" x="428.283816" xlink:href="#m7a0dcae073" y="184.73642"/>
     <use style="fill-opacity:0.5;stroke:#000000;stroke-opacity:0.5;" x="430.069265" xlink:href="#m7a0dcae073" y="186.815906"/>
     <use style="fill-opacity:0.5;stroke:#000000;stroke-opacity:0.5;" x="431.854715" xlink:href="#m7a0dcae073" y="193.381667"/>
     <use style="fill-opacity:0.5;stroke:#000000;stroke-opacity:0.5;" x="433.640164" xlink:href="#m7a0dcae073" y="184.557653"/>
     <use style="fill-opacity:0.5;stroke:#000000;stroke-opacity:0.5;" x="435.425613" xlink:href="#m7a0dcae073" y="204.896394"/>
     <use style="fill-opacity:0.5;stroke:#000000;stroke-opacity:0.5;" x="437.211062" xlink:href="#m7a0dcae073" y="199.142974"/>
     <use style="fill-opacity:0.5;stroke:#000000;stroke-opacity:0.5;" x="438.996511" xlink:href="#m7a0dcae073" y="209.602185"/>
     <use style="fill-opacity:0.5;stroke:#000000;stroke-opacity:0.5;" x="440.781961" xlink:href="#m7a0dcae073" y="195.206147"/>
     <use style="fill-opacity:0.5;stroke:#000000;stroke-opacity:0.5;" x="442.56741" xlink:href="#m7a0dcae073" y="213.257717"/>
     <use style="fill-opacity:0.5;stroke:#000000;stroke-opacity:0.5;" x="444.352859" xlink:href="#m7a0dcae073" y="216.052273"/>
     <use style="fill-opacity:0.5;stroke:#000000;stroke-opacity:0.5;" x="446.138308" xlink:href="#m7a0dcae073" y="221.931882"/>
     <use style="fill-opacity:0.5;stroke:#000000;stroke-opacity:0.5;" x="447.923757" xlink:href="#m7a0dcae073" y="211.141425"/>
     <use style="fill-opacity:0.5;stroke:#000000;stroke-opacity:0.5;" x="449.709206" xlink:href="#m7a0dcae073" y="249.204435"/>
     <use style="fill-opacity:0.5;stroke:#000000;stroke-opacity:0.5;" x="451.494656" xlink:href="#m7a0dcae073" y="250.578053"/>
     <use style="fill-opacity:0.5;stroke:#000000;stroke-opacity:0.5;" x="453.280105" xlink:href="#m7a0dcae073" y="248.706252"/>
     <use style="fill-opacity:0.5;stroke:#000000;stroke-opacity:0.5;" x="455.065554" xlink:href="#m7a0dcae073" y="244.593286"/>
     <use style="fill-opacity:0.5;stroke:#000000;stroke-opacity:0.5;" x="456.851003" xlink:href="#m7a0dcae073" y="249.802517"/>
     <use style="fill-opacity:0.5;stroke:#000000;stroke-opacity:0.5;" x="458.636452" xlink:href="#m7a0dcae073" y="250.685839"/>
     <use style="fill-opacity:0.5;stroke:#000000;stroke-opacity:0.5;" x="460.421902" xlink:href="#m7a0dcae073" y="251.470576"/>
     <use style="fill-opacity:0.5;stroke:#000000;stroke-opacity:0.5;" x="462.207351" xlink:href="#m7a0dcae073" y="247.055282"/>
     <use style="fill-opacity:0.5;stroke:#000000;stroke-opacity:0.5;" x="463.9928" xlink:href="#m7a0dcae073" y="212.191684"/>
     <use style="fill-opacity:0.5;stroke:#000000;stroke-opacity:0.5;" x="465.778249" xlink:href="#m7a0dcae073" y="212.062866"/>
     <use style="fill-opacity:0.5;stroke:#000000;stroke-opacity:0.5;" x="467.563698" xlink:href="#m7a0dcae073" y="218.618111"/>
     <use style="fill-opacity:0.5;stroke:#000000;stroke-opacity:0.5;" x="469.349147" xlink:href="#m7a0dcae073" y="209.33009"/>
     <use style="fill-opacity:0.5;stroke:#000000;stroke-opacity:0.5;" x="471.134597" xlink:href="#m7a0dcae073" y="230.738808"/>
     <use style="fill-opacity:0.5;stroke:#000000;stroke-opacity:0.5;" x="472.920046" xlink:href="#m7a0dcae073" y="231.359236"/>
     <use style="fill-opacity:0.5;stroke:#000000;stroke-opacity:0.5;" x="474.705495" xlink:href="#m7a0dcae073" y="233.036496"/>
     <use style="fill-opacity:0.5;stroke:#000000;stroke-opacity:0.5;" x="476.490944" xlink:href="#m7a0dcae073" y="228.913014"/>
     <use style="fill-opacity:0.5;stroke:#000000;stroke-opacity:0.5;" x="478.276393" xlink:href="#m7a0dcae073" y="241.648881"/>
     <use style="fill-opacity:0.5;stroke:#000000;stroke-opacity:0.5;" x="480.061843" xlink:href="#m7a0dcae073" y="242.166781"/>
     <use style="fill-opacity:0.5;stroke:#000000;stroke-opacity:0.5;" x="481.847292" xlink:href="#m7a0dcae073" y="244.212091"/>
     <use style="fill-opacity:0.5;stroke:#000000;stroke-opacity:0.5;" x="483.632741" xlink:href="#m7a0dcae073" y="241.512176"/>
     <use style="fill-opacity:0.5;stroke:#000000;stroke-opacity:0.5;" x="485.41819" xlink:href="#m7a0dcae073" y="255.621661"/>
     <use style="fill-opacity:0.5;stroke:#000000;stroke-opacity:0.5;" x="487.203639" xlink:href="#m7a0dcae073" y="257.041285"/>
     <use style="fill-opacity:0.5;stroke:#000000;stroke-opacity:0.5;" x="488.989088" xlink:href="#m7a0dcae073" y="256.796794"/>
     <use style="fill-opacity:0.5;stroke:#000000;stroke-opacity:0.5;" x="490.774538" xlink:href="#m7a0dcae073" y="255.270699"/>
     <use style="fill-opacity:0.5;stroke:#000000;stroke-opacity:0.5;" x="492.559987" xlink:href="#m7a0dcae073" y="258.882853"/>
     <use style="fill-opacity:0.5;stroke:#000000;stroke-opacity:0.5;" x="494.345436" xlink:href="#m7a0dcae073" y="260.991257"/>
     <use style="fill-opacity:0.5;stroke:#000000;stroke-opacity:0.5;" x="496.130885" xlink:href="#m7a0dcae073" y="245.763161"/>
     <use style="fill-opacity:0.5;stroke:#000000;stroke-opacity:0.5;" x="497.916334" xlink:href="#m7a0dcae073" y="245.325444"/>
     <use style="fill-opacity:0.5;stroke:#000000;stroke-opacity:0.5;" x="499.701783" xlink:href="#m7a0dcae073" y="245.183482"/>
     <use style="fill-opacity:0.5;stroke:#000000;stroke-opacity:0.5;" x="501.487233" xlink:href="#m7a0dcae073" y="238.074846"/>
     <use style="fill-opacity:0.5;stroke:#000000;stroke-opacity:0.5;" x="503.272682" xlink:href="#m7a0dcae073" y="264.989865"/>
     <use style="fill-opacity:0.5;stroke:#000000;stroke-opacity:0.5;" x="505.058131" xlink:href="#m7a0dcae073" y="262.633026"/>
     <use style="fill-opacity:0.5;stroke:#000000;stroke-opacity:0.5;" x="506.84358" xlink:href="#m7a0dcae073" y="269.428818"/>
     <use style="fill-opacity:0.5;stroke:#000000;stroke-opacity:0.5;" x="508.629029" xlink:href="#m7a0dcae073" y="266.493614"/>
     <use style="fill-opacity:0.5;stroke:#000000;stroke-opacity:0.5;" x="510.414479" xlink:href="#m7a0dcae073" y="250.529417"/>
     <use style="fill-opacity:0.5;stroke:#000000;stroke-opacity:0.5;" x="512.199928" xlink:href="#m7a0dcae073" y="251.871488"/>
     <use style="fill-opacity:0.5;stroke:#000000;stroke-opacity:0.5;" x="513.985377" xlink:href="#m7a0dcae073" y="250.777852"/>
     <use style="fill-opacity:0.5;stroke:#000000;stroke-opacity:0.5;" x="515.770826" xlink:href="#m7a0dcae073" y="249.960253"/>
     <use style="fill-opacity:0.5;stroke:#000000;stroke-opacity:0.5;" x="517.556275" xlink:href="#m7a0dcae073" y="255.294359"/>
     <use style="fill-opacity:0.5;stroke:#000000;stroke-opacity:0.5;" x="519.341724" xlink:href="#m7a0dcae073" y="255.052497"/>
     <use style="fill-opacity:0.5;stroke:#000000;stroke-opacity:0.5;" x="521.127174" xlink:href="#m7a0dcae073" y="254.287477"/>
     <use style="fill-opacity:0.5;stroke:#000000;stroke-opacity:0.5;" x="522.912623" xlink:href="#m7a0dcae073" y="249.462071"/>
     <use style="fill-opacity:0.5;stroke:#000000;stroke-opacity:0.5;" x="524.698072" xlink:href="#m7a0dcae073" y="257.576273"/>
     <use style="fill-opacity:0.5;stroke:#000000;stroke-opacity:0.5;" x="526.483521" xlink:href="#m7a0dcae073" y="257.051801"/>
     <use style="fill-opacity:0.5;stroke:#000000;stroke-opacity:0.5;" x="528.26897" xlink:href="#m7a0dcae073" y="257.339669"/>
     <use style="fill-opacity:0.5;stroke:#000000;stroke-opacity:0.5;" x="530.05442" xlink:href="#m7a0dcae073" y="255.973938"/>
     <use style="fill-opacity:0.5;stroke:#000000;stroke-opacity:0.5;" x="531.839869" xlink:href="#m7a0dcae073" y="260.274873"/>
     <use style="fill-opacity:0.5;stroke:#000000;stroke-opacity:0.5;" x="533.625318" xlink:href="#m7a0dcae073" y="263.800272"/>
     <use style="fill-opacity:0.5;stroke:#000000;stroke-opacity:0.5;" x="535.410767" xlink:href="#m7a0dcae073" y="266.05984"/>
     <use style="fill-opacity:0.5;stroke:#000000;stroke-opacity:0.5;" x="537.196216" xlink:href="#m7a0dcae073" y="266.630319"/>
     <use style="fill-opacity:0.5;stroke:#000000;stroke-opacity:0.5;" x="538.981665" xlink:href="#m7a0dcae073" y="256.021259"/>
     <use style="fill-opacity:0.5;stroke:#000000;stroke-opacity:0.5;" x="540.767115" xlink:href="#m7a0dcae073" y="267.892207"/>
     <use style="fill-opacity:0.5;stroke:#000000;stroke-opacity:0.5;" x="542.552564" xlink:href="#m7a0dcae073" y="267.098269"/>
     <use style="fill-opacity:0.5;stroke:#000000;stroke-opacity:0.5;" x="544.338013" xlink:href="#m7a0dcae073" y="260.322194"/>
     <use style="fill-opacity:0.5;stroke:#000000;stroke-opacity:0.5;" x="546.123462" xlink:href="#m7a0dcae073" y="259.877904"/>
     <use style="fill-opacity:0.5;stroke:#000000;stroke-opacity:0.5;" x="547.908911" xlink:href="#m7a0dcae073" y="263.975096"/>
     <use style="fill-opacity:0.5;stroke:#000000;stroke-opacity:0.5;" x="549.694361" xlink:href="#m7a0dcae073" y="258.585783"/>
     <use style="fill-opacity:0.5;stroke:#000000;stroke-opacity:0.5;" x="551.47981" xlink:href="#m7a0dcae073" y="268.210308"/>
     <use style="fill-opacity:0.5;stroke:#000000;stroke-opacity:0.5;" x="553.265259" xlink:href="#m7a0dcae073" y="268.903032"/>
     <use style="fill-opacity:0.5;stroke:#000000;stroke-opacity:0.5;" x="555.050708" xlink:href="#m7a0dcae073" y="269.38807"/>
     <use style="fill-opacity:0.5;stroke:#000000;stroke-opacity:0.5;" x="556.836157" xlink:href="#m7a0dcae073" y="266.853778"/>
     <use style="fill-opacity:0.5;stroke:#000000;stroke-opacity:0.5;" x="558.621606" xlink:href="#m7a0dcae073" y="256.05675"/>
     <use style="fill-opacity:0.5;stroke:#000000;stroke-opacity:0.5;" x="560.407056" xlink:href="#m7a0dcae073" y="257.617021"/>
     <use style="fill-opacity:0.5;stroke:#000000;stroke-opacity:0.5;" x="562.192505" xlink:href="#m7a0dcae073" y="267.904037"/>
     <use style="fill-opacity:0.5;stroke:#000000;stroke-opacity:0.5;" x="563.977954" xlink:href="#m7a0dcae073" y="276.837152"/>
     <use style="fill-opacity:0.5;stroke:#000000;stroke-opacity:0.5;" x="565.763403" xlink:href="#m7a0dcae073" y="275.98012"/>
     <use style="fill-opacity:0.5;stroke:#000000;stroke-opacity:0.5;" x="567.548852" xlink:href="#m7a0dcae073" y="252.576042"/>
     <use style="fill-opacity:0.5;stroke:#000000;stroke-opacity:0.5;" x="569.334301" xlink:href="#m7a0dcae073" y="259.801665"/>
     <use style="fill-opacity:0.5;stroke:#000000;stroke-opacity:0.5;" x="571.119751" xlink:href="#m7a0dcae073" y="263.366498"/>
     <use style="fill-opacity:0.5;stroke:#000000;stroke-opacity:0.5;" x="572.9052" xlink:href="#m7a0dcae073" y="265.631324"/>
     <use style="fill-opacity:0.5;stroke:#000000;stroke-opacity:0.5;" x="574.690649" xlink:href="#m7a0dcae073" y="267.400596"/>
     <use style="fill-opacity:0.5;stroke:#000000;stroke-opacity:0.5;" x="576.476098" xlink:href="#m7a0dcae073" y="267.395339"/>
     <use style="fill-opacity:0.5;stroke:#000000;stroke-opacity:0.5;" x="578.261547" xlink:href="#m7a0dcae073" y="263.366498"/>
     <use style="fill-opacity:0.5;stroke:#000000;stroke-opacity:0.5;" x="580.046997" xlink:href="#m7a0dcae073" y="265.631324"/>
     <use style="fill-opacity:0.5;stroke:#000000;stroke-opacity:0.5;" x="581.832446" xlink:href="#m7a0dcae073" y="267.400596"/>
     <use style="fill-opacity:0.5;stroke:#000000;stroke-opacity:0.5;" x="583.617895" xlink:href="#m7a0dcae073" y="267.395339"/>
     <use style="fill-opacity:0.5;stroke:#000000;stroke-opacity:0.5;" x="585.403344" xlink:href="#m7a0dcae073" y="244.260726"/>
     <use style="fill-opacity:0.5;stroke:#000000;stroke-opacity:0.5;" x="587.188793" xlink:href="#m7a0dcae073" y="260.315621"/>
     <use style="fill-opacity:0.5;stroke:#000000;stroke-opacity:0.5;" x="588.974242" xlink:href="#m7a0dcae073" y="267.793622"/>
     <use style="fill-opacity:0.5;stroke:#000000;stroke-opacity:0.5;" x="590.759692" xlink:href="#m7a0dcae073" y="266.026979"/>
     <use style="fill-opacity:0.5;stroke:#000000;stroke-opacity:0.5;" x="592.545141" xlink:href="#m7a0dcae073" y="233.935591"/>
     <use style="fill-opacity:0.5;stroke:#000000;stroke-opacity:0.5;" x="594.33059" xlink:href="#m7a0dcae073" y="243.717851"/>
     <use style="fill-opacity:0.5;stroke:#000000;stroke-opacity:0.5;" x="596.116039" xlink:href="#m7a0dcae073" y="249.300391"/>
     <use style="fill-opacity:0.5;stroke:#000000;stroke-opacity:0.5;" x="597.901488" xlink:href="#m7a0dcae073" y="246.687232"/>
     <use style="fill-opacity:0.5;stroke:#000000;stroke-opacity:0.5;" x="599.686938" xlink:href="#m7a0dcae073" y="232.701307"/>
     <use style="fill-opacity:0.5;stroke:#000000;stroke-opacity:0.5;" x="601.472387" xlink:href="#m7a0dcae073" y="229.089152"/>
     <use style="fill-opacity:0.5;stroke:#000000;stroke-opacity:0.5;" x="603.257836" xlink:href="#m7a0dcae073" y="227.662956"/>
     <use style="fill-opacity:0.5;stroke:#000000;stroke-opacity:0.5;" x="605.043285" xlink:href="#m7a0dcae073" y="227.622208"/>
     <use style="fill-opacity:0.5;stroke:#000000;stroke-opacity:0.5;" x="606.828734" xlink:href="#m7a0dcae073" y="226.6311"/>
     <use style="fill-opacity:0.5;stroke:#000000;stroke-opacity:0.5;" x="608.614183" xlink:href="#m7a0dcae073" y="222.188203"/>
     <use style="fill-opacity:0.5;stroke:#000000;stroke-opacity:0.5;" x="610.399633" xlink:href="#m7a0dcae073" y="224.6594"/>
     <use style="fill-opacity:0.5;stroke:#000000;stroke-opacity:0.5;" x="612.185082" xlink:href="#m7a0dcae073" y="221.373233"/>
     <use style="fill-opacity:0.5;stroke:#000000;stroke-opacity:0.5;" x="613.970531" xlink:href="#m7a0dcae073" y="233.254697"/>
     <use style="fill-opacity:0.5;stroke:#000000;stroke-opacity:0.5;" x="615.75598" xlink:href="#m7a0dcae073" y="231.371067"/>
     <use style="fill-opacity:0.5;stroke:#000000;stroke-opacity:0.5;" x="617.541429" xlink:href="#m7a0dcae073" y="232.326684"/>
     <use style="fill-opacity:0.5;stroke:#000000;stroke-opacity:0.5;" x="619.326879" xlink:href="#m7a0dcae073" y="231.091085"/>
     <use style="fill-opacity:0.5;stroke:#000000;stroke-opacity:0.5;" x="621.112328" xlink:href="#m7a0dcae073" y="256.507612"/>
     <use style="fill-opacity:0.5;stroke:#000000;stroke-opacity:0.5;" x="622.897777" xlink:href="#m7a0dcae073" y="255.314076"/>
     <use style="fill-opacity:0.5;stroke:#000000;stroke-opacity:0.5;" x="624.683226" xlink:href="#m7a0dcae073" y="253.619728"/>
     <use style="fill-opacity:0.5;stroke:#000000;stroke-opacity:0.5;" x="626.468675" xlink:href="#m7a0dcae073" y="255.56251"/>
    </g>
   </g>
   <g id="line2d_17">
    <path clip-path="url(#paa8f5d9461)" d="M 53.339489 209.497028 
L 55.124938 206.530276 
L 56.910387 211.580457 
L 58.695836 203.425506 
L 60.481285 227.142427 
L 62.266735 227.311994 
L 64.052184 229.150932 
L 65.837633 219.709119 
L 67.623082 227.636667 
L 69.408531 232.335885 
L 71.19398 231.246192 
L 72.97943 233.369056 
L 74.764879 236.910229 
L 76.550328 239.280212 
L 78.335777 229.869946 
L 80.121226 228.981366 
L 81.906676 229.178536 
L 83.692125 228.473982 
L 85.477574 233.509704 
L 87.263023 233.457125 
L 89.048472 233.200804 
L 90.833921 219.852396 
L 92.619371 237.35189 
L 94.40482 239.257866 
L 96.190269 239.581225 
L 97.975718 236.510631 
L 99.761167 237.35189 
L 101.546616 239.257866 
L 103.332066 239.581225 
L 105.117515 236.510631 
L 106.902964 245.830199 
L 108.688413 243.554858 
L 110.473862 246.365187 
L 112.259312 243.695506 
L 114.044761 243.263046 
L 115.83021 239.570709 
L 117.615659 243.168404 
L 119.401108 238.947652 
L 121.186557 249.071674 
L 122.972007 245.046777 
L 124.757456 248.568233 
L 126.542905 246.622823 
L 128.328354 221.985775 
L 130.113803 208.57953 
L 131.899253 233.572798 
L 133.684702 236.046624 
L 135.470151 171.978207 
L 137.2556 194.63041 
L 139.041049 193.975806 
L 140.826498 222.019951 
L 142.611948 218.17908 
L 144.397397 227.415836 
L 146.182846 227.050415 
L 147.968295 249.565913 
L 149.753744 251.956928 
L 151.539194 252.996671 
L 153.324643 248.427585 
L 155.110092 246.409879 
L 158.68099 249.822234 
L 160.466439 247.262968 
L 164.037338 249.096649 
L 165.822787 250.907984 
L 167.608236 249.922134 
L 169.393685 249.672385 
L 171.179134 248.465705 
L 172.964584 250.677952 
L 174.750033 249.078246 
L 176.535482 214.302718 
L 178.320931 214.845592 
L 180.10638 209.581153 
L 181.89183 209.596927 
L 183.677279 80.574142 
L 185.462728 78.915285 
L 187.248177 70.429089 
L 189.033626 73.645589 
L 190.819075 87.987734 
L 192.604525 99.796902 
L 194.389974 110.706975 
L 196.175423 100.869507 
L 197.960872 28.537038 
L 199.746321 27.718125 
L 201.531771 44.234398 
L 203.31722 35.331516 
L 205.102669 87.987734 
L 206.888118 99.796902 
L 208.673567 110.706975 
L 210.459016 100.869507 
L 212.244466 114.313871 
L 214.029915 108.296243 
L 215.815364 123.382376 
L 217.600813 112.829838 
L 219.386262 106.256191 
L 221.171712 103.806025 
L 222.957161 116.127835 
L 224.74261 111.723057 
L 226.528059 169.301953 
L 228.313508 164.873515 
L 230.098957 177.435872 
L 231.884407 173.069214 
L 233.669856 213.631025 
L 235.455305 212.992194 
L 237.240754 216.344084 
L 239.026203 206.204289 
L 240.811652 211.518677 
L 242.597102 207.399139 
L 244.382551 216.01021 
L 246.168 208.498033 
L 247.953449 237.233588 
L 249.738898 237.56089 
L 251.524348 238.895073 
L 253.309797 234.921441 
L 255.095246 242.578209 
L 256.880695 242.579523 
L 258.666144 243.933424 
L 260.451593 238.745224 
L 262.237043 246.867313 
L 264.022492 244.446066 
L 265.807941 245.420086 
L 267.59339 241.117836 
L 269.378839 254.855327 
L 271.164289 253.288483 
L 272.949738 252.912545 
L 274.735187 251.39828 
L 276.520636 267.522842 
L 278.306085 267.779163 
L 280.091534 263.691172 
L 281.876984 261.735245 
L 283.662433 252.911231 
L 285.447882 254.746226 
L 287.233331 255.582227 
L 289.01878 204.963432 
L 290.80423 194.187435 
L 292.589679 196.565305 
L 294.375128 146.676039 
L 296.160577 159.827278 
L 297.946026 256.114586 
L 299.731475 258.525318 
L 301.516925 255.75968 
L 303.302374 251.06572 
L 305.087823 256.039661 
L 306.873272 257.167474 
L 308.658721 254.6621 
L 310.44417 245.288639 
L 312.22962 259.08791 
L 314.015069 258.765865 
L 315.800518 262.492378 
L 317.585967 259.576891 
L 319.371416 209.314317 
L 321.156866 225.241709 
L 322.942315 246.521609 
L 324.727764 247.511402 
L 326.513213 222.66404 
L 328.298662 228.099359 
L 330.084111 243.146058 
L 331.869561 246.793703 
L 333.65501 249.216265 
L 335.440459 245.011287 
L 337.225908 260.251213 
L 339.011357 264.809783 
L 340.796807 274.865452 
L 342.582256 274.639364 
L 344.367705 262.828882 
L 346.153154 267.407169 
L 347.938603 276.432297 
L 349.724052 277.955763 
L 351.509502 138.656478 
L 353.294951 144.384924 
L 355.0804 208.454656 
L 356.865849 225.750407 
L 358.651298 61.582728 
L 360.436748 105.965694 
L 362.222197 102.5862 
L 364.007646 108.544677 
L 365.793095 104.910177 
L 367.578544 92.723757 
L 369.363993 117.467277 
L 371.149443 107.473387 
L 372.934892 96.78283 
L 374.720341 97.039151 
L 376.50579 105.495115 
L 378.291239 140.526964 
L 380.076688 148.697689 
L 381.862138 163.995451 
L 383.647587 149.788696 
L 385.433036 186.49912 
L 387.218485 187.574353 
L 389.003934 194.669844 
L 390.789384 187.290429 
L 392.574833 84.51097 
L 394.360282 70.429089 
L 396.145731 92.480581 
L 397.93118 80.533394 
L 399.716629 120.590449 
L 401.502079 106.867418 
L 403.287528 132.474542 
L 405.072977 118.145541 
L 406.858426 215.580379 
L 410.429325 224.888117 
L 412.214774 215.216272 
L 414.000223 236.77221 
L 415.785672 237.149462 
L 417.571121 239.573338 
L 419.35657 234.186654 
L 421.14202 147.819625 
L 422.927469 149.757149 
L 424.712918 167.013467 
L 426.498367 154.472141 
L 428.283816 184.73642 
L 430.069265 186.815906 
L 431.854715 193.381667 
L 433.640164 184.557653 
L 435.425613 204.896394 
L 437.211062 199.142974 
L 438.996511 209.602185 
L 440.781961 195.206147 
L 442.56741 213.257717 
L 444.352859 216.052273 
L 446.138308 221.931882 
L 447.923757 211.141425 
L 449.709206 249.204435 
L 451.494656 250.578053 
L 453.280105 248.706252 
L 455.065554 244.593286 
L 456.851003 249.802517 
L 460.421902 251.470576 
L 462.207351 247.055282 
L 463.9928 212.191684 
L 465.778249 212.062866 
L 467.563698 218.618111 
L 469.349147 209.33009 
L 471.134597 230.738808 
L 472.920046 231.359236 
L 474.705495 233.036496 
L 476.490944 228.913014 
L 478.276393 241.648881 
L 480.061843 242.166781 
L 481.847292 244.212091 
L 483.632741 241.512176 
L 485.41819 255.621661 
L 487.203639 257.041285 
L 488.989088 256.796794 
L 490.774538 255.270699 
L 492.559987 258.882853 
L 494.345436 260.991257 
L 496.130885 245.763161 
L 497.916334 245.325444 
L 499.701783 245.183482 
L 501.487233 238.074846 
L 503.272682 264.989865 
L 505.058131 262.633026 
L 506.84358 269.428818 
L 508.629029 266.493614 
L 510.414479 250.529417 
L 512.199928 251.871488 
L 513.985377 250.777852 
L 515.770826 249.960253 
L 517.556275 255.294359 
L 519.341724 255.052497 
L 521.127174 254.287477 
L 522.912623 249.462071 
L 524.698072 257.576273 
L 526.483521 257.051801 
L 528.26897 257.339669 
L 530.05442 255.973938 
L 531.839869 260.274873 
L 533.625318 263.800272 
L 535.410767 266.05984 
L 537.196216 266.630319 
L 538.981665 256.021259 
L 540.767115 267.892207 
L 542.552564 267.098269 
L 544.338013 260.322194 
L 546.123462 259.877904 
L 547.908911 263.975096 
L 549.694361 258.585783 
L 551.47981 268.210308 
L 553.265259 268.903032 
L 555.050708 269.38807 
L 556.836157 266.853778 
L 558.621606 256.05675 
L 560.407056 257.617021 
L 562.192505 267.904037 
L 563.977954 276.837152 
L 565.763403 275.98012 
L 567.548852 252.576042 
L 569.334301 259.801665 
L 571.119751 263.366498 
L 572.9052 265.631324 
L 574.690649 267.400596 
L 576.476098 267.395339 
L 578.261547 263.366498 
L 580.046997 265.631324 
L 581.832446 267.400596 
L 583.617895 267.395339 
L 585.403344 244.260726 
L 587.188793 260.315621 
L 588.974242 267.793622 
L 590.759692 266.026979 
L 592.545141 233.935591 
L 594.33059 243.717851 
L 596.116039 249.300391 
L 597.901488 246.687232 
L 599.686938 232.701307 
L 601.472387 229.089152 
L 603.257836 227.662956 
L 605.043285 227.622208 
L 606.828734 226.6311 
L 608.614183 222.188203 
L 610.399633 224.6594 
L 612.185082 221.373233 
L 613.970531 233.254697 
L 615.75598 231.371067 
L 617.541429 232.326684 
L 619.326879 231.091085 
L 621.112328 256.507612 
L 622.897777 255.314076 
L 624.683226 253.619728 
L 626.468675 255.56251 
L 626.468675 255.56251 
" style="fill:none;stroke:#0000ff;stroke-dasharray:5.55,2.4;stroke-dashoffset:0;stroke-opacity:0.5;stroke-width:1.5;"/>
   </g>
   <g id="patch_3">
    <path d="M 22.903125 292.318125 
L 22.903125 15.118125 
" style="fill:none;stroke:#000000;stroke-linecap:square;stroke-linejoin:miter;stroke-width:0.8;"/>
   </g>
   <g id="patch_4">
    <path d="M 692.503125 292.318125 
L 692.503125 15.118125 
" style="fill:none;stroke:#000000;stroke-linecap:square;stroke-linejoin:miter;stroke-width:0.8;"/>
   </g>
   <g id="patch_5">
    <path d="M 22.903125 292.318125 
L 692.503125 292.318125 
" style="fill:none;stroke:#000000;stroke-linecap:square;stroke-linejoin:miter;stroke-width:0.8;"/>
   </g>
   <g id="patch_6">
    <path d="M 22.903125 15.118125 
L 692.503125 15.118125 
" style="fill:none;stroke:#000000;stroke-linecap:square;stroke-linejoin:miter;stroke-width:0.8;"/>
   </g>
   <g id="text_16">
    <!-- Gaussian Process Regression with Boundaries -->
    <g transform="translate(220.418438 9.118125)scale(0.12 -0.12)">
     <defs>
      <path d="M 3809 666 
L 3809 1919 
L 2778 1919 
L 2778 2438 
L 4434 2438 
L 4434 434 
Q 4069 175 3628 42 
Q 3188 -91 2688 -91 
Q 1594 -91 976 548 
Q 359 1188 359 2328 
Q 359 3472 976 4111 
Q 1594 4750 2688 4750 
Q 3144 4750 3555 4637 
Q 3966 4525 4313 4306 
L 4313 3634 
Q 3963 3931 3569 4081 
Q 3175 4231 2741 4231 
Q 1884 4231 1454 3753 
Q 1025 3275 1025 2328 
Q 1025 1384 1454 906 
Q 1884 428 2741 428 
Q 3075 428 3337 486 
Q 3600 544 3809 666 
z
" id="DejaVuSans-47" transform="scale(0.015625)"/>
      <path d="M 2194 1759 
Q 1497 1759 1228 1600 
Q 959 1441 959 1056 
Q 959 750 1161 570 
Q 1363 391 1709 391 
Q 2188 391 2477 730 
Q 2766 1069 2766 1631 
L 2766 1759 
L 2194 1759 
z
M 3341 1997 
L 3341 0 
L 2766 0 
L 2766 531 
Q 2569 213 2275 61 
Q 1981 -91 1556 -91 
Q 1019 -91 701 211 
Q 384 513 384 1019 
Q 384 1609 779 1909 
Q 1175 2209 1959 2209 
L 2766 2209 
L 2766 2266 
Q 2766 2663 2505 2880 
Q 2244 3097 1772 3097 
Q 1472 3097 1187 3025 
Q 903 2953 641 2809 
L 641 3341 
Q 956 3463 1253 3523 
Q 1550 3584 1831 3584 
Q 2591 3584 2966 3190 
Q 3341 2797 3341 1997 
z
" id="DejaVuSans-61" transform="scale(0.015625)"/>
      <path d="M 544 1381 
L 544 3500 
L 1119 3500 
L 1119 1403 
Q 1119 906 1312 657 
Q 1506 409 1894 409 
Q 2359 409 2629 706 
Q 2900 1003 2900 1516 
L 2900 3500 
L 3475 3500 
L 3475 0 
L 2900 0 
L 2900 538 
Q 2691 219 2414 64 
Q 2138 -91 1772 -91 
Q 1169 -91 856 284 
Q 544 659 544 1381 
z
M 1991 3584 
L 1991 3584 
z
" id="DejaVuSans-75" transform="scale(0.015625)"/>
      <path d="M 603 3500 
L 1178 3500 
L 1178 0 
L 603 0 
L 603 3500 
z
M 603 4863 
L 1178 4863 
L 1178 4134 
L 603 4134 
L 603 4863 
z
" id="DejaVuSans-69" transform="scale(0.015625)"/>
      <path id="DejaVuSans-20" transform="scale(0.015625)"/>
      <path d="M 1259 4147 
L 1259 2394 
L 2053 2394 
Q 2494 2394 2734 2622 
Q 2975 2850 2975 3272 
Q 2975 3691 2734 3919 
Q 2494 4147 2053 4147 
L 1259 4147 
z
M 628 4666 
L 2053 4666 
Q 2838 4666 3239 4311 
Q 3641 3956 3641 3272 
Q 3641 2581 3239 2228 
Q 2838 1875 2053 1875 
L 1259 1875 
L 1259 0 
L 628 0 
L 628 4666 
z
" id="DejaVuSans-50" transform="scale(0.015625)"/>
      <path d="M 2631 2963 
Q 2534 3019 2420 3045 
Q 2306 3072 2169 3072 
Q 1681 3072 1420 2755 
Q 1159 2438 1159 1844 
L 1159 0 
L 581 0 
L 581 3500 
L 1159 3500 
L 1159 2956 
Q 1341 3275 1631 3429 
Q 1922 3584 2338 3584 
Q 2397 3584 2469 3576 
Q 2541 3569 2628 3553 
L 2631 2963 
z
" id="DejaVuSans-72" transform="scale(0.015625)"/>
      <path d="M 3122 3366 
L 3122 2828 
Q 2878 2963 2633 3030 
Q 2388 3097 2138 3097 
Q 1578 3097 1268 2742 
Q 959 2388 959 1747 
Q 959 1106 1268 751 
Q 1578 397 2138 397 
Q 2388 397 2633 464 
Q 2878 531 3122 666 
L 3122 134 
Q 2881 22 2623 -34 
Q 2366 -91 2075 -91 
Q 1284 -91 818 406 
Q 353 903 353 1747 
Q 353 2603 823 3093 
Q 1294 3584 2113 3584 
Q 2378 3584 2631 3529 
Q 2884 3475 3122 3366 
z
" id="DejaVuSans-63" transform="scale(0.015625)"/>
      <path d="M 3597 1894 
L 3597 1613 
L 953 1613 
Q 991 1019 1311 708 
Q 1631 397 2203 397 
Q 2534 397 2845 478 
Q 3156 559 3463 722 
L 3463 178 
Q 3153 47 2828 -22 
Q 2503 -91 2169 -91 
Q 1331 -91 842 396 
Q 353 884 353 1716 
Q 353 2575 817 3079 
Q 1281 3584 2069 3584 
Q 2775 3584 3186 3129 
Q 3597 2675 3597 1894 
z
M 3022 2063 
Q 3016 2534 2758 2815 
Q 2500 3097 2075 3097 
Q 1594 3097 1305 2825 
Q 1016 2553 972 2059 
L 3022 2063 
z
" id="DejaVuSans-65" transform="scale(0.015625)"/>
      <path d="M 2841 2188 
Q 3044 2119 3236 1894 
Q 3428 1669 3622 1275 
L 4263 0 
L 3584 0 
L 2988 1197 
Q 2756 1666 2539 1819 
Q 2322 1972 1947 1972 
L 1259 1972 
L 1259 0 
L 628 0 
L 628 4666 
L 2053 4666 
Q 2853 4666 3247 4331 
Q 3641 3997 3641 3322 
Q 3641 2881 3436 2590 
Q 3231 2300 2841 2188 
z
M 1259 4147 
L 1259 2491 
L 2053 2491 
Q 2509 2491 2742 2702 
Q 2975 2913 2975 3322 
Q 2975 3731 2742 3939 
Q 2509 4147 2053 4147 
L 1259 4147 
z
" id="DejaVuSans-52" transform="scale(0.015625)"/>
      <path d="M 2906 1791 
Q 2906 2416 2648 2759 
Q 2391 3103 1925 3103 
Q 1463 3103 1205 2759 
Q 947 2416 947 1791 
Q 947 1169 1205 825 
Q 1463 481 1925 481 
Q 2391 481 2648 825 
Q 2906 1169 2906 1791 
z
M 3481 434 
Q 3481 -459 3084 -895 
Q 2688 -1331 1869 -1331 
Q 1566 -1331 1297 -1286 
Q 1028 -1241 775 -1147 
L 775 -588 
Q 1028 -725 1275 -790 
Q 1522 -856 1778 -856 
Q 2344 -856 2625 -561 
Q 2906 -266 2906 331 
L 2906 616 
Q 2728 306 2450 153 
Q 2172 0 1784 0 
Q 1141 0 747 490 
Q 353 981 353 1791 
Q 353 2603 747 3093 
Q 1141 3584 1784 3584 
Q 2172 3584 2450 3431 
Q 2728 3278 2906 2969 
L 2906 3500 
L 3481 3500 
L 3481 434 
z
" id="DejaVuSans-67" transform="scale(0.015625)"/>
      <path d="M 269 3500 
L 844 3500 
L 1563 769 
L 2278 3500 
L 2956 3500 
L 3675 769 
L 4391 3500 
L 4966 3500 
L 4050 0 
L 3372 0 
L 2619 2869 
L 1863 0 
L 1184 0 
L 269 3500 
z
" id="DejaVuSans-77" transform="scale(0.015625)"/>
      <path d="M 1259 2228 
L 1259 519 
L 2272 519 
Q 2781 519 3026 730 
Q 3272 941 3272 1375 
Q 3272 1813 3026 2020 
Q 2781 2228 2272 2228 
L 1259 2228 
z
M 1259 4147 
L 1259 2741 
L 2194 2741 
Q 2656 2741 2882 2914 
Q 3109 3088 3109 3444 
Q 3109 3797 2882 3972 
Q 2656 4147 2194 4147 
L 1259 4147 
z
M 628 4666 
L 2241 4666 
Q 2963 4666 3353 4366 
Q 3744 4066 3744 3513 
Q 3744 3084 3544 2831 
Q 3344 2578 2956 2516 
Q 3422 2416 3680 2098 
Q 3938 1781 3938 1306 
Q 3938 681 3513 340 
Q 3088 0 2303 0 
L 628 0 
L 628 4666 
z
" id="DejaVuSans-42" transform="scale(0.015625)"/>
      <path d="M 2906 2969 
L 2906 4863 
L 3481 4863 
L 3481 0 
L 2906 0 
L 2906 525 
Q 2725 213 2448 61 
Q 2172 -91 1784 -91 
Q 1150 -91 751 415 
Q 353 922 353 1747 
Q 353 2572 751 3078 
Q 1150 3584 1784 3584 
Q 2172 3584 2448 3432 
Q 2725 3281 2906 2969 
z
M 947 1747 
Q 947 1113 1208 752 
Q 1469 391 1925 391 
Q 2381 391 2643 752 
Q 2906 1113 2906 1747 
Q 2906 2381 2643 2742 
Q 2381 3103 1925 3103 
Q 1469 3103 1208 2742 
Q 947 2381 947 1747 
z
" id="DejaVuSans-64" transform="scale(0.015625)"/>
     </defs>
     <use xlink:href="#DejaVuSans-47"/>
     <use x="77.490234" xlink:href="#DejaVuSans-61"/>
     <use x="138.769531" xlink:href="#DejaVuSans-75"/>
     <use x="202.148438" xlink:href="#DejaVuSans-73"/>
     <use x="254.248047" xlink:href="#DejaVuSans-73"/>
     <use x="306.347656" xlink:href="#DejaVuSans-69"/>
     <use x="334.130859" xlink:href="#DejaVuSans-61"/>
     <use x="395.410156" xlink:href="#DejaVuSans-6e"/>
     <use x="458.789062" xlink:href="#DejaVuSans-20"/>
     <use x="490.576172" xlink:href="#DejaVuSans-50"/>
     <use x="549.128906" xlink:href="#DejaVuSans-72"/>
     <use x="587.992188" xlink:href="#DejaVuSans-6f"/>
     <use x="649.173828" xlink:href="#DejaVuSans-63"/>
     <use x="704.154297" xlink:href="#DejaVuSans-65"/>
     <use x="765.677734" xlink:href="#DejaVuSans-73"/>
     <use x="817.777344" xlink:href="#DejaVuSans-73"/>
     <use x="869.876953" xlink:href="#DejaVuSans-20"/>
     <use x="901.664062" xlink:href="#DejaVuSans-52"/>
     <use x="966.646484" xlink:href="#DejaVuSans-65"/>
     <use x="1028.169922" xlink:href="#DejaVuSans-67"/>
     <use x="1091.646484" xlink:href="#DejaVuSans-72"/>
     <use x="1130.509766" xlink:href="#DejaVuSans-65"/>
     <use x="1192.033203" xlink:href="#DejaVuSans-73"/>
     <use x="1244.132812" xlink:href="#DejaVuSans-73"/>
     <use x="1296.232422" xlink:href="#DejaVuSans-69"/>
     <use x="1324.015625" xlink:href="#DejaVuSans-6f"/>
     <use x="1385.197266" xlink:href="#DejaVuSans-6e"/>
     <use x="1448.576172" xlink:href="#DejaVuSans-20"/>
     <use x="1480.363281" xlink:href="#DejaVuSans-77"/>
     <use x="1562.150391" xlink:href="#DejaVuSans-69"/>
     <use x="1589.933594" xlink:href="#DejaVuSans-74"/>
     <use x="1629.142578" xlink:href="#DejaVuSans-68"/>
     <use x="1692.521484" xlink:href="#DejaVuSans-20"/>
     <use x="1724.308594" xlink:href="#DejaVuSans-42"/>
     <use x="1792.912109" xlink:href="#DejaVuSans-6f"/>
     <use x="1854.09375" xlink:href="#DejaVuSans-75"/>
     <use x="1917.472656" xlink:href="#DejaVuSans-6e"/>
     <use x="1980.851562" xlink:href="#DejaVuSans-64"/>
     <use x="2044.328125" xlink:href="#DejaVuSans-61"/>
     <use x="2105.607422" xlink:href="#DejaVuSans-72"/>
     <use x="2146.720703" xlink:href="#DejaVuSans-69"/>
     <use x="2174.503906" xlink:href="#DejaVuSans-65"/>
     <use x="2236.027344" xlink:href="#DejaVuSans-73"/>
    </g>
   </g>
   <g id="legend_1">
    <g id="patch_7">
     <path d="M 579.685938 67.1525 
L 685.503125 67.1525 
Q 687.503125 67.1525 687.503125 65.1525 
L 687.503125 22.118125 
Q 687.503125 20.118125 685.503125 20.118125 
L 579.685938 20.118125 
Q 577.685938 20.118125 577.685938 22.118125 
L 577.685938 65.1525 
Q 577.685938 67.1525 579.685938 67.1525 
z
" style="fill:#ffffff;opacity:0.8;stroke:#cccccc;stroke-linejoin:miter;"/>
    </g>
    <g id="line2d_18">
     <path d="M 581.685938 28.216563 
L 601.685938 28.216563 
" style="fill:none;stroke:#ff0000;stroke-linecap:square;stroke-width:2;"/>
    </g>
    <g id="line2d_19"/>
    <g id="text_17">
     <!-- mean -->
     <g transform="translate(609.685938 31.716563)scale(0.1 -0.1)">
      <defs>
       <path d="M 3328 2828 
Q 3544 3216 3844 3400 
Q 4144 3584 4550 3584 
Q 5097 3584 5394 3201 
Q 5691 2819 5691 2113 
L 5691 0 
L 5113 0 
L 5113 2094 
Q 5113 2597 4934 2840 
Q 4756 3084 4391 3084 
Q 3944 3084 3684 2787 
Q 3425 2491 3425 1978 
L 3425 0 
L 2847 0 
L 2847 2094 
Q 2847 2600 2669 2842 
Q 2491 3084 2119 3084 
Q 1678 3084 1418 2786 
Q 1159 2488 1159 1978 
L 1159 0 
L 581 0 
L 581 3500 
L 1159 3500 
L 1159 2956 
Q 1356 3278 1631 3431 
Q 1906 3584 2284 3584 
Q 2666 3584 2933 3390 
Q 3200 3197 3328 2828 
z
" id="DejaVuSans-6d" transform="scale(0.015625)"/>
      </defs>
      <use xlink:href="#DejaVuSans-6d"/>
      <use x="97.412109" xlink:href="#DejaVuSans-65"/>
      <use x="158.935547" xlink:href="#DejaVuSans-61"/>
      <use x="220.214844" xlink:href="#DejaVuSans-6e"/>
     </g>
    </g>
    <g id="line2d_20"/>
    <g id="line2d_21">
     <g>
      <use style="fill-opacity:0.5;stroke:#000000;stroke-opacity:0.5;" x="591.685938" xlink:href="#m7a0dcae073" y="42.894688"/>
     </g>
    </g>
    <g id="text_18">
     <!-- Observed data -->
     <g transform="translate(609.685938 46.394688)scale(0.1 -0.1)">
      <defs>
       <path d="M 2522 4238 
Q 1834 4238 1429 3725 
Q 1025 3213 1025 2328 
Q 1025 1447 1429 934 
Q 1834 422 2522 422 
Q 3209 422 3611 934 
Q 4013 1447 4013 2328 
Q 4013 3213 3611 3725 
Q 3209 4238 2522 4238 
z
M 2522 4750 
Q 3503 4750 4090 4092 
Q 4678 3434 4678 2328 
Q 4678 1225 4090 567 
Q 3503 -91 2522 -91 
Q 1538 -91 948 565 
Q 359 1222 359 2328 
Q 359 3434 948 4092 
Q 1538 4750 2522 4750 
z
" id="DejaVuSans-4f" transform="scale(0.015625)"/>
       <path d="M 3116 1747 
Q 3116 2381 2855 2742 
Q 2594 3103 2138 3103 
Q 1681 3103 1420 2742 
Q 1159 2381 1159 1747 
Q 1159 1113 1420 752 
Q 1681 391 2138 391 
Q 2594 391 2855 752 
Q 3116 1113 3116 1747 
z
M 1159 2969 
Q 1341 3281 1617 3432 
Q 1894 3584 2278 3584 
Q 2916 3584 3314 3078 
Q 3713 2572 3713 1747 
Q 3713 922 3314 415 
Q 2916 -91 2278 -91 
Q 1894 -91 1617 61 
Q 1341 213 1159 525 
L 1159 0 
L 581 0 
L 581 4863 
L 1159 4863 
L 1159 2969 
z
" id="DejaVuSans-62" transform="scale(0.015625)"/>
       <path d="M 191 3500 
L 800 3500 
L 1894 563 
L 2988 3500 
L 3597 3500 
L 2284 0 
L 1503 0 
L 191 3500 
z
" id="DejaVuSans-76" transform="scale(0.015625)"/>
      </defs>
      <use xlink:href="#DejaVuSans-4f"/>
      <use x="78.710938" xlink:href="#DejaVuSans-62"/>
      <use x="142.1875" xlink:href="#DejaVuSans-73"/>
      <use x="194.287109" xlink:href="#DejaVuSans-65"/>
      <use x="255.810547" xlink:href="#DejaVuSans-72"/>
      <use x="296.923828" xlink:href="#DejaVuSans-76"/>
      <use x="356.103516" xlink:href="#DejaVuSans-65"/>
      <use x="417.626953" xlink:href="#DejaVuSans-64"/>
      <use x="481.103516" xlink:href="#DejaVuSans-20"/>
      <use x="512.890625" xlink:href="#DejaVuSans-64"/>
      <use x="576.367188" xlink:href="#DejaVuSans-61"/>
      <use x="637.646484" xlink:href="#DejaVuSans-74"/>
      <use x="676.855469" xlink:href="#DejaVuSans-61"/>
     </g>
    </g>
    <g id="line2d_22">
     <path d="M 581.685938 57.572813 
L 601.685938 57.572813 
" style="fill:none;stroke:#0000ff;stroke-dasharray:5.55,2.4;stroke-dashoffset:0;stroke-opacity:0.5;stroke-width:1.5;"/>
    </g>
    <g id="line2d_23"/>
    <g id="text_19">
     <!-- Interpolation -->
     <g transform="translate(609.685938 61.072813)scale(0.1 -0.1)">
      <defs>
       <path d="M 628 4666 
L 1259 4666 
L 1259 0 
L 628 0 
L 628 4666 
z
" id="DejaVuSans-49" transform="scale(0.015625)"/>
       <path d="M 1159 525 
L 1159 -1331 
L 581 -1331 
L 581 3500 
L 1159 3500 
L 1159 2969 
Q 1341 3281 1617 3432 
Q 1894 3584 2278 3584 
Q 2916 3584 3314 3078 
Q 3713 2572 3713 1747 
Q 3713 922 3314 415 
Q 2916 -91 2278 -91 
Q 1894 -91 1617 61 
Q 1341 213 1159 525 
z
M 3116 1747 
Q 3116 2381 2855 2742 
Q 2594 3103 2138 3103 
Q 1681 3103 1420 2742 
Q 1159 2381 1159 1747 
Q 1159 1113 1420 752 
Q 1681 391 2138 391 
Q 2594 391 2855 752 
Q 3116 1113 3116 1747 
z
" id="DejaVuSans-70" transform="scale(0.015625)"/>
       <path d="M 603 4863 
L 1178 4863 
L 1178 0 
L 603 0 
L 603 4863 
z
" id="DejaVuSans-6c" transform="scale(0.015625)"/>
      </defs>
      <use xlink:href="#DejaVuSans-49"/>
      <use x="29.492188" xlink:href="#DejaVuSans-6e"/>
      <use x="92.871094" xlink:href="#DejaVuSans-74"/>
      <use x="132.080078" xlink:href="#DejaVuSans-65"/>
      <use x="193.603516" xlink:href="#DejaVuSans-72"/>
      <use x="234.716797" xlink:href="#DejaVuSans-70"/>
      <use x="298.193359" xlink:href="#DejaVuSans-6f"/>
      <use x="359.375" xlink:href="#DejaVuSans-6c"/>
      <use x="387.158203" xlink:href="#DejaVuSans-61"/>
      <use x="448.4375" xlink:href="#DejaVuSans-74"/>
      <use x="487.646484" xlink:href="#DejaVuSans-69"/>
      <use x="515.429688" xlink:href="#DejaVuSans-6f"/>
      <use x="576.611328" xlink:href="#DejaVuSans-6e"/>
     </g>
    </g>
   </g>
  </g>
 </g>
 <defs>
  <clipPath id="paa8f5d9461">
   <rect height="277.2" width="669.6" x="22.903125" y="15.118125"/>
  </clipPath>
 </defs>
</svg>
