<?xml version="1.0" encoding="utf-8" standalone="no"?>
<!DOCTYPE svg PUBLIC "-//W3C//DTD SVG 1.1//EN"
  "http://www.w3.org/Graphics/SVG/1.1/DTD/svg11.dtd">
<svg height="282.790125pt" version="1.1" viewBox="0 0 380.023125 282.790125" width="380.023125pt" xmlns="http://www.w3.org/2000/svg" xmlns:xlink="http://www.w3.org/1999/xlink">
 <metadata>
  <rdf:RDF xmlns:cc="http://creativecommons.org/ns#" xmlns:dc="http://purl.org/dc/elements/1.1/" xmlns:rdf="http://www.w3.org/1999/02/22-rdf-syntax-ns#">
   <cc:Work>
    <dc:type rdf:resource="http://purl.org/dc/dcmitype/StillImage"/>
    <dc:date>2021-09-07T22:59:07.408732</dc:date>
    <dc:format>image/svg+xml</dc:format>
    <dc:creator>
     <cc:Agent>
      <dc:title>Matplotlib v3.4.2, https://matplotlib.org/</dc:title>
     </cc:Agent>
    </dc:creator>
   </cc:Work>
  </rdf:RDF>
 </metadata>
 <defs>
  <style type="text/css">*{stroke-linecap:butt;stroke-linejoin:round;}</style>
 </defs>
 <g id="figure_1">
  <g id="patch_1">
   <path d="M 0 282.790125 
L 380.023125 282.790125 
L 380.023125 0 
L 0 0 
z
" style="fill:none;"/>
  </g>
  <g id="axes_1">
   <g id="patch_2">
    <path d="M 22.903125 266.112 
L 380.023125 266.112 
L 380.023125 0 
L 22.903125 0 
z
" style="fill:none;"/>
   </g>
   <g id="matplotlib.axis_1">
    <g id="xtick_1">
     <g id="line2d_1">
      <defs>
       <path d="M 0 0 
L 0 3.5 
" id="mf705a5bcb1" style="stroke:#000000;stroke-width:0.8;"/>
      </defs>
      <g>
       <use style="stroke:#000000;stroke-width:0.8;" x="39.135852" xlink:href="#mf705a5bcb1" y="266.112"/>
      </g>
     </g>
     <g id="text_1">
      <!-- 0 -->
      <g transform="translate(35.954602 280.710438)scale(0.1 -0.1)">
       <defs>
        <path d="M 2034 4250 
Q 1547 4250 1301 3770 
Q 1056 3291 1056 2328 
Q 1056 1369 1301 889 
Q 1547 409 2034 409 
Q 2525 409 2770 889 
Q 3016 1369 3016 2328 
Q 3016 3291 2770 3770 
Q 2525 4250 2034 4250 
z
M 2034 4750 
Q 2819 4750 3233 4129 
Q 3647 3509 3647 2328 
Q 3647 1150 3233 529 
Q 2819 -91 2034 -91 
Q 1250 -91 836 529 
Q 422 1150 422 2328 
Q 422 3509 836 4129 
Q 1250 4750 2034 4750 
z
" id="DejaVuSans-30" transform="scale(0.015625)"/>
       </defs>
       <use xlink:href="#DejaVuSans-30"/>
      </g>
     </g>
    </g>
    <g id="xtick_2">
     <g id="line2d_2">
      <g>
       <use style="stroke:#000000;stroke-width:0.8;" x="116.434554" xlink:href="#mf705a5bcb1" y="266.112"/>
      </g>
     </g>
     <g id="text_2">
      <!-- 5 -->
      <g transform="translate(113.253304 280.710438)scale(0.1 -0.1)">
       <defs>
        <path d="M 691 4666 
L 3169 4666 
L 3169 4134 
L 1269 4134 
L 1269 2991 
Q 1406 3038 1543 3061 
Q 1681 3084 1819 3084 
Q 2600 3084 3056 2656 
Q 3513 2228 3513 1497 
Q 3513 744 3044 326 
Q 2575 -91 1722 -91 
Q 1428 -91 1123 -41 
Q 819 9 494 109 
L 494 744 
Q 775 591 1075 516 
Q 1375 441 1709 441 
Q 2250 441 2565 725 
Q 2881 1009 2881 1497 
Q 2881 1984 2565 2268 
Q 2250 2553 1709 2553 
Q 1456 2553 1204 2497 
Q 953 2441 691 2322 
L 691 4666 
z
" id="DejaVuSans-35" transform="scale(0.015625)"/>
       </defs>
       <use xlink:href="#DejaVuSans-35"/>
      </g>
     </g>
    </g>
    <g id="xtick_3">
     <g id="line2d_3">
      <g>
       <use style="stroke:#000000;stroke-width:0.8;" x="193.733255" xlink:href="#mf705a5bcb1" y="266.112"/>
      </g>
     </g>
     <g id="text_3">
      <!-- 10 -->
      <g transform="translate(187.370755 280.710438)scale(0.1 -0.1)">
       <defs>
        <path d="M 794 531 
L 1825 531 
L 1825 4091 
L 703 3866 
L 703 4441 
L 1819 4666 
L 2450 4666 
L 2450 531 
L 3481 531 
L 3481 0 
L 794 0 
L 794 531 
z
" id="DejaVuSans-31" transform="scale(0.015625)"/>
       </defs>
       <use xlink:href="#DejaVuSans-31"/>
       <use x="63.623047" xlink:href="#DejaVuSans-30"/>
      </g>
     </g>
    </g>
    <g id="xtick_4">
     <g id="line2d_4">
      <g>
       <use style="stroke:#000000;stroke-width:0.8;" x="271.031956" xlink:href="#mf705a5bcb1" y="266.112"/>
      </g>
     </g>
     <g id="text_4">
      <!-- 15 -->
      <g transform="translate(264.669456 280.710438)scale(0.1 -0.1)">
       <use xlink:href="#DejaVuSans-31"/>
       <use x="63.623047" xlink:href="#DejaVuSans-35"/>
      </g>
     </g>
    </g>
    <g id="xtick_5">
     <g id="line2d_5">
      <g>
       <use style="stroke:#000000;stroke-width:0.8;" x="348.330657" xlink:href="#mf705a5bcb1" y="266.112"/>
      </g>
     </g>
     <g id="text_5">
      <!-- 20 -->
      <g transform="translate(341.968157 280.710438)scale(0.1 -0.1)">
       <defs>
        <path d="M 1228 531 
L 3431 531 
L 3431 0 
L 469 0 
L 469 531 
Q 828 903 1448 1529 
Q 2069 2156 2228 2338 
Q 2531 2678 2651 2914 
Q 2772 3150 2772 3378 
Q 2772 3750 2511 3984 
Q 2250 4219 1831 4219 
Q 1534 4219 1204 4116 
Q 875 4013 500 3803 
L 500 4441 
Q 881 4594 1212 4672 
Q 1544 4750 1819 4750 
Q 2544 4750 2975 4387 
Q 3406 4025 3406 3419 
Q 3406 3131 3298 2873 
Q 3191 2616 2906 2266 
Q 2828 2175 2409 1742 
Q 1991 1309 1228 531 
z
" id="DejaVuSans-32" transform="scale(0.015625)"/>
       </defs>
       <use xlink:href="#DejaVuSans-32"/>
       <use x="63.623047" xlink:href="#DejaVuSans-30"/>
      </g>
     </g>
    </g>
   </g>
   <g id="matplotlib.axis_2">
    <g id="ytick_1">
     <g id="line2d_6">
      <defs>
       <path d="M 0 0 
L -3.5 0 
" id="m0feb16e57d" style="stroke:#000000;stroke-width:0.8;"/>
      </defs>
      <g>
       <use style="stroke:#000000;stroke-width:0.8;" x="22.903125" xlink:href="#m0feb16e57d" y="254.016"/>
      </g>
     </g>
     <g id="text_6">
      <!-- 0.0 -->
      <g transform="translate(0 257.815219)scale(0.1 -0.1)">
       <defs>
        <path d="M 684 794 
L 1344 794 
L 1344 0 
L 684 0 
L 684 794 
z
" id="DejaVuSans-2e" transform="scale(0.015625)"/>
       </defs>
       <use xlink:href="#DejaVuSans-30"/>
       <use x="63.623047" xlink:href="#DejaVuSans-2e"/>
       <use x="95.410156" xlink:href="#DejaVuSans-30"/>
      </g>
     </g>
    </g>
    <g id="ytick_2">
     <g id="line2d_7">
      <g>
       <use style="stroke:#000000;stroke-width:0.8;" x="22.903125" xlink:href="#m0feb16e57d" y="205.632"/>
      </g>
     </g>
     <g id="text_7">
      <!-- 0.2 -->
      <g transform="translate(0 209.431219)scale(0.1 -0.1)">
       <use xlink:href="#DejaVuSans-30"/>
       <use x="63.623047" xlink:href="#DejaVuSans-2e"/>
       <use x="95.410156" xlink:href="#DejaVuSans-32"/>
      </g>
     </g>
    </g>
    <g id="ytick_3">
     <g id="line2d_8">
      <g>
       <use style="stroke:#000000;stroke-width:0.8;" x="22.903125" xlink:href="#m0feb16e57d" y="157.248"/>
      </g>
     </g>
     <g id="text_8">
      <!-- 0.4 -->
      <g transform="translate(0 161.047219)scale(0.1 -0.1)">
       <defs>
        <path d="M 2419 4116 
L 825 1625 
L 2419 1625 
L 2419 4116 
z
M 2253 4666 
L 3047 4666 
L 3047 1625 
L 3713 1625 
L 3713 1100 
L 3047 1100 
L 3047 0 
L 2419 0 
L 2419 1100 
L 313 1100 
L 313 1709 
L 2253 4666 
z
" id="DejaVuSans-34" transform="scale(0.015625)"/>
       </defs>
       <use xlink:href="#DejaVuSans-30"/>
       <use x="63.623047" xlink:href="#DejaVuSans-2e"/>
       <use x="95.410156" xlink:href="#DejaVuSans-34"/>
      </g>
     </g>
    </g>
    <g id="ytick_4">
     <g id="line2d_9">
      <g>
       <use style="stroke:#000000;stroke-width:0.8;" x="22.903125" xlink:href="#m0feb16e57d" y="108.864"/>
      </g>
     </g>
     <g id="text_9">
      <!-- 0.6 -->
      <g transform="translate(0 112.663219)scale(0.1 -0.1)">
       <defs>
        <path d="M 2113 2584 
Q 1688 2584 1439 2293 
Q 1191 2003 1191 1497 
Q 1191 994 1439 701 
Q 1688 409 2113 409 
Q 2538 409 2786 701 
Q 3034 994 3034 1497 
Q 3034 2003 2786 2293 
Q 2538 2584 2113 2584 
z
M 3366 4563 
L 3366 3988 
Q 3128 4100 2886 4159 
Q 2644 4219 2406 4219 
Q 1781 4219 1451 3797 
Q 1122 3375 1075 2522 
Q 1259 2794 1537 2939 
Q 1816 3084 2150 3084 
Q 2853 3084 3261 2657 
Q 3669 2231 3669 1497 
Q 3669 778 3244 343 
Q 2819 -91 2113 -91 
Q 1303 -91 875 529 
Q 447 1150 447 2328 
Q 447 3434 972 4092 
Q 1497 4750 2381 4750 
Q 2619 4750 2861 4703 
Q 3103 4656 3366 4563 
z
" id="DejaVuSans-36" transform="scale(0.015625)"/>
       </defs>
       <use xlink:href="#DejaVuSans-30"/>
       <use x="63.623047" xlink:href="#DejaVuSans-2e"/>
       <use x="95.410156" xlink:href="#DejaVuSans-36"/>
      </g>
     </g>
    </g>
    <g id="ytick_5">
     <g id="line2d_10">
      <g>
       <use style="stroke:#000000;stroke-width:0.8;" x="22.903125" xlink:href="#m0feb16e57d" y="60.48"/>
      </g>
     </g>
     <g id="text_10">
      <!-- 0.8 -->
      <g transform="translate(0 64.279219)scale(0.1 -0.1)">
       <defs>
        <path d="M 2034 2216 
Q 1584 2216 1326 1975 
Q 1069 1734 1069 1313 
Q 1069 891 1326 650 
Q 1584 409 2034 409 
Q 2484 409 2743 651 
Q 3003 894 3003 1313 
Q 3003 1734 2745 1975 
Q 2488 2216 2034 2216 
z
M 1403 2484 
Q 997 2584 770 2862 
Q 544 3141 544 3541 
Q 544 4100 942 4425 
Q 1341 4750 2034 4750 
Q 2731 4750 3128 4425 
Q 3525 4100 3525 3541 
Q 3525 3141 3298 2862 
Q 3072 2584 2669 2484 
Q 3125 2378 3379 2068 
Q 3634 1759 3634 1313 
Q 3634 634 3220 271 
Q 2806 -91 2034 -91 
Q 1263 -91 848 271 
Q 434 634 434 1313 
Q 434 1759 690 2068 
Q 947 2378 1403 2484 
z
M 1172 3481 
Q 1172 3119 1398 2916 
Q 1625 2713 2034 2713 
Q 2441 2713 2670 2916 
Q 2900 3119 2900 3481 
Q 2900 3844 2670 4047 
Q 2441 4250 2034 4250 
Q 1625 4250 1398 4047 
Q 1172 3844 1172 3481 
z
" id="DejaVuSans-38" transform="scale(0.015625)"/>
       </defs>
       <use xlink:href="#DejaVuSans-30"/>
       <use x="63.623047" xlink:href="#DejaVuSans-2e"/>
       <use x="95.410156" xlink:href="#DejaVuSans-38"/>
      </g>
     </g>
    </g>
    <g id="ytick_6">
     <g id="line2d_11">
      <g>
       <use style="stroke:#000000;stroke-width:0.8;" x="22.903125" xlink:href="#m0feb16e57d" y="12.096"/>
      </g>
     </g>
     <g id="text_11">
      <!-- 1.0 -->
      <g transform="translate(0 15.895219)scale(0.1 -0.1)">
       <use xlink:href="#DejaVuSans-31"/>
       <use x="63.623047" xlink:href="#DejaVuSans-2e"/>
       <use x="95.410156" xlink:href="#DejaVuSans-30"/>
      </g>
     </g>
    </g>
   </g>
   <g id="line2d_12">
    <path clip-path="url(#p18ab0ff204)" d="M 39.135852 187.832761 
L 40.147237 184.964622 
L 41.158622 189.84694 
L 42.170007 181.963051 
L 43.181392 204.891646 
L 44.192777 205.055576 
L 45.204162 206.833391 
L 46.215546 197.705413 
L 47.226931 205.369458 
L 48.238316 209.912479 
L 49.249701 208.859006 
L 50.261086 210.911308 
L 51.272471 214.334776 
L 52.283856 216.625984 
L 53.295241 207.528505 
L 54.306625 206.669461 
L 55.31801 206.860077 
L 56.329395 206.178942 
L 57.34078 211.047281 
L 58.352165 210.99645 
L 59.36355 210.748649 
L 60.374935 197.843928 
L 61.38632 214.761757 
L 62.397704 216.604381 
L 63.409089 216.916991 
L 64.420474 213.948461 
L 65.431859 214.761757 
L 66.443244 216.604381 
L 67.454629 216.916991 
L 68.466014 213.948461 
L 69.477399 222.958256 
L 70.488783 220.758544 
L 71.500168 223.475462 
L 72.511553 220.894517 
L 73.522938 220.476432 
L 74.534323 216.906825 
L 75.545708 220.384937 
L 76.557093 216.304478 
L 77.568478 226.091988 
L 78.579862 222.200874 
L 79.591247 225.605281 
L 80.602632 223.724534 
L 81.614017 199.906396 
L 82.625402 186.94576 
L 83.636787 211.108278 
L 84.648172 213.499877 
L 85.659557 151.561027 
L 86.670941 173.460295 
L 87.682326 172.827449 
L 88.693711 199.939436 
L 89.705096 196.226231 
L 90.716481 205.155968 
L 91.727866 204.802692 
L 92.739251 226.569799 
L 93.750636 228.881339 
L 94.76202 229.886522 
L 95.773405 225.469308 
L 96.78479 223.518668 
L 98.80756 226.8176 
L 99.818945 224.343401 
L 101.841715 226.116132 
L 102.8531 227.86726 
L 103.864484 226.914179 
L 104.875869 226.672732 
L 105.887254 225.50616 
L 106.898639 227.644875 
L 107.910024 226.098342 
L 108.921409 192.478715 
L 109.932794 193.003545 
L 110.944179 187.914091 
L 111.955563 187.92934 
L 112.966948 63.195138 
L 113.978333 61.59142 
L 114.989718 53.387296 
L 116.001103 56.496882 
L 117.012488 70.36231 
L 119.035258 92.326387 
L 120.046642 82.815906 
L 121.058027 12.887693 
L 122.069412 12.096 
L 123.080797 28.063289 
L 124.092182 19.456329 
L 125.103567 70.36231 
L 127.126337 92.326387 
L 128.137721 82.815906 
L 129.149106 95.813394 
L 130.160491 89.995785 
L 131.171876 104.580471 
L 132.183261 94.378689 
L 133.194646 88.023542 
L 134.206031 85.654817 
L 135.217416 97.567063 
L 136.2288 93.308696 
L 137.240185 148.973729 
L 138.25157 144.692488 
L 139.262955 156.837285 
L 140.27434 152.615771 
L 141.285725 191.829349 
L 142.29711 191.211752 
L 143.308495 194.452229 
L 144.319879 184.64947 
L 145.331264 189.787213 
L 146.342649 185.804604 
L 147.354034 194.129452 
L 148.365419 186.866972 
L 149.376804 214.647387 
L 150.388189 214.96381 
L 151.399574 216.253647 
L 152.410958 212.412094 
L 153.422343 219.814359 
L 154.433728 219.815629 
L 155.445113 221.124528 
L 156.456498 216.108778 
L 157.467883 223.960898 
L 158.479268 221.62013 
L 159.490653 222.561774 
L 160.502037 218.402527 
L 161.513422 231.683398 
L 162.524807 230.168634 
L 163.536192 229.805193 
L 164.547577 228.34126 
L 165.558962 243.929858 
L 166.570347 244.177659 
L 167.581732 240.225548 
L 168.593117 238.334635 
L 169.604501 229.803922 
L 170.615886 231.577924 
L 171.627271 232.386137 
L 172.638656 183.449858 
L 173.650041 173.032044 
L 174.661426 175.330876 
L 175.672811 127.099877 
L 176.684196 139.813982 
L 177.69558 232.900801 
L 178.706965 235.231402 
L 179.71835 232.557691 
L 180.729735 228.019753 
L 181.74112 232.828367 
L 182.752505 233.918692 
L 183.76389 231.496594 
L 184.775275 222.434697 
L 185.786659 235.775294 
L 186.798044 235.463954 
L 187.809429 239.066602 
L 188.820814 236.248022 
L 189.832199 187.656124 
L 190.843584 203.054106 
L 191.854969 223.626684 
L 192.866354 224.583578 
L 193.877738 200.562116 
L 194.889123 205.816771 
L 195.900508 220.363333 
L 196.911893 223.889734 
L 197.923278 226.231773 
L 198.934663 222.166563 
L 199.946048 236.89993 
L 200.957433 241.306978 
L 201.968817 251.028408 
L 202.980202 250.809834 
L 203.991587 239.39192 
L 205.002972 243.81803 
L 206.014357 252.543172 
L 207.025742 254.016 
L 208.037127 119.346878 
L 209.048512 124.884916 
L 210.059896 186.825037 
L 211.071281 203.545896 
L 212.082666 44.834979 
L 213.094051 87.742701 
L 214.105436 84.475538 
L 215.116821 90.235962 
L 216.128206 86.722269 
L 217.139591 74.940912 
L 218.150975 98.861983 
L 220.173745 78.865066 
L 221.18513 79.112867 
L 222.196515 87.287763 
L 223.2079 121.155191 
L 224.219285 129.054329 
L 225.23067 143.84361 
L 226.242054 130.109073 
L 227.253439 165.59928 
L 228.264824 166.638774 
L 229.276209 173.498418 
L 230.287594 166.364287 
L 231.298979 67.00111 
L 232.310364 53.387296 
L 233.321749 74.705819 
L 234.333133 63.155744 
L 235.344518 101.881345 
L 236.355903 88.614453 
L 237.367288 113.370423 
L 238.378673 99.517703 
L 239.390058 193.713909 
L 241.412828 202.712267 
L 242.424213 193.361904 
L 243.435597 214.201345 
L 244.446982 214.566057 
L 245.458367 216.909367 
L 246.469752 211.70173 
L 247.481137 128.205451 
L 248.492522 130.078574 
L 249.503907 146.76131 
L 250.515292 134.636844 
L 251.526676 163.89517 
L 252.538061 165.905537 
L 253.549446 172.253058 
L 254.560831 163.722345 
L 255.572216 183.385048 
L 256.583601 177.822866 
L 257.594986 187.934423 
L 258.606371 174.016894 
L 259.617755 191.468449 
L 260.62914 194.170117 
L 261.640525 199.854294 
L 262.65191 189.422501 
L 263.663295 226.220336 
L 264.67468 227.548296 
L 265.686065 225.738712 
L 266.69745 221.762457 
L 267.708834 226.798539 
L 269.731604 228.411152 
L 270.742989 224.142619 
L 271.754374 190.43785 
L 272.765759 190.313314 
L 273.777144 196.65067 
L 274.788529 187.671373 
L 275.799913 208.368487 
L 276.811298 208.968293 
L 277.822683 210.589802 
L 278.834068 206.60338 
L 279.845453 218.915921 
L 280.856838 219.416606 
L 281.868223 221.393932 
L 282.879608 218.78376 
L 283.890992 232.42426 
L 284.902377 233.796697 
L 285.913762 233.560333 
L 286.925147 232.084963 
L 287.936532 235.577053 
L 288.947917 237.615376 
L 289.959302 222.893447 
L 290.970687 222.470279 
L 291.982071 222.333035 
L 292.993456 215.460683 
L 294.004841 241.481074 
L 295.016226 239.202574 
L 296.027611 245.772482 
L 297.038996 242.934841 
L 298.050381 227.501277 
L 299.061766 228.798739 
L 300.07315 227.741454 
L 301.084535 226.951032 
L 302.09592 232.107837 
L 303.107305 231.874014 
L 304.11869 231.134423 
L 305.130075 226.469408 
L 306.14146 234.313903 
L 307.152845 233.806863 
L 308.16423 234.085163 
L 309.175614 232.764828 
L 310.186999 236.922804 
L 311.198384 240.331023 
L 312.209769 242.515485 
L 313.221154 243.067002 
L 314.232539 232.810576 
L 315.243924 244.286946 
L 316.255309 243.519398 
L 317.266693 236.968552 
L 318.278078 236.53903 
L 319.289463 240.500036 
L 320.300848 235.289858 
L 321.312233 244.594473 
L 322.323618 245.264172 
L 323.335003 245.733088 
L 324.346388 243.283033 
L 325.357772 232.844887 
L 326.369157 234.353297 
L 327.380542 244.298383 
L 328.391927 252.93457 
L 329.403312 252.106025 
L 330.414697 229.479874 
L 331.426082 236.465325 
L 332.437467 239.911667 
L 333.448851 242.101213 
L 334.460236 243.811676 
L 335.471621 243.806593 
L 336.483006 239.911667 
L 337.494391 242.101213 
L 338.505776 243.811676 
L 339.517161 243.806593 
L 340.528546 221.440951 
L 341.53993 236.962198 
L 342.551315 244.191638 
L 343.5627 242.483716 
L 344.574085 211.459012 
L 345.58547 220.916121 
L 346.596855 226.313103 
L 347.60824 223.786802 
L 348.619625 210.265754 
L 349.631009 206.773664 
L 350.642394 205.394873 
L 351.653779 205.355479 
L 352.665164 204.397315 
L 353.676549 200.102095 
L 354.687934 202.491152 
L 355.699319 199.314214 
L 356.710704 210.800751 
L 357.722088 208.97973 
L 358.733473 209.903583 
L 359.744858 208.709055 
L 360.756243 233.280762 
L 361.767628 232.126899 
L 362.779013 230.48887 
L 363.790398 232.367075 
L 363.790398 232.367075 
" style="fill:none;stroke:#1f77b4;stroke-linecap:square;stroke-width:1.5;"/>
   </g>
   <g id="patch_3">
    <path d="M 22.903125 266.112 
L 22.903125 0 
" style="fill:none;stroke:#000000;stroke-linecap:square;stroke-linejoin:miter;stroke-width:0.8;"/>
   </g>
   <g id="patch_4">
    <path d="M 380.023125 266.112 
L 380.023125 0 
" style="fill:none;stroke:#000000;stroke-linecap:square;stroke-linejoin:miter;stroke-width:0.8;"/>
   </g>
   <g id="patch_5">
    <path d="M 22.903125 266.112 
L 380.023125 266.112 
" style="fill:none;stroke:#000000;stroke-linecap:square;stroke-linejoin:miter;stroke-width:0.8;"/>
   </g>
   <g id="patch_6">
    <path d="M 22.903125 0 
L 380.023125 0 
" style="fill:none;stroke:#000000;stroke-linecap:square;stroke-linejoin:miter;stroke-width:0.8;"/>
   </g>
  </g>
 </g>
 <defs>
  <clipPath id="p18ab0ff204">
   <rect height="266.112" width="357.12" x="22.903125" y="0"/>
  </clipPath>
 </defs>
</svg>
