<?xml version="1.0" encoding="UTF-8" standalone="no"?>
<!-- Created with Inkscape (http://www.inkscape.org/) -->

<svg
   width="1920px"
   height="1080px"
   viewBox="0 0 1920 1080"
   version="1.1"
   id="SVGRoot"
   sodipodi:docname="intro_2.svg"
   inkscape:version="1.1 (ce6663b3b7, 2021-05-25)"
   xmlns:inkscape="http://www.inkscape.org/namespaces/inkscape"
   xmlns:sodipodi="http://sodipodi.sourceforge.net/DTD/sodipodi-0.dtd"
   xmlns="http://www.w3.org/2000/svg"
   xmlns:svg="http://www.w3.org/2000/svg">
  <sodipodi:namedview
     id="namedview884"
     pagecolor="#505050"
     bordercolor="#eeeeee"
     borderopacity="1"
     inkscape:pageshadow="0"
     inkscape:pageopacity="0"
     inkscape:pagecheckerboard="0"
     inkscape:document-units="px"
     showgrid="false"
     inkscape:zoom="0.7921875"
     inkscape:cx="960"
     inkscape:cy="539.64497"
     inkscape:window-width="2192"
     inkscape:window-height="1162"
     inkscape:window-x="0"
     inkscape:window-y="34"
     inkscape:window-maximized="1"
     inkscape:current-layer="layer10"
     inkscape:snap-bbox="true"
     inkscape:snap-bbox-midpoints="true"
     inkscape:snap-page="true"
     inkscape:snap-midpoints="true"
     inkscape:snap-bbox-edge-midpoints="true"
     inkscape:snap-intersection-paths="false"
     inkscape:object-nodes="false"
     inkscape:snap-center="true"
     inkscape:snap-smooth-nodes="true"
     inkscape:snap-global="false" />
  <defs
     id="defs879">
    <inkscape:path-effect
       effect="spiro"
       id="path-effect25158"
       is_visible="true"
       lpeversion="1" />
    <rect
       x="1743.8143"
       y="313.66456"
       width="85.460391"
       height="25.032167"
       id="rect20444" />
    <inkscape:path-effect
       effect="spiro"
       id="path-effect19105"
       is_visible="true"
       lpeversion="1" />
    <inkscape:path-effect
       effect="spiro"
       id="path-effect18908"
       is_visible="true"
       lpeversion="1" />
    <inkscape:path-effect
       effect="spiro"
       id="path-effect17925"
       is_visible="true"
       lpeversion="1" />
    <inkscape:path-effect
       effect="spiro"
       id="path-effect16622"
       is_visible="true"
       lpeversion="1" />
    <inkscape:path-effect
       effect="spiro"
       id="path-effect16131"
       is_visible="true"
       lpeversion="1" />
    <inkscape:path-effect
       effect="spiro"
       id="path-effect16014"
       is_visible="true"
       lpeversion="1" />
    <inkscape:path-effect
       effect="spiro"
       id="path-effect15226"
       is_visible="true"
       lpeversion="1" />
    <inkscape:path-effect
       effect="spiro"
       id="path-effect15109"
       is_visible="true"
       lpeversion="1" />
    <inkscape:path-effect
       effect="spiro"
       id="path-effect14991"
       is_visible="true"
       lpeversion="1" />
    <inkscape:path-effect
       effect="spiro"
       id="path-effect14858"
       is_visible="true"
       lpeversion="1" />
    <inkscape:path-effect
       effect="spiro"
       id="path-effect13215"
       is_visible="true"
       lpeversion="1" />
    <inkscape:path-effect
       effect="spiro"
       id="path-effect13211"
       is_visible="true"
       lpeversion="1" />
    <inkscape:path-effect
       effect="spiro"
       id="path-effect13207"
       is_visible="true"
       lpeversion="1" />
    <inkscape:path-effect
       effect="spiro"
       id="path-effect7417"
       is_visible="true"
       lpeversion="1" />
    <inkscape:path-effect
       effect="spiro"
       id="path-effect7072"
       is_visible="true"
       lpeversion="1" />
    <inkscape:path-effect
       effect="spiro"
       id="path-effect1338"
       is_visible="true"
       lpeversion="1" />
    <inkscape:path-effect
       effect="spiro"
       id="path-effect31899"
       is_visible="true"
       lpeversion="1" />
    <inkscape:path-effect
       effect="spiro"
       id="path-effect31518"
       is_visible="true"
       lpeversion="1" />
    <inkscape:path-effect
       effect="spiro"
       id="path-effect22232"
       is_visible="true"
       lpeversion="1" />
    <inkscape:path-effect
       effect="powerstroke"
       id="path-effect22112"
       is_visible="true"
       lpeversion="1"
       offset_points="0.50638325,8.2648845"
       not_jump="true"
       sort_points="true"
       interpolator_type="CentripetalCatmullRom"
       interpolator_beta="0.75"
       start_linecap_type="round"
       linejoin_type="spiro"
       miter_limit="4"
       scale_width="1"
       end_linecap_type="round" />
    <inkscape:path-effect
       effect="simplify"
       id="path-effect22110"
       is_visible="true"
       lpeversion="1"
       steps="1"
       threshold="0.0056285178"
       smooth_angles="0"
       helper_size="0"
       simplify_individual_paths="false"
       simplify_just_coalesce="false"
       step="1" />
    <inkscape:path-effect
       effect="spiro"
       id="path-effect21412"
       is_visible="true"
       lpeversion="1" />
    <inkscape:path-effect
       effect="powerstroke"
       id="path-effect20928"
       is_visible="true"
       lpeversion="1"
       offset_points="0,18.8679"
       not_jump="false"
       sort_points="true"
       interpolator_type="CubicBezierJohan"
       interpolator_beta="0.2"
       start_linecap_type="zerowidth"
       linejoin_type="extrp_arc"
       miter_limit="4"
       scale_width="1"
       end_linecap_type="zerowidth" />
    <inkscape:path-effect
       effect="spiro"
       id="path-effect19960"
       is_visible="true"
       lpeversion="1" />
    <inkscape:path-effect
       effect="spiro"
       id="path-effect19843"
       is_visible="true"
       lpeversion="1" />
  </defs>
  <g
     inkscape:groupmode="layer"
     id="layer8"
     inkscape:label="frame"
     sodipodi:insensitive="true">
    <rect
       style="font-variation-settings:normal;opacity:1;vector-effect:none;fill:none;fill-opacity:1;stroke:#ff0000;stroke-width:5;stroke-linecap:butt;stroke-linejoin:miter;stroke-miterlimit:4;stroke-dasharray:none;stroke-dashoffset:0;stroke-opacity:1;-inkscape-stroke:none;stop-color:#000000;stop-opacity:1"
       id="rect12683"
       width="1920"
       height="1080"
       x="0"
       y="0" />
  </g>
  <g
     inkscape:groupmode="layer"
     id="layer4"
     inkscape:label="curve"
     style="display:inline">
    <path
       style="fill:none;stroke:#005500;stroke-width:5;stroke-linecap:butt;stroke-linejoin:miter;stroke-miterlimit:4;stroke-dasharray:15, 5;stroke-dashoffset:0;stroke-opacity:1"
       d="m 153.73505,451.96884 c 14.79924,27.87716 28.55852,56.30639 41.23963,85.2087 6.46986,14.74586 12.7671,29.80127 22.62905,42.53082 4.93098,6.36478 10.74465,12.1012 17.49682,16.48675 6.75217,4.38556 14.46917,7.39261 22.48151,8.18467 8.42456,0.83281 17.0168,-0.80733 24.75532,-4.23983 7.73852,-3.43249 14.63902,-8.61853 20.46212,-14.7633 11.64621,-12.28954 18.85872,-28.10656 24.38785,-44.10955 5.52914,-16.00298 9.59501,-32.52302 16.05944,-48.17161 6.46443,-15.64858 15.64332,-30.6899 29.27394,-40.73346 9.97514,-7.35006 21.79683,-11.65735 33.22371,-16.44831 11.42688,-4.79097 22.92683,-10.37689 31.25132,-19.55457 7.40358,-8.16238 11.77604,-18.62082 14.96897,-29.16799 3.19294,-10.54717 5.34999,-21.40826 9.06322,-31.78369 12.4662,-34.83284 40.98289,-60.92313 65.65927,-88.48777 12.2638,-13.69923 23.88246,-28.17354 38.29475,-39.59088 7.20614,-5.70867 15.09884,-10.62144 23.65533,-13.98357 8.55649,-3.36213 17.79952,-5.14552 26.97558,-4.58215 11.22199,0.68898 22.08038,4.88564 31.41272,11.15582 9.33234,6.27018 17.19495,14.55885 23.77772,23.67339 13.16555,18.22909 21.22882,39.53677 30.96499,59.80591 15.74561,32.77983 36.1713,63.30727 60.46455,90.36794"
       id="path22230"
       inkscape:path-effect="#path-effect22232"
       inkscape:original-d="m 153.73505,451.96884 c 16.23081,28.19205 37.33186,52.91656 41.23963,85.2087 5.30943,43.87498 45.59354,44.46375 62.60738,67.20224 17.01384,22.7385 216.49983,-115.15535 114.93867,-152.01775 -56.70667,-20.58213 37.83064,-1.85912 64.47503,-36.00288 26.6444,-34.14376 7.89116,-41.32124 24.03219,-60.95168 16.14103,-19.63044 187.30067,73.83516 65.65927,-88.48777 -22.30872,-29.76962 58.81458,-42.36134 88.92566,-58.1566 30.11108,-15.79526 56.80999,65.32805 86.15543,94.63512 29.34544,29.30708 40.07421,60.24102 60.46455,90.36794"
       sodipodi:nodetypes="cssssssssc" />
    <path
       style="font-variation-settings:normal;opacity:1;fill:none;fill-opacity:1;stroke:#005500;stroke-width:5;stroke-linecap:butt;stroke-linejoin:miter;stroke-miterlimit:4;stroke-dasharray:none;stroke-dashoffset:0;stroke-opacity:1;stop-color:#000000;stop-opacity:1"
       d="m 762.94232,393.78198 c 6.86067,9.71931 14.64347,18.78739 23.20981,27.04278 12.12579,11.68562 25.76069,21.69448 39.71381,31.12311 15.84441,10.70665 32.16008,20.71586 48.88394,29.98895"
       id="path7070"
       inkscape:path-effect="#path-effect7072"
       inkscape:original-d="m 762.94232,393.78198 c 7.7376,9.01526 15.47421,18.02952 23.20981,27.04278 7.7356,9.01326 26.47687,20.74974 39.71381,31.12311 13.23694,10.37338 32.59029,19.99364 48.88394,29.98895" />
    <path
       sodipodi:type="star"
       style="font-variation-settings:normal;opacity:1;vector-effect:none;fill:#005500;fill-opacity:1;stroke:none;stroke-width:5;stroke-linecap:butt;stroke-linejoin:miter;stroke-miterlimit:4;stroke-dasharray:none;stroke-dashoffset:0;stroke-opacity:1;-inkscape-stroke:none;stop-color:#000000;stop-opacity:1"
       id="path1484-6"
       inkscape:flatsided="false"
       sodipodi:sides="3"
       sodipodi:cx="844.16248"
       sodipodi:cy="511.72214"
       sodipodi:r1="28.611961"
       sodipodi:r2="14.305981"
       sodipodi:arg1="0.79031392"
       sodipodi:arg2="1.8375115"
       inkscape:rounded="0"
       inkscape:randomized="0"
       inkscape:transform-center-x="0.96523049"
       inkscape:transform-center-y="-6.3007751"
       transform="rotate(-11.412937,748.27512,308.82673)"
       d="m 864.29449,532.05306 -23.90256,-6.53077 -23.90256,-6.53078 17.6071,-17.43483 17.60709,-17.43484 6.29547,23.96561 z" />
    <text
       xml:space="preserve"
       style="font-size:21.3333px;line-height:1.25;font-family:Ubuntu;-inkscape-font-specification:'Ubuntu, Normal';font-variant-ligatures:none;text-align:center;text-anchor:middle;display:inline"
       x="769.70831"
       y="476.5564"
       id="text13999-6-6-9"><tspan
         sodipodi:role="line"
         x="769.70831"
         y="476.5564"
         style="font-style:normal;font-variant:normal;font-weight:500;font-stretch:normal;font-size:21.3333px;font-family:Ubuntu;-inkscape-font-specification:'Ubuntu Medium'"
         id="tspan2059-2">non-linear</tspan><tspan
         sodipodi:role="line"
         x="769.70831"
         y="503.22302"
         style="font-style:normal;font-variant:normal;font-weight:500;font-stretch:normal;font-size:21.3333px;font-family:Ubuntu;-inkscape-font-specification:'Ubuntu Medium'"
         id="tspan12124">extrapolation</tspan></text>
  </g>
  <g
     inkscape:groupmode="layer"
     id="layer2"
     inkscape:label="line"
     style="display:inline">
    <path
       style="fill:none;stroke:#ffb380;stroke-width:5;stroke-linecap:butt;stroke-linejoin:miter;stroke-miterlimit:4;stroke-dasharray:15, 5;stroke-dashoffset:0;stroke-opacity:1"
       d="m 153.73505,451.96884 48.68943,84.57315 51.04451,68.21851 207.55896,-249.35303 62.36481,-92.55069 90.33624,-47.38278 88.03931,87.92422 60.51351,90.0041"
       id="path21222"
       sodipodi:nodetypes="cccccccc" />
    <g
       id="g1630">
      <path
         style="font-variation-settings:normal;opacity:1;fill:none;fill-opacity:1;stroke:#ffb380;stroke-width:5;stroke-linecap:butt;stroke-linejoin:miter;stroke-miterlimit:4;stroke-dasharray:none;stroke-dashoffset:0;stroke-opacity:1;stop-color:#000000;stop-opacity:1"
         d="m 762.94232,393.78198 74.82433,111.45306"
         id="path1336"
         inkscape:path-effect="#path-effect1338"
         inkscape:original-d="m 762.94232,393.78198 c 24.94244,37.15202 49.88388,74.30304 74.82433,111.45306" />
      <path
         sodipodi:type="star"
         style="font-variation-settings:normal;opacity:1;fill:#ffb380;fill-opacity:1;stroke:none;stroke-width:5;stroke-linecap:butt;stroke-linejoin:miter;stroke-miterlimit:4;stroke-dasharray:none;stroke-dashoffset:0;stroke-opacity:1;stop-color:#000000;stop-opacity:1"
         id="path1484"
         inkscape:flatsided="false"
         sodipodi:sides="3"
         sodipodi:cx="844.16248"
         sodipodi:cy="511.72214"
         sodipodi:r1="28.611961"
         sodipodi:r2="14.305981"
         sodipodi:arg1="0.79031392"
         sodipodi:arg2="1.8375115"
         inkscape:rounded="0"
         inkscape:randomized="0"
         d="m 864.29449,532.05306 -23.90256,-6.53077 -23.90256,-6.53078 17.6071,-17.43483 17.60709,-17.43484 6.29547,23.96561 z"
         inkscape:transform-center-x="5.1498819"
         inkscape:transform-center-y="-2.2135226"
         transform="rotate(5.817381,844.16248,511.72214)" />
    </g>
    <text
       xml:space="preserve"
       style="font-size:21.3333px;line-height:1.25;font-family:Ubuntu;-inkscape-font-specification:'Ubuntu, Normal';font-variant-ligatures:none;text-align:center;text-anchor:middle;display:inline"
       x="824.96741"
       y="557.6546"
       id="text13999-6-6"><tspan
         sodipodi:role="line"
         id="tspan13997-9-7"
         x="824.96741"
         y="557.6546"
         style="font-style:normal;font-variant:normal;font-weight:500;font-stretch:normal;font-size:21.3333px;font-family:Ubuntu;-inkscape-font-specification:'Ubuntu Medium'">linear </tspan><tspan
         sodipodi:role="line"
         x="824.96741"
         y="584.32123"
         style="font-style:normal;font-variant:normal;font-weight:500;font-stretch:normal;font-size:21.3333px;font-family:Ubuntu;-inkscape-font-specification:'Ubuntu Medium'"
         id="tspan2059">extrapolation</tspan></text>
  </g>
  <g
     inkscape:label="Layer 1"
     inkscape:groupmode="layer"
     id="layer1"
     style="display:inline">
    <rect
       style="fill:none;stroke:#501616;stroke-width:4.15908;stroke-linejoin:round;stroke-opacity:0.979711;stop-color:#000000"
       id="rect10406"
       width="819.82819"
       height="567.25354"
       x="96.236427"
       y="136.34694" />
    <circle
       style="fill:#ffcc00;stroke:#008000;stroke-width:2.27102;stroke-linejoin:round;stroke-opacity:0.979711;stop-color:#000000"
       id="path10510"
       cx="153.73505"
       cy="451.96884"
       r="18.341862" />
    <circle
       style="fill:#ffcc00;stroke:#008000;stroke-width:2.27102;stroke-linejoin:round;stroke-opacity:0.979711;stop-color:#000000"
       id="path10510-3"
       cx="202.42448"
       cy="536.54199"
       r="18.341862" />
    <circle
       style="fill:#ffcc00;stroke:#008000;stroke-width:2.27102;stroke-linejoin:round;stroke-opacity:0.979711;stop-color:#000000"
       id="path10510-1"
       cx="253.46899"
       cy="604.7605"
       r="18.341862" />
    <circle
       style="fill:#ffcc00;stroke:#008000;stroke-width:2.27102;stroke-linejoin:round;stroke-opacity:0.979711;stop-color:#000000"
       id="path10510-10"
       cx="461.02795"
       cy="355.40747"
       r="18.341862" />
    <circle
       style="fill:#ffcc00;stroke:#008000;stroke-width:2.27102;stroke-linejoin:round;stroke-opacity:0.979711;stop-color:#000000"
       id="path10510-34"
       cx="523.39276"
       cy="262.85678"
       r="18.341862" />
    <circle
       style="fill:#ffcc00;stroke:#008000;stroke-width:2.27102;stroke-linejoin:round;stroke-opacity:0.979711;stop-color:#000000"
       id="path10510-0"
       cx="613.729"
       cy="215.474"
       r="18.341862" />
    <circle
       style="fill:#ffcc00;stroke:#008000;stroke-width:2.27102;stroke-linejoin:round;stroke-opacity:0.979711;stop-color:#000000"
       id="path10510-39"
       cx="701.76831"
       cy="303.39822"
       r="18.341862" />
    <circle
       style="fill:#ffcc00;stroke:#008000;stroke-width:2.27102;stroke-linejoin:round;stroke-opacity:0.979711;stop-color:#000000"
       id="path10510-19"
       cx="762.94232"
       cy="393.78198"
       r="18.341862" />
    <text
       xml:space="preserve"
       style="font-size:37.3333px;line-height:1.25;font-family:Ubuntu;-inkscape-font-specification:'Ubuntu, Normal';font-variant-ligatures:none;text-align:center;text-anchor:middle"
       x="500.56894"
       y="114.5181"
       id="text13999"><tspan
         sodipodi:role="line"
         id="tspan13997"
         x="500.56894"
         y="114.5181"
         style="font-style:normal;font-variant:normal;font-weight:bold;font-stretch:normal;font-size:37.3333px;font-family:Ubuntu;-inkscape-font-specification:'Ubuntu Bold'">Observation Data</tspan></text>
    <text
       xml:space="preserve"
       style="font-size:37.3333px;line-height:1.25;font-family:Ubuntu;-inkscape-font-specification:'Ubuntu, Normal';font-variant-ligatures:none;text-align:center;text-anchor:middle"
       x="506.15051"
       y="743.31732"
       id="text13999-6"><tspan
         sodipodi:role="line"
         id="tspan13997-9"
         x="506.15051"
         y="743.31732"
         style="font-style:normal;font-variant:normal;font-weight:bold;font-stretch:normal;font-size:37.3333px;font-family:Ubuntu;-inkscape-font-specification:'Ubuntu Bold'">x</tspan></text>
    <text
       xml:space="preserve"
       style="font-size:37.3333px;line-height:1.25;font-family:Ubuntu;-inkscape-font-specification:'Ubuntu, Normal';font-variant-ligatures:none;text-align:center;text-anchor:middle"
       x="66.329742"
       y="426.33902"
       id="text13999-6-3"><tspan
         sodipodi:role="line"
         id="tspan13997-9-8"
         x="66.329742"
         y="426.33902"
         style="font-style:normal;font-variant:normal;font-weight:bold;font-stretch:normal;font-size:37.3333px;font-family:Ubuntu;-inkscape-font-specification:'Ubuntu Bold'">y</tspan></text>
  </g>
  <g
     inkscape:groupmode="layer"
     id="layer3"
     inkscape:label="Layer 3"
     style="display:none">
    <path
       d="m 138.5077,460.56012 c 3.57387,3.51255 8.18887,8.65476 13.7217,16.5779 3.88472,5.56301 7.90483,12.0239 12.56559,20.24091 6.95926,12.26931 14.67089,27.87873 24.71118,44.82735 0.22333,0.37701 0.44797,0.75455 0.67389,1.13251 3.60482,6.03069 8.15636,13.21223 13.43585,20.16825 4.64241,6.11663 10.23294,12.57987 16.8731,18.3508 5.86966,5.1013 12.77909,9.85771 20.92906,13.40251 7.44882,3.23983 15.94343,5.47301 25.6717,6.04517 0.58463,0.0344 1.174,0.0531 1.75279,-0.0362 0.57878,-0.0893 1.13511,-0.28478 1.68218,-0.49379 16.81035,-6.42256 32.94856,-15.53159 48.68921,-27.41372 14.28504,-10.78332 27.76051,-23.47966 40.90844,-37.85376 24.80826,-27.12189 44.96477,-56.09685 67.5836,-86.39535 13.68048,-16.69045 24.92845,-34.98706 35.1806,-54.12167 10.08483,-18.82234 19.0407,-38.13264 28.38651,-57.25103 9.24224,-18.90654 18.72543,-37.32537 29.8282,-54.44249 10.95091,-16.883 23.37553,-32.33816 38.52862,-45.67616 8.71242,-4.98822 17.02169,-7.81348 24.93224,-8.98744 8.16877,-1.21227 16.10941,-0.69303 23.86009,1.21826 7.85202,1.93629 15.57462,5.31894 23.15036,9.85998 7.67498,4.60053 15.1413,10.35551 22.36112,16.90039 14.80171,13.41796 28.4105,30.01485 40.45048,46.30704 12.17624,16.47656 23.63377,33.9099 32.53672,46.86391 6.52481,12.62333 15.81652,26.04085 21.60717,34.94606 9.88616,15.20351 14.76789,24.67601 18.11931,34.1608 a 8.2648845,8.2648845 90 0 0 15.58542,-5.50706 c -3.95215,-11.18492 -9.58231,-21.87901 -19.84707,-37.66476 -6.32996,-9.73459 -14.97927,-22.19377 -21.0001,-33.95159 -0.16269,-0.31769 -0.34579,-0.62454 -0.54814,-0.91856 -8.6523,-12.57216 -20.62853,-30.79606 -33.15966,-47.75286 -12.31008,-16.65768 -26.6672,-34.24807 -42.64229,-48.72972 -7.82466,-7.09316 -16.15681,-13.55193 -24.96452,-18.83144 -8.70083,-5.21544 -17.94557,-9.32795 -27.69111,-11.73117 -9.67503,-2.38583 -19.78735,-3.07182 -30.24423,-1.51998 -10.37882,1.54026 -20.90105,5.2558 -31.51171,11.4516 -0.44964,0.26255 -0.87353,0.56706 -1.26588,0.90936 -16.85852,14.70813 -30.42464,31.6201 -42.12474,49.65811 -11.66752,17.9878 -21.50558,37.1432 -30.81066,56.17828 -9.54267,19.52112 -18.21483,38.2424 -28.10633,56.70389 -9.99411,18.65301 -20.70032,35.98783 -33.50796,51.588 -0.0805,0.098 -0.15869,0.1979 -0.23458,0.29953 -23.08431,30.91531 -42.52616,58.90766 -66.64842,85.27957 -12.63311,13.81128 -25.36841,25.77609 -38.6704,35.81734 -14.0901,10.63617 -28.32317,18.73449 -42.94066,24.50918 -6.97341,-0.59942 -13.00578,-2.27156 -18.30336,-4.57572 -6.31061,-2.74478 -11.81378,-6.4926 -16.67886,-10.72082 -5.52698,-4.80347 -10.35394,-10.34006 -14.54941,-15.86782 -4.76528,-6.27851 -8.9668,-12.88813 -12.41443,-18.65584 -0.21446,-0.35878 -0.42796,-0.7176 -0.64049,-1.07636 -9.55466,-16.12886 -17.33556,-31.82996 -24.55491,-44.55782 -4.83522,-8.52457 -9.13062,-15.44841 -13.39105,-21.54946 -6.10861,-8.74767 -11.3801,-14.66965 -15.68744,-18.90308 a 8.2648845,8.2648845 90 0 0 -11.58672,11.78902 z"
       id="path-1"
       inkscape:path-effect="#path-effect22110;#path-effect22112"
       inkscape:original-d="m 144.30106,454.66561 c 9.37502,7.1541 12.44196,19.6288 19.4482,29.11079 5.47389,7.40815 11.44328,14.50723 16.46644,22.48291 5.09996,8.09763 7.91045,17.32579 12.72588,25.5774 5.53438,9.48361 13.39109,18.62471 20.24972,27.04156 12.68224,15.56353 15.38056,24.39158 33.33234,34.82938 3.36406,1.95599 7.51731,0.12763 11.00537,0.12763 27.78804,0 47.25714,-17.3089 66.31332,-36.07342 22.11222,-21.77378 44.55266,-40.98451 63.08615,-66.28615 22.93767,-31.31415 46.39757,-63.06772 66.13667,-96.52567 30.35723,-51.45578 50.67326,-116.30135 94.23754,-158.53033 7.95273,-7.70896 25.46438,-14.36817 35.3849,-17.60046 25.37851,-8.26881 39.42467,4.73581 58.876,19.91428 31.47172,24.55835 59.40584,53.47252 80.80636,87.2885 8.104,12.80553 15.26133,26.18902 23.17773,39.11136 8.33031,13.598 24.85964,35.95751 28.89244,51.00338"
       style="fill:#000000;fill-rule:nonzero;stroke:none;stroke-width:1px;stroke-linecap:butt;stroke-linejoin:miter;stroke-opacity:1" />
  </g>
  <g
     inkscape:groupmode="layer"
     id="layer5"
     inkscape:label="miss"
     style="display:inline">
    <circle
       style="display:inline;fill:#00ccff;stroke:#00222b;stroke-width:2.27102;stroke-linejoin:round;stroke-opacity:0.979711;stop-color:#000000"
       id="path10510-19-0"
       cx="339.18454"
       cy="462.84747"
       r="18.341862" />
    <circle
       style="display:inline;fill:#00ccff;stroke:#00222b;stroke-width:2.27102;stroke-linejoin:round;stroke-opacity:0.979711;stop-color:#000000"
       id="path10510-19-0-6"
       cx="405.6937"
       cy="461.74847"
       r="18.341862" />
    <text
       xml:space="preserve"
       style="font-size:42.6667px;line-height:1.25;font-family:Ubuntu;-inkscape-font-specification:'Ubuntu, Normal';font-variant-ligatures:none;text-align:center;text-anchor:middle"
       x="362.15939"
       y="430.40247"
       id="text27657"><tspan
         sodipodi:role="line"
         id="tspan27655"
         x="362.15939"
         y="430.40247"
         style="font-style:normal;font-variant:normal;font-weight:bold;font-stretch:normal;font-size:42.6667px;font-family:Ubuntu;-inkscape-font-specification:'Ubuntu Bold'">?</tspan></text>
  </g>
  <g
     inkscape:groupmode="layer"
     id="layer10"
     inkscape:label="GPR 1">
    <path
       style="fill:#999999;stroke:#808080;stroke-width:5;stroke-linecap:butt;stroke-linejoin:miter;stroke-miterlimit:4;stroke-dasharray:none;stroke-opacity:1"
       d="m 1469.9953,547.15575 -73.3879,-45.74179"
       id="path25156"
       inkscape:path-effect="#path-effect25158"
       inkscape:original-d="m 1469.9953,547.15575 c -24.4507,-15.15624 -48.9241,-30.49366 -73.3879,-45.74179" />
    <path
       id="path16620"
       style="display:inline;fill:#ffccaa;stroke:#000000;stroke-width:0.996705px;stroke-linecap:butt;stroke-linejoin:miter;stroke-opacity:1"
       d="m 1540.5888,167.81671 c -7.025,0.16023 -14.0337,1.61341 -20.7414,3.78519 -8.9437,2.89569 -17.4295,7.04287 -25.8637,11.20906 -22.8639,11.2939 -46.4306,23.50035 -61.8401,43.91243 -12.3694,16.38504 -18.4441,36.77438 -30.0003,53.75038 -7.0168,10.30774 -15.9144,19.15185 -23.8555,28.75607 -7.9411,9.60423 -15.0956,20.34953 -17.6564,32.5764 -1.8035,8.61132 -1.2393,17.51717 -1.5367,26.31269 -0.2974,8.79553 -1.6068,17.941 -6.5872,25.17401 -3.6165,5.25227 -8.9763,9.14086 -14.8255,11.62509 -5.8491,2.48422 -12.1855,3.63023 -18.516,4.11136 -12.8075,0.97343 -25.7547,-0.70344 -38.4948,0.9375 -6.37,0.82048 -12.693,2.49445 -18.3277,5.59574 -5.6347,3.10131 -10.5608,7.6992 -13.4459,13.47471 -3.9057,7.81874 -3.8027,17.06859 -2.3866,25.70331 1.4162,8.63471 4.0493,17.06182 4.9361,25.76776 1.7568,17.24699 -3.4476,34.49114 -10.4988,50.30896 -4.5803,10.27466 -10.1803,20.45645 -18.8419,27.58418 -4.3308,3.56387 -9.3943,6.29283 -14.8489,7.54108 -5.4545,1.24823 -11.3062,0.96714 -16.4766,-1.18165 -4.8581,-2.01901 -8.9725,-5.61019 -12.1325,-9.83796 -3.1599,-4.22779 -5.4113,-9.08252 -7.175,-14.06651 -3.5274,-9.968 -5.201,-20.59451 -9.5907,-30.20921 -3.587,-7.85629 -8.8703,-14.7785 -13.9001,-21.78726 -5.0298,-7.00878 -9.9117,-14.30397 -12.5225,-22.54118 -3.6835,-11.62157 -2.5781,-24.21455 -4.837,-36.19948 -1.1295,-5.99246 -3.1566,-11.91862 -6.7832,-16.80481 -3.6266,-4.88621 -8.9954,-8.65387 -15.0021,-9.45514 -5.3925,-0.71937 -10.8638,0.96171 -15.6715,3.52346 -4.8077,2.56175 -9.0987,5.98377 -13.5799,9.08795 -5.1998,3.60194 -10.7009,6.80836 -15.4581,10.98446 -4.7571,4.1761 -8.81,9.51977 -10.0388,15.75206 -0.6677,3.38556 -0.4745,6.91476 0.3317,10.26961 0.8062,3.35484 2.2127,6.54308 3.9388,9.52546 3.4522,5.96472 8.1457,11.08361 12.4506,16.45714 13.4671,16.81005 23.2305,36.23975 34.0206,54.9047 11.1638,19.31131 23.4964,37.90824 35.5611,56.66252 5.0149,7.79549 10.0406,15.69083 16.6106,22.2111 6.5699,6.52026 14.9234,11.6412 24.1019,12.58212 8.9746,0.92001 17.9683,-2.22463 25.6851,-6.92779 7.717,-4.70316 14.39,-10.9162 21.2324,-16.8341 7.4605,-6.45253 15.1912,-12.60684 22.216,-19.53725 7.0248,-6.9304 13.3796,-14.71703 17.5303,-23.69354 3.6247,-7.83896 5.4766,-16.36791 8.1937,-24.57048 2.717,-8.20257 6.5132,-16.38232 13.056,-21.98454 4.1087,-3.51805 9.1187,-5.84595 14.2939,-7.377 5.175,-1.53105 10.5391,-2.29957 15.8907,-2.97853 10.7034,-1.35791 21.9096,-2.53933 30.9336,-8.49031 6.8668,-4.52839 11.8479,-11.46704 15.6347,-18.79896 3.7867,-7.33191 6.5201,-15.16154 9.8972,-22.69352 6.814,-15.19711 16.1891,-29.065 24.2455,-43.63313 9.645,-17.4406 17.3895,-35.86363 25.6329,-54.01797 6.0193,-13.25634 12.3505,-26.45346 20.6307,-38.41042 12.0326,-17.37549 27.8769,-31.70141 44.2031,-45.06283 14.6448,-11.98542 30.2147,-23.55036 48.2717,-29.08029 5.7413,-1.75823 11.7078,-2.88526 17.7088,-2.86916 6.0011,0.0161 12.0454,1.20116 17.4255,3.87698 6.2164,3.09168 11.3761,8.08812 15.332,13.82041 3.9557,5.73229 6.764,12.19579 9.0105,18.79897 4.4931,13.20635 6.8644,27.20612 12.9999,39.72489 10.0305,20.4663 29.2458,35.2272 39.2165,55.72306 8.0736,16.59628 9.4372,35.56703 14.0126,53.46328 9.8695,38.60407 34.8392,71.94427 64.6961,98.1296 29.8569,26.18533 64.6161,45.96844 99.2269,65.33641 6.3959,3.57912 12.9522,7.20692 20.1671,8.43756 0.3754,0.0641 0.7609,0.0377 1.1389,0.0879 V 368.01932 c -1.9376,-1.64433 -3.9426,-3.21111 -6.0769,-4.61136 -12.0374,-7.8974 -26.5517,-11.30803 -40.9065,-11.93368 -14.355,-0.62565 -28.6839,1.3881 -42.8856,3.58401 -8.951,1.38402 -17.9255,2.84546 -26.9794,3.04104 -9.0538,0.19558 -18.2608,-0.92098 -26.5854,-4.5098 -10.8348,-4.67096 -19.7882,-13.53717 -24.7675,-24.29119 -3.1475,-6.79764 -4.7283,-14.20005 -6.593,-21.46109 -1.8647,-7.26105 -4.0961,-14.57896 -8.3354,-20.74624 -4.4677,-6.49966 -10.903,-11.34092 -17.4352,-15.72668 -6.5322,-4.38576 -13.3359,-8.48085 -19.0087,-13.94541 -11.3517,-10.93468 -17.1504,-26.2635 -24.3774,-40.30693 -6.0534,-11.76287 -13.4039,-23.01719 -23.0834,-31.99242 -9.6795,-8.97524 -21.861,-15.57988 -34.944,-17.01184 -2.3351,-0.25557 -4.6782,-0.34443 -7.0199,-0.29102 z" />
    <path
       id="path16620-6"
       style="display:inline;fill:#ffccaa;stroke:#000000;stroke-width:1px;stroke-linecap:butt;stroke-linejoin:miter;stroke-opacity:1"
       d="M 1615.9844 -784.67188 C 1608.9128 -784.5116 1601.8577 -783.05651 1595.1055 -780.88477 C 1586.1025 -777.98911 1577.5604 -773.84192 1569.0703 -769.67578 C 1546.0549 -758.38202 1522.3319 -746.17757 1506.8203 -725.76562 C 1494.3689 -709.38068 1488.2539 -688.9915 1476.6211 -672.01562 C 1469.5577 -661.70797 1460.6011 -652.86392 1452.6074 -643.25977 C 1444.6137 -633.65561 1437.4117 -622.91039 1434.834 -610.68359 C 1433.0185 -602.07234 1433.5864 -593.16655 1433.2871 -584.37109 C 1432.9878 -575.57564 1431.6696 -566.42827 1426.6562 -559.19531 C 1423.0158 -553.94308 1417.6203 -550.05647 1411.7324 -547.57227 C 1405.8445 -545.08806 1399.4661 -543.94011 1393.0938 -543.45898 C 1380.2013 -542.48559 1367.1683 -544.16437 1354.3438 -542.52344 C 1347.9315 -541.70297 1341.5666 -540.02901 1335.8945 -536.92773 C 1330.2225 -533.82646 1325.2636 -529.22664 1322.3594 -523.45117 C 1318.4278 -515.63249 1318.5315 -506.38465 1319.957 -497.75 C 1321.3826 -489.11535 1324.0331 -480.6883 1324.9258 -471.98242 C 1326.6943 -454.73557 1321.4554 -437.48958 1314.3574 -421.67188 C 1309.7468 -411.3973 1304.1096 -401.21753 1295.3906 -394.08984 C 1291.0311 -390.526 1285.9341 -387.79706 1280.4434 -386.54883 C 1274.9526 -385.30059 1269.0621 -385.58169 1263.8574 -387.73047 C 1258.9671 -389.74946 1254.8254 -393.34062 1251.6445 -397.56836 C 1248.4637 -401.7961 1246.1973 -406.64885 1244.4219 -411.63281 C 1240.8711 -421.60073 1239.1864 -432.22912 1234.7676 -441.84375 C 1231.1569 -449.69998 1225.8385 -456.62214 1220.7754 -463.63086 C 1215.7123 -470.63958 1210.798 -477.93277 1208.1699 -486.16992 C 1204.462 -497.79141 1205.5747 -510.38625 1203.3008 -522.37109 C 1202.1638 -528.36352 1200.1233 -534.28961 1196.4727 -539.17578 C 1192.822 -544.06195 1187.4176 -547.82764 1181.3711 -548.62891 C 1175.9428 -549.34826 1170.4353 -547.66915 1165.5957 -545.10742 C 1160.7561 -542.54569 1156.4367 -539.12369 1151.9258 -536.01953 C 1146.6915 -532.41762 1141.1539 -529.21123 1136.3652 -525.03516 C 1131.5765 -520.85908 1127.4968 -515.5135 1126.2598 -509.28125 C 1125.5878 -505.89572 1125.7842 -502.36849 1126.5957 -499.01367 C 1127.4072 -495.65885 1128.8211 -492.47062 1130.5586 -489.48828 C 1134.0336 -483.5236 1138.7583 -478.40475 1143.0918 -473.03125 C 1156.6482 -456.22132 1166.4763 -436.78981 1177.3379 -418.125 C 1188.5757 -398.81383 1200.9902 -380.21898 1213.1348 -361.46484 C 1218.1829 -353.66941 1223.2419 -345.77218 1229.8555 -339.25195 C 1236.469 -332.73173 1244.8778 -327.61083 1254.1172 -326.66992 C 1263.1513 -325.74992 1272.2046 -328.89453 1279.9727 -333.59766 C 1287.7407 -338.30079 1294.458 -344.51574 1301.3457 -350.43359 C 1308.8557 -356.88607 1316.6376 -363.04035 1323.709 -369.9707 C 1330.7804 -376.90106 1337.1772 -384.68763 1341.3555 -393.66406 C 1345.0042 -401.50298 1346.8684 -410.03186 1349.6035 -418.23438 C 1352.3386 -426.43689 1356.1599 -434.61657 1362.7461 -440.21875 C 1366.882 -443.73677 1371.9253 -446.06466 1377.1348 -447.5957 C 1382.3442 -449.12674 1387.7437 -449.89331 1393.1309 -450.57227 C 1403.9052 -451.93017 1415.1857 -453.11157 1424.2695 -459.0625 C 1431.1819 -463.59086 1436.1959 -470.53141 1440.0078 -477.86328 C 1443.8197 -485.19515 1446.5712 -493.02471 1449.9707 -500.55664 C 1456.8298 -515.75365 1466.2671 -529.62144 1474.377 -544.18945 C 1484.0858 -561.62992 1491.8818 -580.05278 1500.1797 -598.20703 C 1506.2389 -611.46331 1512.6119 -624.66045 1520.9473 -636.61719 C 1533.06 -653.9923 1549.0101 -668.3171 1565.4434 -681.67969 C 1580.1845 -693.66634 1595.8566 -705.23493 1614.0352 -710.75977 C 1619.8145 -712.51622 1625.821 -713.63996 1631.8613 -713.62305 C 1637.9016 -713.60613 1643.9846 -712.42091 1649.4023 -709.75 C 1655.6637 -706.66318 1660.8652 -701.676 1664.8574 -695.94922 C 1668.8496 -690.22244 1671.6887 -683.76231 1673.957 -677.16016 C 1678.4936 -663.95584 1680.8735 -649.95795 1686.9922 -637.4082 C 1696.9917 -616.89864 1716.0971 -602.00946 1726.4688 -581.68555 C 1734.8778 -565.20755 1736.9618 -546.36616 1740.5742 -528.22266 C 1751.3154 -474.27461 1776.4304 -424.18114 1805.668 -377.58789 C 1813.5658 -365.00182 1821.8373 -352.54612 1832.0176 -341.72266 C 1842.1978 -330.89919 1854.4362 -321.70082 1868.4727 -316.82617 C 1871.9361 -315.62336 1875.5173 -314.70896 1879.1484 -314.09766 L 1879.1484 -602.57031 C 1864.8363 -602.73766 1850.6643 -599.95136 1836.5664 -597.43164 C 1827.5813 -595.82573 1818.5344 -594.33625 1809.4082 -594.18359 C 1800.282 -594.03093 1791.0169 -595.25876 1782.6465 -598.89844 C 1771.7707 -603.62751 1762.743 -612.45061 1757.7148 -623.19141 C 1754.5352 -629.98363 1752.9432 -637.38693 1751.0684 -644.64844 C 1749.1935 -651.90994 1746.952 -659.22731 1742.6875 -665.39648 C 1738.1931 -671.89829 1731.7146 -676.74365 1725.1387 -681.12891 C 1718.5627 -685.51416 1711.7133 -689.60446 1706.002 -695.06836 C 1694.5736 -706.00159 1688.7373 -721.33326 1681.4629 -735.37695 C 1675.3698 -747.14002 1667.9704 -758.39205 1658.2266 -767.36719 C 1648.4827 -776.34232 1636.2206 -782.94708 1623.0508 -784.37891 C 1620.7003 -784.63445 1618.3416 -784.7253 1615.9844 -784.67188 z " />
    <path
       style="font-variation-settings:normal;opacity:1;fill:none;fill-opacity:1;stroke:#ff5555;stroke-width:5;stroke-linecap:butt;stroke-linejoin:miter;stroke-miterlimit:4;stroke-dasharray:none;stroke-dashoffset:0;stroke-opacity:1;stop-color:#000000;stop-opacity:1"
       d="m 1698.947,384.76816 c 7.3631,10.28108 15.4015,20.07841 24.0462,29.3079 5.1145,5.46047 10.4848,10.75845 16.7087,14.91032 6.2239,4.15188 13.3874,7.13096 20.8581,7.53555 6.2423,0.33807 12.4892,-1.13002 18.2505,-3.55658 5.7613,-2.42657 11.079,-5.79159 16.2036,-9.37195 9.2182,-6.44041 17.9554,-13.67517 25.2489,-22.2343 6.8341,-8.01998 12.3485,-17.16191 16.255,-26.94785"
       id="path19103"
       inkscape:path-effect="#path-effect19105"
       inkscape:original-d="m 1698.947,384.76816 c 8.9692,8.50439 15.0791,20.80551 24.0462,29.3079 8.9672,8.50239 29.626,16.00924 37.5668,22.44587 7.9407,6.43663 23.4242,-10.2493 34.4541,-12.92853 11.0299,-2.67923 15.5743,-15.39693 25.2489,-22.2343 9.6745,-6.83738 9.754,-19.90165 16.255,-26.94785"
       sodipodi:nodetypes="cssssc" />
    <path
       sodipodi:type="star"
       style="font-variation-settings:normal;display:inline;opacity:1;vector-effect:none;fill:#ff5555;fill-opacity:1;stroke:none;stroke-width:5;stroke-linecap:butt;stroke-linejoin:miter;stroke-miterlimit:4;stroke-dasharray:none;stroke-dashoffset:0;stroke-opacity:1;-inkscape-stroke:none;stop-color:#000000;stop-opacity:1"
       id="path1484-6-8"
       inkscape:flatsided="false"
       sodipodi:sides="3"
       sodipodi:cx="844.16248"
       sodipodi:cy="511.72214"
       sodipodi:r1="28.611961"
       sodipodi:r2="14.305981"
       sodipodi:arg1="0.79031392"
       sodipodi:arg2="1.8375115"
       inkscape:rounded="0"
       inkscape:randomized="0"
       inkscape:transform-center-x="7.0543996"
       inkscape:transform-center-y="0.1136103"
       transform="rotate(15.173374,1814.6682,4150.8311)"
       d="m 864.29449,532.05306 -23.90256,-6.53077 -23.90256,-6.53078 17.6071,-17.43483 17.60709,-17.43484 6.29547,23.96561 z" />
    <path
       sodipodi:type="star"
       style="font-variation-settings:normal;display:inline;opacity:1;vector-effect:none;fill:#999999;fill-opacity:1;stroke:none;stroke-width:5;stroke-linecap:butt;stroke-linejoin:miter;stroke-miterlimit:4;stroke-dasharray:none;stroke-dashoffset:0;stroke-opacity:1;-inkscape-stroke:none;stop-color:#000000;stop-opacity:1"
       id="path1484-6-8-0"
       inkscape:flatsided="false"
       sodipodi:sides="3"
       sodipodi:cx="844.16248"
       sodipodi:cy="511.72214"
       sodipodi:r1="28.611961"
       sodipodi:r2="14.305981"
       sodipodi:arg1="0.79031392"
       sodipodi:arg2="1.8375115"
       inkscape:rounded="0"
       inkscape:randomized="0"
       inkscape:transform-center-x="-1.2715268"
       inkscape:transform-center-y="6.0234738"
       transform="rotate(49.817539,1133.417,1087.9333)"
       d="m 864.29449,532.05306 -23.90256,-6.53077 -23.90256,-6.53078 17.6071,-17.43483 17.60709,-17.43484 6.29547,23.96561 z" />
    <text
       xml:space="preserve"
       style="font-size:21.3333px;line-height:1.25;font-family:Ubuntu;-inkscape-font-specification:'Ubuntu, Normal';font-variant-ligatures:none;text-align:center;text-anchor:middle;display:inline"
       x="1525.9398"
       y="583.6532"
       id="text13999-6-6-4"><tspan
         sodipodi:role="line"
         x="1525.9398"
         y="583.6532"
         style="font-style:normal;font-variant:normal;font-weight:500;font-stretch:normal;font-size:21.3333px;font-family:Ubuntu;-inkscape-font-specification:'Ubuntu Medium'"
         id="tspan22252">regression with </tspan><tspan
         sodipodi:role="line"
         x="1525.9398"
         y="610.31982"
         style="font-style:normal;font-variant:normal;font-weight:500;font-stretch:normal;font-size:21.3333px;font-family:Ubuntu;-inkscape-font-specification:'Ubuntu Medium'"
         id="tspan25041">upper/lower boundaries</tspan></text>
    <text
       xml:space="preserve"
       style="font-size:21.3333px;line-height:1.25;font-family:Ubuntu;-inkscape-font-specification:'Ubuntu, Normal';font-variant-ligatures:none;text-align:center;text-anchor:middle;display:inline"
       x="1759.2816"
       y="449.2807"
       id="text13999-6-6-4-4"><tspan
         sodipodi:role="line"
         x="1759.2816"
         y="449.2807"
         style="font-style:normal;font-variant:normal;font-weight:500;font-stretch:normal;font-size:21.3333px;font-family:Ubuntu;-inkscape-font-specification:'Ubuntu Medium'"
         id="tspan2059-1-9">prediction with</tspan><tspan
         sodipodi:role="line"
         x="1759.2816"
         y="475.94733"
         style="font-style:normal;font-variant:normal;font-weight:500;font-stretch:normal;font-size:21.3333px;font-family:Ubuntu;-inkscape-font-specification:'Ubuntu Medium'"
         id="tspan22252-2"> historical cycle</tspan></text>
    <text
       xml:space="preserve"
       id="text20442"
       style="line-height:1.25;font-family:Ubuntu;font-size:24px;-inkscape-font-specification:'Ubuntu, Normal';text-align:center;font-variant-ligatures:none;white-space:pre;shape-inside:url(#rect20444)" />
  </g>
  <g
     inkscape:groupmode="layer"
     id="layer6"
     inkscape:label="GPR"
     style="display:inline">
    <path
       style="display:inline;fill:none;stroke:#ff5555;stroke-width:5;stroke-linecap:butt;stroke-linejoin:miter;stroke-miterlimit:4;stroke-dasharray:15, 5;stroke-dashoffset:0;stroke-opacity:1"
       d="m 1089.7397,442.95502 c 14.7992,27.87717 28.5585,56.3064 41.2396,85.2087 6.4699,14.74587 12.7671,29.80128 22.6291,42.53083 4.9309,6.36478 10.7446,12.1012 17.4968,16.48675 6.7522,4.38555 14.4692,7.39261 22.4815,8.18466 8.4246,0.8328 17.0168,-0.80734 24.7553,-4.23984 7.7385,-3.4325 14.639,-8.61854 20.4621,-14.76331 11.6462,-12.28954 18.8587,-28.10656 24.3878,-44.10954 5.5292,-16.00299 9.595,-32.52303 16.0595,-48.17161 6.4644,-15.64858 15.6433,-30.6899 29.2739,-40.73345 9.9752,-7.35007 21.7969,-11.65735 33.2237,-16.44831 11.4269,-4.79097 22.9269,-10.37689 31.2514,-19.55457 7.4036,-8.16238 11.776,-18.62082 14.969,-29.16799 3.1929,-10.54716 5.35,-21.40826 9.0632,-31.78369 12.4662,-34.83283 40.9828,-60.92313 65.6592,-88.48777 12.2638,-13.69924 23.8825,-28.17355 38.2948,-39.59089 7.2061,-5.70867 15.0988,-10.62144 23.6553,-13.98357 8.5565,-3.36212 17.7995,-5.14552 26.9756,-4.58214 11.222,0.68899 22.0804,4.88565 31.4127,11.15583 9.3323,6.27018 17.1949,14.55886 23.7777,23.6734 13.1656,18.22908 21.2288,39.53676 30.965,59.80589 15.7456,32.77984 36.1713,63.30728 60.4646,90.36794"
       id="path22230-5"
       sodipodi:nodetypes="cssssssssc"
       inkscape:original-d="m 1089.7397,442.95502 c 16.2308,28.19205 37.3318,52.91656 41.2396,85.2087 5.3094,43.87498 45.5935,44.46375 62.6074,67.20224 17.0138,22.7385 216.4998,-115.15535 114.9386,-152.01775 -56.7066,-20.58213 37.8307,-1.85912 64.4751,-36.00288 26.6444,-34.14376 7.8911,-41.32124 24.0322,-60.95168 16.141,-19.63044 187.3006,73.83516 65.6592,-88.48777 -22.3087,-29.76962 58.8146,-42.36134 88.9257,-58.1566 30.1111,-15.79526 56.81,65.32805 86.1554,94.63512 29.3455,29.30708 40.0742,60.24102 60.4646,90.36794"
       inkscape:path-effect="#path-effect13211" />
    <rect
       style="display:inline;fill:none;stroke:#501616;stroke-width:4.15908;stroke-linejoin:round;stroke-opacity:0.979711;stop-color:#000000"
       id="rect10406-5"
       width="819.82819"
       height="567.25354"
       x="1032.2411"
       y="127.33311" />
    <circle
       style="display:inline;fill:#ffcc00;stroke:#008000;stroke-width:2.27102;stroke-linejoin:round;stroke-opacity:0.979711;stop-color:#000000"
       id="path10510-4"
       cx="1089.7396"
       cy="442.95502"
       r="18.341862" />
    <circle
       style="display:inline;fill:#ffcc00;stroke:#008000;stroke-width:2.27102;stroke-linejoin:round;stroke-opacity:0.979711;stop-color:#000000"
       id="path10510-3-7"
       cx="1138.4291"
       cy="527.5282"
       r="18.341862" />
    <circle
       style="display:inline;fill:#ffcc00;stroke:#008000;stroke-width:2.27102;stroke-linejoin:round;stroke-opacity:0.979711;stop-color:#000000"
       id="path10510-1-6"
       cx="1189.4736"
       cy="595.7467"
       r="18.341862" />
    <circle
       style="display:inline;fill:#ffcc00;stroke:#008000;stroke-width:2.27102;stroke-linejoin:round;stroke-opacity:0.979711;stop-color:#000000"
       id="path10510-10-5"
       cx="1397.0325"
       cy="346.39365"
       r="18.341862" />
    <circle
       style="display:inline;fill:#ffcc00;stroke:#008000;stroke-width:2.27102;stroke-linejoin:round;stroke-opacity:0.979711;stop-color:#000000"
       id="path10510-34-6"
       cx="1459.3975"
       cy="253.84296"
       r="18.341862" />
    <circle
       style="display:inline;fill:#ffcc00;stroke:#008000;stroke-width:2.27102;stroke-linejoin:round;stroke-opacity:0.979711;stop-color:#000000"
       id="path10510-0-9"
       cx="1549.7336"
       cy="206.46017"
       r="18.341862" />
    <circle
       style="display:inline;fill:#ffcc00;stroke:#008000;stroke-width:2.27102;stroke-linejoin:round;stroke-opacity:0.979711;stop-color:#000000"
       id="path10510-39-3"
       cx="1637.7729"
       cy="294.3844"
       r="18.341862" />
    <circle
       style="display:inline;fill:#ffcc00;stroke:#008000;stroke-width:2.27102;stroke-linejoin:round;stroke-opacity:0.979711;stop-color:#000000"
       id="path10510-19-7"
       cx="1698.947"
       cy="384.76816"
       r="18.341862" />
    <text
       xml:space="preserve"
       style="font-size:37.3333px;line-height:1.25;font-family:Ubuntu;-inkscape-font-specification:'Ubuntu, Normal';font-variant-ligatures:none;text-align:center;text-anchor:middle;display:inline"
       x="1436.5735"
       y="105.50427"
       id="text13999-4"><tspan
         sodipodi:role="line"
         id="tspan13997-5"
         x="1436.5735"
         y="105.50427"
         style="font-style:normal;font-variant:normal;font-weight:bold;font-stretch:normal;font-size:37.3333px;font-family:Ubuntu;-inkscape-font-specification:'Ubuntu Bold'">Observation Data</tspan></text>
    <text
       xml:space="preserve"
       style="font-size:37.3333px;line-height:1.25;font-family:Ubuntu;-inkscape-font-specification:'Ubuntu, Normal';font-variant-ligatures:none;text-align:center;text-anchor:middle;display:inline"
       x="1442.155"
       y="734.30347"
       id="text13999-6-2"><tspan
         sodipodi:role="line"
         id="tspan13997-9-5"
         x="1442.155"
         y="734.30347"
         style="font-style:normal;font-variant:normal;font-weight:bold;font-stretch:normal;font-size:37.3333px;font-family:Ubuntu;-inkscape-font-specification:'Ubuntu Bold'">x</tspan></text>
    <text
       xml:space="preserve"
       style="font-size:37.3333px;line-height:1.25;font-family:Ubuntu;-inkscape-font-specification:'Ubuntu, Normal';font-variant-ligatures:none;text-align:center;text-anchor:middle;display:inline"
       x="1002.3344"
       y="417.3252"
       id="text13999-6-3-4"><tspan
         sodipodi:role="line"
         id="tspan13997-9-8-7"
         x="1002.3344"
         y="417.3252"
         style="font-style:normal;font-variant:normal;font-weight:bold;font-stretch:normal;font-size:37.3333px;font-family:Ubuntu;-inkscape-font-specification:'Ubuntu Bold'">y</tspan></text>
    <circle
       style="display:inline;fill:#00ccff;stroke:#00222b;stroke-width:2.27102;stroke-linejoin:round;stroke-opacity:0.979711;stop-color:#000000"
       id="path10510-19-0-4"
       cx="1275.1892"
       cy="453.83365"
       r="18.341862" />
    <circle
       style="display:inline;fill:#00ccff;stroke:#00222b;stroke-width:2.27102;stroke-linejoin:round;stroke-opacity:0.979711;stop-color:#000000"
       id="path10510-19-0-6-4"
       cx="1341.6984"
       cy="452.73465"
       r="18.341862" />
  </g>
</svg>
