<?xml version="1.0" encoding="UTF-8" standalone="no"?>
<!-- Created with Inkscape (http://www.inkscape.org/) -->

<svg
   width="1920px"
   height="1080px"
   viewBox="0 0 1920 1080"
   version="1.1"
   id="SVGRoot"
   sodipodi:docname="intro.svg"
   inkscape:version="1.1 (ce6663b3b7, 2021-05-25)"
   xmlns:inkscape="http://www.inkscape.org/namespaces/inkscape"
   xmlns:sodipodi="http://sodipodi.sourceforge.net/DTD/sodipodi-0.dtd"
   xmlns="http://www.w3.org/2000/svg"
   xmlns:svg="http://www.w3.org/2000/svg">
  <sodipodi:namedview
     id="namedview884"
     pagecolor="#505050"
     bordercolor="#eeeeee"
     borderopacity="1"
     inkscape:pageshadow="0"
     inkscape:pageopacity="0"
     inkscape:pagecheckerboard="0"
     inkscape:document-units="px"
     showgrid="false"
     inkscape:zoom="1.079811"
     inkscape:cx="1187.2448"
     inkscape:cy="422.75918"
     inkscape:window-width="2192"
     inkscape:window-height="1162"
     inkscape:window-x="0"
     inkscape:window-y="34"
     inkscape:window-maximized="1"
     inkscape:current-layer="layer6"
     inkscape:snap-bbox="true"
     inkscape:snap-bbox-midpoints="true"
     inkscape:snap-page="true"
     inkscape:snap-midpoints="true"
     inkscape:snap-bbox-edge-midpoints="true"
     inkscape:snap-intersection-paths="false"
     inkscape:object-nodes="false"
     inkscape:snap-center="true" />
  <defs
     id="defs879">
    <inkscape:path-effect
       effect="spiro"
       id="path-effect31899"
       is_visible="true"
       lpeversion="1" />
    <inkscape:path-effect
       effect="spiro"
       id="path-effect31518"
       is_visible="true"
       lpeversion="1" />
    <inkscape:path-effect
       effect="spiro"
       id="path-effect22232"
       is_visible="true"
       lpeversion="1" />
    <inkscape:path-effect
       effect="powerstroke"
       id="path-effect22112"
       is_visible="true"
       lpeversion="1"
       offset_points="0.50638325,8.2648845"
       not_jump="true"
       sort_points="true"
       interpolator_type="CentripetalCatmullRom"
       interpolator_beta="0.75"
       start_linecap_type="round"
       linejoin_type="spiro"
       miter_limit="4"
       scale_width="1"
       end_linecap_type="round" />
    <inkscape:path-effect
       effect="simplify"
       id="path-effect22110"
       is_visible="true"
       lpeversion="1"
       steps="1"
       threshold="0.0056285178"
       smooth_angles="0"
       helper_size="0"
       simplify_individual_paths="false"
       simplify_just_coalesce="false"
       step="1" />
    <inkscape:path-effect
       effect="spiro"
       id="path-effect21412"
       is_visible="true"
       lpeversion="1" />
    <inkscape:path-effect
       effect="powerstroke"
       id="path-effect20928"
       is_visible="true"
       lpeversion="1"
       offset_points="0,18.8679"
       not_jump="false"
       sort_points="true"
       interpolator_type="CubicBezierJohan"
       interpolator_beta="0.2"
       start_linecap_type="zerowidth"
       linejoin_type="extrp_arc"
       miter_limit="4"
       scale_width="1"
       end_linecap_type="zerowidth" />
    <inkscape:path-effect
       effect="spiro"
       id="path-effect19960"
       is_visible="true"
       lpeversion="1" />
    <inkscape:path-effect
       effect="spiro"
       id="path-effect19843"
       is_visible="true"
       lpeversion="1" />
  </defs>
  <g
     inkscape:groupmode="layer"
     id="layer4"
     inkscape:label="curve"
     style="display:inline">
    <path
       style="fill:none;stroke:#005500;stroke-width:5;stroke-linecap:butt;stroke-linejoin:miter;stroke-miterlimit:4;stroke-dasharray:15, 5;stroke-dashoffset:0;stroke-opacity:1"
       d="m 153.73505,451.96884 c 14.79923,27.87717 28.55851,56.3064 41.23963,85.2087 6.46986,14.74586 12.76711,29.80126 22.62906,42.53081 4.93098,6.36477 10.74465,12.10119 17.49682,16.48675 6.75217,4.38555 14.46917,7.39262 22.4815,8.18468 8.42456,0.83281 17.0168,-0.80731 24.75533,-4.23979 7.73852,-3.43248 14.63904,-8.61851 20.46215,-14.76327 11.64623,-12.28952 18.85877,-28.10653 24.38793,-44.10951 5.52915,-16.00298 9.59503,-32.52302 16.05944,-48.17161 6.46441,-15.64859 15.64325,-30.68994 29.27382,-40.73357 9.9751,-7.35011 21.79675,-11.65748 33.22361,-16.44847 11.42686,-4.79099 22.9268,-10.37686 31.25142,-19.55441 7.40371,-8.16229 11.77642,-18.62063 14.96945,-29.16779 3.19303,-10.54716 5.35001,-21.40827 9.06274,-31.78389 12.46461,-34.8337 40.97631,-60.92866 65.65927,-88.48777 12.26575,-13.69501 23.88935,-28.1624 38.30197,-39.57635 7.20631,-5.70698 15.09802,-10.61904 23.65278,-13.98304 8.55476,-3.36401 17.79525,-5.15204 26.97091,-4.59721 11.22622,0.67882 22.09299,4.86288 31.43582,11.1239 9.34283,6.26102 17.21754,14.54399 23.80784,23.65755 13.1806,18.2271 21.238,39.54668 30.91177,59.85367 35.48548,74.49041 94.81699,137.39558 167.10707,177.17226"
       id="path22230"
       inkscape:path-effect="#path-effect22232"
       inkscape:original-d="m 153.73505,451.96884 c 16.23081,28.19205 37.33186,52.91656 41.23963,85.2087 5.30943,43.87498 45.59354,44.46375 62.60738,67.20224 17.01384,22.7385 216.49983,-115.15535 114.93867,-152.01775 -56.70667,-20.58213 37.83064,-1.85912 64.47503,-36.00288 26.6444,-34.14376 7.89116,-41.32124 24.03219,-60.95168 16.14103,-19.63044 187.30067,73.83516 65.65927,-88.48777 -22.30872,-29.76962 58.81458,-42.36134 88.92566,-58.1566 30.11108,-15.79526 56.80999,65.32805 86.15543,94.63512 29.34544,29.30708 146.71673,147.04534 167.10707,177.17226"
       sodipodi:nodetypes="cssssssssc" />
  </g>
  <g
     inkscape:groupmode="layer"
     id="layer2"
     inkscape:label="line"
     style="display:inline">
    <path
       style="fill:none;stroke:#ffb380;stroke-width:5;stroke-linecap:butt;stroke-linejoin:miter;stroke-miterlimit:4;stroke-dasharray:15, 5;stroke-dashoffset:0;stroke-opacity:1"
       d="m 153.73505,451.96884 48.68943,84.57315 51.04451,68.21851 L 461.02795,355.40747 523.39276,262.85678 613.729,215.474 701.76831,303.39822 816.064,471.29648"
       id="path21222"
       sodipodi:nodetypes="cccccccc" />
  </g>
  <g
     inkscape:label="Layer 1"
     inkscape:groupmode="layer"
     id="layer1"
     style="display:inline">
    <rect
       style="fill:none;stroke:#501616;stroke-width:5;stroke-linejoin:round;stroke-opacity:0.979711;stop-color:#000000"
       id="rect10406"
       width="819.82819"
       height="819.82819"
       x="96.236427"
       y="136.34694" />
    <circle
       style="fill:#ffcc00;stroke:#008000;stroke-width:2.27102;stroke-linejoin:round;stroke-opacity:0.979711;stop-color:#000000"
       id="path10510"
       cx="153.73505"
       cy="451.96884"
       r="18.341862" />
    <circle
       style="fill:#ffcc00;stroke:#008000;stroke-width:2.27102;stroke-linejoin:round;stroke-opacity:0.979711;stop-color:#000000"
       id="path10510-3"
       cx="202.42448"
       cy="536.54199"
       r="18.341862" />
    <circle
       style="fill:#ffcc00;stroke:#008000;stroke-width:2.27102;stroke-linejoin:round;stroke-opacity:0.979711;stop-color:#000000"
       id="path10510-1"
       cx="253.46899"
       cy="604.7605"
       r="18.341862" />
    <circle
       style="fill:#ffcc00;stroke:#008000;stroke-width:2.27102;stroke-linejoin:round;stroke-opacity:0.979711;stop-color:#000000"
       id="path10510-10"
       cx="461.02795"
       cy="355.40747"
       r="18.341862" />
    <circle
       style="fill:#ffcc00;stroke:#008000;stroke-width:2.27102;stroke-linejoin:round;stroke-opacity:0.979711;stop-color:#000000"
       id="path10510-34"
       cx="523.39276"
       cy="262.85678"
       r="18.341862" />
    <circle
       style="fill:#ffcc00;stroke:#008000;stroke-width:2.27102;stroke-linejoin:round;stroke-opacity:0.979711;stop-color:#000000"
       id="path10510-0"
       cx="613.729"
       cy="215.474"
       r="18.341862" />
    <circle
       style="fill:#ffcc00;stroke:#008000;stroke-width:2.27102;stroke-linejoin:round;stroke-opacity:0.979711;stop-color:#000000"
       id="path10510-39"
       cx="701.76831"
       cy="303.39822"
       r="18.341862" />
    <circle
       style="fill:#ffcc00;stroke:#008000;stroke-width:2.27102;stroke-linejoin:round;stroke-opacity:0.979711;stop-color:#000000"
       id="path10510-19"
       cx="762.94232"
       cy="393.78198"
       r="18.341862" />
    <text
       xml:space="preserve"
       style="font-size:37.3333px;line-height:1.25;font-family:Ubuntu;-inkscape-font-specification:'Ubuntu, Normal';font-variant-ligatures:none;text-align:center;text-anchor:middle"
       x="500.56894"
       y="114.5181"
       id="text13999"><tspan
         sodipodi:role="line"
         id="tspan13997"
         x="500.56894"
         y="114.5181"
         style="font-style:normal;font-variant:normal;font-weight:bold;font-stretch:normal;font-size:37.3333px;font-family:Ubuntu;-inkscape-font-specification:'Ubuntu Bold'">Observation Data</tspan></text>
    <text
       xml:space="preserve"
       style="font-size:37.3333px;line-height:1.25;font-family:Ubuntu;-inkscape-font-specification:'Ubuntu, Normal';font-variant-ligatures:none;text-align:center;text-anchor:middle"
       x="509.12842"
       y="995.86829"
       id="text13999-6"><tspan
         sodipodi:role="line"
         id="tspan13997-9"
         x="509.12842"
         y="995.86829"
         style="font-style:normal;font-variant:normal;font-weight:bold;font-stretch:normal;font-size:37.3333px;font-family:Ubuntu;-inkscape-font-specification:'Ubuntu Bold'">x</tspan></text>
    <text
       xml:space="preserve"
       style="font-size:37.3333px;line-height:1.25;font-family:Ubuntu;-inkscape-font-specification:'Ubuntu, Normal';font-variant-ligatures:none;text-align:center;text-anchor:middle"
       x="69.341087"
       y="553.56104"
       id="text13999-6-3"><tspan
         sodipodi:role="line"
         id="tspan13997-9-8"
         x="69.341087"
         y="553.56104"
         style="font-style:normal;font-variant:normal;font-weight:bold;font-stretch:normal;font-size:37.3333px;font-family:Ubuntu;-inkscape-font-specification:'Ubuntu Bold'">y</tspan></text>
  </g>
  <g
     inkscape:groupmode="layer"
     id="layer3"
     inkscape:label="Layer 3"
     style="display:none">
    <path
       d="m 138.5077,460.56012 c 3.57387,3.51255 8.18887,8.65476 13.7217,16.5779 3.88472,5.56301 7.90483,12.0239 12.56559,20.24091 6.95926,12.26931 14.67089,27.87873 24.71118,44.82735 0.22333,0.37701 0.44797,0.75455 0.67389,1.13251 3.60482,6.03069 8.15636,13.21223 13.43585,20.16825 4.64241,6.11663 10.23294,12.57987 16.8731,18.3508 5.86966,5.1013 12.77909,9.85771 20.92906,13.40251 7.44882,3.23983 15.94343,5.47301 25.6717,6.04517 0.58463,0.0344 1.174,0.0531 1.75279,-0.0362 0.57878,-0.0893 1.13511,-0.28478 1.68218,-0.49379 16.81035,-6.42256 32.94856,-15.53159 48.68921,-27.41372 14.28504,-10.78332 27.76051,-23.47966 40.90844,-37.85376 24.80826,-27.12189 44.96477,-56.09685 67.5836,-86.39535 13.68048,-16.69045 24.92845,-34.98706 35.1806,-54.12167 10.08483,-18.82234 19.0407,-38.13264 28.38651,-57.25103 9.24224,-18.90654 18.72543,-37.32537 29.8282,-54.44249 10.95091,-16.883 23.37553,-32.33816 38.52862,-45.67616 8.71242,-4.98822 17.02169,-7.81348 24.93224,-8.98744 8.16877,-1.21227 16.10941,-0.69303 23.86009,1.21826 7.85202,1.93629 15.57462,5.31894 23.15036,9.85998 7.67498,4.60053 15.1413,10.35551 22.36112,16.90039 14.80171,13.41796 28.4105,30.01485 40.45048,46.30704 12.17624,16.47656 23.63377,33.9099 32.53672,46.86391 6.52481,12.62333 15.81652,26.04085 21.60717,34.94606 9.88616,15.20351 14.76789,24.67601 18.11931,34.1608 a 8.2648845,8.2648845 90 0 0 15.58542,-5.50706 c -3.95215,-11.18492 -9.58231,-21.87901 -19.84707,-37.66476 -6.32996,-9.73459 -14.97927,-22.19377 -21.0001,-33.95159 -0.16269,-0.31769 -0.34579,-0.62454 -0.54814,-0.91856 -8.6523,-12.57216 -20.62853,-30.79606 -33.15966,-47.75286 -12.31008,-16.65768 -26.6672,-34.24807 -42.64229,-48.72972 -7.82466,-7.09316 -16.15681,-13.55193 -24.96452,-18.83144 -8.70083,-5.21544 -17.94557,-9.32795 -27.69111,-11.73117 -9.67503,-2.38583 -19.78735,-3.07182 -30.24423,-1.51998 -10.37882,1.54026 -20.90105,5.2558 -31.51171,11.4516 -0.44964,0.26255 -0.87353,0.56706 -1.26588,0.90936 -16.85852,14.70813 -30.42464,31.6201 -42.12474,49.65811 -11.66752,17.9878 -21.50558,37.1432 -30.81066,56.17828 -9.54267,19.52112 -18.21483,38.2424 -28.10633,56.70389 -9.99411,18.65301 -20.70032,35.98783 -33.50796,51.588 -0.0805,0.098 -0.15869,0.1979 -0.23458,0.29953 -23.08431,30.91531 -42.52616,58.90766 -66.64842,85.27957 -12.63311,13.81128 -25.36841,25.77609 -38.6704,35.81734 -14.0901,10.63617 -28.32317,18.73449 -42.94066,24.50918 -6.97341,-0.59942 -13.00578,-2.27156 -18.30336,-4.57572 -6.31061,-2.74478 -11.81378,-6.4926 -16.67886,-10.72082 -5.52698,-4.80347 -10.35394,-10.34006 -14.54941,-15.86782 -4.76528,-6.27851 -8.9668,-12.88813 -12.41443,-18.65584 -0.21446,-0.35878 -0.42796,-0.7176 -0.64049,-1.07636 -9.55466,-16.12886 -17.33556,-31.82996 -24.55491,-44.55782 -4.83522,-8.52457 -9.13062,-15.44841 -13.39105,-21.54946 -6.10861,-8.74767 -11.3801,-14.66965 -15.68744,-18.90308 a 8.2648845,8.2648845 90 0 0 -11.58672,11.78902 z"
       id="path-1"
       inkscape:path-effect="#path-effect22110;#path-effect22112"
       inkscape:original-d="m 144.30106,454.66561 c 9.37502,7.1541 12.44196,19.6288 19.4482,29.11079 5.47389,7.40815 11.44328,14.50723 16.46644,22.48291 5.09996,8.09763 7.91045,17.32579 12.72588,25.5774 5.53438,9.48361 13.39109,18.62471 20.24972,27.04156 12.68224,15.56353 15.38056,24.39158 33.33234,34.82938 3.36406,1.95599 7.51731,0.12763 11.00537,0.12763 27.78804,0 47.25714,-17.3089 66.31332,-36.07342 22.11222,-21.77378 44.55266,-40.98451 63.08615,-66.28615 22.93767,-31.31415 46.39757,-63.06772 66.13667,-96.52567 30.35723,-51.45578 50.67326,-116.30135 94.23754,-158.53033 7.95273,-7.70896 25.46438,-14.36817 35.3849,-17.60046 25.37851,-8.26881 39.42467,4.73581 58.876,19.91428 31.47172,24.55835 59.40584,53.47252 80.80636,87.2885 8.104,12.80553 15.26133,26.18902 23.17773,39.11136 8.33031,13.598 24.85964,35.95751 28.89244,51.00338"
       style="fill:#000000;fill-rule:nonzero;stroke:none;stroke-width:1px;stroke-linecap:butt;stroke-linejoin:miter;stroke-opacity:1" />
  </g>
  <g
     inkscape:groupmode="layer"
     id="layer5"
     inkscape:label="miss"
     style="display:inline">
    <circle
       style="display:inline;fill:#00ccff;stroke:#00222b;stroke-width:2.27102;stroke-linejoin:round;stroke-opacity:0.979711;stop-color:#000000"
       id="path10510-19-0"
       cx="339.18454"
       cy="462.84747"
       r="18.341862" />
    <circle
       style="display:inline;fill:#00ccff;stroke:#00222b;stroke-width:2.27102;stroke-linejoin:round;stroke-opacity:0.979711;stop-color:#000000"
       id="path10510-19-0-6"
       cx="405.6937"
       cy="461.74847"
       r="18.341862" />
    <text
       xml:space="preserve"
       style="font-size:42.6667px;line-height:1.25;font-family:Ubuntu;-inkscape-font-specification:'Ubuntu, Normal';font-variant-ligatures:none;text-align:center;text-anchor:middle"
       x="362.15939"
       y="430.40247"
       id="text27657"><tspan
         sodipodi:role="line"
         id="tspan27655"
         x="362.15939"
         y="430.40247"
         style="font-style:normal;font-variant:normal;font-weight:bold;font-stretch:normal;font-size:42.6667px;font-family:Ubuntu;-inkscape-font-specification:'Ubuntu Bold'">?</tspan></text>
  </g>
  <g
     inkscape:groupmode="layer"
     id="layer6"
     inkscape:label="GPR">
    <rect
       style="display:inline;fill:none;stroke:#501616;stroke-width:5;stroke-linejoin:round;stroke-opacity:0.979711;stop-color:#000000"
       id="rect10406-0"
       width="819.82819"
       height="819.82819"
       x="1045.397"
       y="129.20029" />
    <circle
       style="display:inline;fill:#ffcc00;stroke:#008000;stroke-width:2.27102;stroke-linejoin:round;stroke-opacity:0.979711;stop-color:#000000"
       id="path10510-04"
       cx="1102.8956"
       cy="444.82217"
       r="18.341862" />
    <circle
       style="display:inline;fill:#ffcc00;stroke:#008000;stroke-width:2.27102;stroke-linejoin:round;stroke-opacity:0.979711;stop-color:#000000"
       id="path10510-1-2"
       cx="1202.6296"
       cy="597.61383"
       r="18.341862" />
    <circle
       style="display:inline;fill:#ffcc00;stroke:#008000;stroke-width:2.27102;stroke-linejoin:round;stroke-opacity:0.979711;stop-color:#000000"
       id="path10510-10-6"
       cx="1410.1886"
       cy="348.26083"
       r="18.341862" />
    <circle
       style="display:inline;fill:#ffcc00;stroke:#008000;stroke-width:2.27102;stroke-linejoin:round;stroke-opacity:0.979711;stop-color:#000000"
       id="path10510-34-7"
       cx="1472.5533"
       cy="255.71013"
       r="18.341862" />
    <circle
       style="display:inline;fill:#ffcc00;stroke:#008000;stroke-width:2.27102;stroke-linejoin:round;stroke-opacity:0.979711;stop-color:#000000"
       id="path10510-0-5"
       cx="1562.8896"
       cy="208.32735"
       r="18.341862" />
    <circle
       style="display:inline;fill:#ffcc00;stroke:#008000;stroke-width:2.27102;stroke-linejoin:round;stroke-opacity:0.979711;stop-color:#000000"
       id="path10510-39-6"
       cx="1650.929"
       cy="296.25159"
       r="18.341862" />
    <circle
       style="display:inline;fill:#ffcc00;stroke:#008000;stroke-width:2.27102;stroke-linejoin:round;stroke-opacity:0.979711;stop-color:#000000"
       id="path10510-19-9"
       cx="1712.1029"
       cy="386.63535"
       r="18.341862" />
    <text
       xml:space="preserve"
       style="font-size:37.3333px;line-height:1.25;font-family:Ubuntu;-inkscape-font-specification:'Ubuntu, Normal';font-variant-ligatures:none;text-align:center;text-anchor:middle;display:inline"
       x="1455.1243"
       y="107.37144"
       id="text13999-8"><tspan
         sodipodi:role="line"
         id="tspan13997-7"
         x="1455.1243"
         y="107.37144"
         style="font-style:normal;font-variant:normal;font-weight:bold;font-stretch:normal;font-size:37.3333px;font-family:Ubuntu;-inkscape-font-specification:'Ubuntu Bold'">Proposed Method</tspan></text>
    <text
       xml:space="preserve"
       style="font-size:37.3333px;line-height:1.25;font-family:Ubuntu;-inkscape-font-specification:'Ubuntu, Normal';font-variant-ligatures:none;text-align:center;text-anchor:middle;display:inline"
       x="1458.2891"
       y="988.72162"
       id="text13999-6-2"><tspan
         sodipodi:role="line"
         id="tspan13997-9-82"
         x="1458.2891"
         y="988.72162"
         style="font-style:normal;font-variant:normal;font-weight:bold;font-stretch:normal;font-size:37.3333px;font-family:Ubuntu;-inkscape-font-specification:'Ubuntu Bold'">x</tspan></text>
    <text
       xml:space="preserve"
       style="font-size:37.3333px;line-height:1.25;font-family:Ubuntu;-inkscape-font-specification:'Ubuntu, Normal';font-variant-ligatures:none;text-align:center;text-anchor:middle;display:inline"
       x="1018.5017"
       y="546.41437"
       id="text13999-6-3-9"><tspan
         sodipodi:role="line"
         id="tspan13997-9-8-9"
         x="1018.5017"
         y="546.41437"
         style="font-style:normal;font-variant:normal;font-weight:bold;font-stretch:normal;font-size:37.3333px;font-family:Ubuntu;-inkscape-font-specification:'Ubuntu Bold'">y</tspan></text>
    <circle
       style="display:inline;fill:#00ccff;stroke:#00222b;stroke-width:2.27102;stroke-linejoin:round;stroke-opacity:0.979711;stop-color:#000000"
       id="path10510-19-0-60"
       cx="1288.3451"
       cy="455.70081"
       r="18.341862" />
    <circle
       style="display:inline;fill:#00ccff;stroke:#00222b;stroke-width:2.27102;stroke-linejoin:round;stroke-opacity:0.979711;stop-color:#000000"
       id="path10510-19-0-6-2"
       cx="1354.8542"
       cy="454.60181"
       r="18.341862" />
  </g>
</svg>
